<svg width="352" height="376" viewBox="0 0 352 376" fill="none" xmlns="http://www.w3.org/2000/svg">
<path d="M293.699 208.606L236.013 36.3201L36.3369 103.177L115.277 338.938L251.419 293.353L260.528 320.556L351.289 290.167L320.928 199.49L293.699 208.606ZM0 85.0913L254.133 2.63834e-05L351.289 290.167L97.1565 375.258L0 85.0913ZM254.391 241.937L327 217.625L278.68 314.478L254.391 241.937ZM109.011 139.35L199.773 108.96L208.881 136.163L118.119 166.553L109.011 139.35ZM124.191 184.688L196.801 160.377L205.909 187.58L133.3 211.892L124.191 184.688ZM139.372 230.027L166.601 220.91L175.709 248.113L148.481 257.23L139.372 230.027Z" fill="#F5F5F5"/>
</svg>
