<svg width="334" height="378" viewBox="0 0 334 378" fill="none" xmlns="http://www.w3.org/2000/svg">
<path fill-rule="evenodd" clip-rule="evenodd" d="M303.523 70.5291L234.15 139.045L114.751 107.939L101.012 104.269L22.7518 83.8872C36.3514 60.3332 55.8205 40.1076 79.8767 25.3914C83.3438 23.2372 87.1014 21.0051 90.9355 19.0589C101.277 13.5312 112.581 9.27697 124.192 6.16593C193.855 -12.5003 264.786 15.3588 303.523 70.5291ZM6.09788 207.503C12.9131 232.938 25.4411 255.311 41.8477 273.581L34.7613 377.174L104.827 317.048C122.541 323.942 141.306 327.796 161.048 328.327L139.989 249.735L136.314 236.017L104.611 117.701L16.6317 94.7162C0.257808 128.815 -4.39307 168.35 6.09788 207.503ZM310.437 81.2342L248.47 142.559L238.407 152.607L150.343 239.608L174.082 328.203C185.725 327.533 197.428 325.929 209.329 322.74C278.992 304.074 326.781 244.405 332.453 177.334C332.824 174.005 332.952 170.54 333.075 167.201C333.104 166.422 333.132 165.652 333.164 164.892C333.339 150.448 331.694 136.187 327.789 121.612C323.303 107.192 317.519 93.7331 310.437 81.2342Z" fill="#F5F5F5"/>
</svg>
