<svg width="466" height="429" viewBox="0 0 466 429" xmlns="http://www.w3.org/2000/svg"><title>Hero-diagram</title><g fill="#FFF" fill-rule="nonzero"><path d="M458 .8H8C3.9.8.5 4.2.5 8.3v60c0 4.1 3.4 7.5 7.5 7.5h220.8c.6 1.7 2 3 3.7 3.5v37.4c-1.7.5-3 1.7-3.6 3.3h-29.4c-4.1 0-7.5 3.4-7.5 7.5V168c0 4.1 3.4 7.5 7.5 7.5h29c0 2.5 1.7 4.6 4 5.3v31.4c-1.8.5-3.3 2-3.8 3.8h-79.2v40.2h-31.8c-4.1 0-7.5 3.4-7.5 7.5v13c0 4.1 3.4 7.5 7.5 7.5h28.2v.3c0 2.5 1.7 4.6 4 5.3v31.4c-1.9.5-3.4 2-3.8 4h-28.3c-4.1 0-7.5 3.4-7.5 7.5v40.7c0 4.1 3.4 7.5 7.5 7.5H146c0 2.5 1.7 4.6 4 5.3v31.4c-2.3.7-4 2.8-4 5.3 0 3 2.5 5.5 5.5 5.5s5.5-2.5 5.5-5.5c0-2.5-1.7-4.6-4-5.3v-31.4c2.3-.7 4-2.8 4-5.3h26.8c4.1 0 7.5-3.4 7.5-7.5v-40.7c0-4.1-3.4-7.5-7.5-7.5h-27c-.5-1.9-1.9-3.4-3.8-4v-31.4c2.3-.7 4-2.8 4-5.3v-.3h26.8c4.1 0 7.5-3.4 7.5-7.5v-13c0-4.1-3.4-7.5-7.5-7.5h-31.2V219h76.2c.7 2.3 2.8 4 5.3 4s4.6-1.7 5.3-4H317v37.2h-32c-4.1 0-7.5 3.4-7.5 7.5v13c0 4.1 3.4 7.5 7.5 7.5h27.5v.3c0 2.5 1.7 4.6 4 5.3v31.4c-1.9.5-3.4 2-3.8 4h-27c-4.1 0-7.5 3.4-7.5 7.5v40.7c0 4.1 3.4 7.5 7.5 7.5h26.8c0 2.5 1.7 4.6 4 5.3v31.4c-2.3.7-4 2.8-4 5.3 0 3 2.5 5.5 5.5 5.5s5.5-2.5 5.5-5.5c0-2.5-1.7-4.6-4-5.3v-31.4c2.3-.7 4-2.8 4-5.3h28.2c4.1 0 7.5-3.4 7.5-7.5v-40.7c0-4.1-3.4-7.5-7.5-7.5h-28.3c-.5-1.9-1.9-3.4-3.8-4v-31.4c2.3-.7 4-2.8 4-5.3v-.3H351c4.1 0 7.5-3.4 7.5-7.5v-13c0-4.1-3.4-7.5-7.5-7.5h-31V216h-80.7c-.5-1.8-2-3.3-3.8-3.8v-31.4c2.3-.7 4-2.8 4-5.3H268c4.1 0 7.5-3.4 7.5-7.5v-40.5c0-4.1-3.4-7.5-7.5-7.5h-28.9c-.6-1.6-2-2.8-3.6-3.3V79.3c1.7-.5 3.1-1.8 3.7-3.5H458c4.1 0 7.5-3.4 7.5-7.5v-60c0-4.1-3.4-7.5-7.5-7.5zM188.2 332.7v40.7c0 2.5-2 4.5-4.5 4.5H156c-1-1.5-2.7-2.5-4.6-2.5-1.9 0-3.6 1-4.6 2.5h-29.1c-2.5 0-4.5-2-4.5-4.5v-40.7c0-2.5 2-4.5 4.5-4.5h28.4c.7 2.2 2.8 3.8 5.2 3.8 2.5 0 4.5-1.6 5.2-3.8h27.1c2.5 0 4.6 2 4.6 4.5zm0-69v13c0 2.5-2 4.5-4.5 4.5h-28c-1-1.3-2.6-2.2-4.4-2.2-1.8 0-3.4.9-4.4 2.2h-29.3c-2.5 0-4.5-2-4.5-4.5v-13c0-2.5 2-4.5 4.5-4.5h66c2.5 0 4.6 2 4.6 4.5zm168 69v40.7c0 2.5-2 4.5-4.5 4.5h-29.1c-1-1.5-2.7-2.5-4.6-2.5-1.9 0-3.6 1-4.6 2.5h-27.7c-2.5 0-4.5-2-4.5-4.5v-40.7c0-2.5 2-4.5 4.5-4.5h27.1c.7 2.2 2.8 3.8 5.2 3.8 2.4 0 4.5-1.6 5.2-3.8h28.4c2.5 0 4.6 2 4.6 4.5zm-.7-69v13c0 2.5-2 4.5-4.5 4.5h-28.6c-1-1.3-2.6-2.2-4.4-2.2-1.8 0-3.4.9-4.4 2.2H285c-2.5 0-4.5-2-4.5-4.5v-13c0-2.5 2-4.5 4.5-4.5h66c2.5 0 4.5 2 4.5 4.5zm-83-136.2V168c0 2.5-2 4.5-4.5 4.5h-29.4c-1-1.5-2.7-2.5-4.6-2.5-1.9 0-3.6 1-4.6 2.5h-29.9c-2.5 0-4.5-2-4.5-4.5v-40.5c0-2.5 2-4.5 4.5-4.5h29.1c.5 2.6 2.7 4.5 5.4 4.5s4.9-1.9 5.4-4.5H268c2.5 0 4.5 2 4.5 4.5zm190-59.2c0 2.5-2 4.5-4.5 4.5H239.4c-.5-2.5-2.7-4.3-5.4-4.3s-4.8 1.9-5.4 4.3H8c-2.5 0-4.5-2-4.5-4.5v-60c0-2.5 2-4.5 4.5-4.5h450c2.5 0 4.5 2 4.5 4.5v60z"/><path d="M31.3 29l2.2-6.5 2.1 6.5H38l3.1-9.6H39l-2.3 6.8-2.2-6.8h-2l-2.3 6.8-2.2-6.8h-2.3l3.2 9.6zM45.3 29.1c2.4 0 4.1-1.6 4.1-3.8 0-2.2-1.7-3.8-4.1-3.8-2.4 0-4.1 1.6-4.1 3.8.1 2.3 1.8 3.8 4.1 3.8zm0-5.8c1.1 0 1.9.8 1.9 2.1s-.8 2.1-1.9 2.1c-1.1 0-1.9-.8-1.9-2.1 0-1.4.9-2.1 1.9-2.1zM53.1 25.5c0-1.4.8-2.1 2-2.1h.5v-2c-1.1 0-2 .4-2.5 1.1v-1H51v7.4h2.1v-3.4zM59.2 27.1l1-1 2.4 2.9h2.6l-3.4-4.2 3.1-3.2h-2.6l-3.1 3v-5.8H57V29h2.2zM71.6 18.8h2.1V29h-2.1zM66.5 29h2.1v-5.6h1.8v-1.7h-1.9v-.3c0-.7.3-1.1 1-1.1.3 0 .6.1.9.3L71 19c-.4-.3-1-.4-1.6-.4-1.8 0-2.9 1.1-2.9 2.8v.3h-1.1v1.7h1.1V29zM79.4 29.1c2.4 0 4.1-1.6 4.1-3.8 0-2.2-1.7-3.8-4.1-3.8-2.4 0-4.1 1.6-4.1 3.8.1 2.3 1.8 3.8 4.1 3.8zm0-5.8c1.1 0 1.9.8 1.9 2.1s-.8 2.1-1.9 2.1c-1.1 0-1.9-.8-1.9-2.1 0-1.4.9-2.1 1.9-2.1zM88.7 29l1.7-4.6L92 29h2.1l2.7-7.4h-1.9l-1.8 5-1.8-5h-1.8l-1.8 5-1.8-5h-2l2.7 7.4zM104.4 23.2l4.8 5.8h1.8v-9.6h-2.2v5.8l-4.8-5.8h-1.8V29h2.2zM112.8 26.9c0 1.3 1 2.2 2.8 2.2 1.1 0 1.9-.4 2.3-1v.9h2v-4.2c0-2.2-1.3-3.3-3.6-3.3-1.2 0-2.4.3-3.2.9l.8 1.5c.5-.4 1.4-.7 2.1-.7 1.2 0 1.7.5 1.7 1.5H116c-2.3 0-3.2.9-3.2 2.2zm4.9-1v.8c-.2.7-.9 1-1.6 1-.8 0-1.2-.4-1.2-.9s.3-.9 1.3-.9h1.5zM124.1 25.3c0-1.3.7-1.9 1.6-1.9.9 0 1.4.6 1.4 1.8v3.9h2.1v-3.7c0-1.3.7-1.9 1.6-1.9.9 0 1.4.6 1.4 1.8v3.9h2.1V25c0-2.3-1.3-3.3-3-3.3-1.1 0-2.1.5-2.7 1.2-.5-.8-1.4-1.2-2.4-1.2s-1.8.3-2.3 1v-.9H122v7.4h2.1v-3.9zM140.3 29.1c1.3 0 2.4-.4 3.1-1.2l-1.1-1.2c-.5.5-1.1.7-1.9.7-1.1 0-1.9-.6-2.1-1.5h5.6v-.6c0-2.4-1.7-3.8-3.9-3.8-2.3 0-4 1.6-4 3.8.1 2.2 1.8 3.8 4.3 3.8zm-.2-6c1 0 1.7.6 1.8 1.5h-3.7c.2-.9.9-1.5 1.9-1.5zM209.3 29l2.2-6.5 2.1 6.5h2.4l3.1-9.6H217l-2.3 6.8-2.2-6.8h-2l-2.3 6.8-2.2-6.8h-2.3l3.2 9.6zM223.3 29.1c2.4 0 4.1-1.6 4.1-3.8 0-2.2-1.7-3.8-4.1-3.8-2.4 0-4.1 1.6-4.1 3.8.1 2.3 1.8 3.8 4.1 3.8zm0-5.8c1.1 0 1.9.8 1.9 2.1s-.8 2.1-1.9 2.1c-1.1 0-1.9-.8-1.9-2.1 0-1.4.9-2.1 1.9-2.1zM231.1 25.5c0-1.4.8-2.1 2-2.1h.5v-2c-1.1 0-2 .4-2.5 1.1v-1H229v7.4h2.1v-3.4zM240.6 29h2.6l-3.4-4.2 3.1-3.2h-2.6l-3.1 3v-5.8H235V29h2.2v-1.9l1-1zM244.5 29h2.1v-5.6h1.8v-1.7h-1.9v-.3c0-.7.3-1.1 1-1.1.3 0 .6.1.9.3l.6-1.6c-.4-.3-1-.4-1.6-.4-1.8 0-2.9 1.1-2.9 2.8v.3h-1.1v1.7h1.1V29zM249.6 18.8h2.1V29h-2.1zM257.4 29.1c2.4 0 4.1-1.6 4.1-3.8 0-2.2-1.7-3.8-4.1-3.8-2.4 0-4.1 1.6-4.1 3.8.1 2.3 1.8 3.8 4.1 3.8zm0-5.8c1.1 0 1.9.8 1.9 2.1s-.8 2.1-1.9 2.1c-1.1 0-1.9-.8-1.9-2.1 0-1.4.9-2.1 1.9-2.1zM266.7 29l1.7-4.6L270 29h2.1l2.7-7.4h-1.9l-1.8 5-1.8-5h-1.8l-1.8 5-1.8-5h-2l2.7 7.4zM280.2 19.4h2.2V29h-2.2zM294.5 24.2c0-2.9-2.2-4.8-5.3-4.8h-4.4V29h4.4c3.2 0 5.3-1.9 5.3-4.8zm-7.4 3v-6h2c1.9 0 3.2 1.1 3.2 3 0 1.8-1.3 3-3.2 3h-2zM205 47.4h1.4V53h1.2v-6.6H205zM212.5 50.3c.9-.9 1.1-1.5 1.1-2.1 0-1.2-.9-1.9-2.4-1.9-1.1 0-2 .4-2.5 1.1l.9.7c.4-.5.9-.7 1.6-.7.8 0 1.2.4 1.2 1 0 .4-.1.8-.8 1.4l-2.6 2.5v.8h4.9v-1h-3.1l1.7-1.8zM217.5 49.1l1.6-1.9v-.8h-4.5v1h3l-1.5 1.8v.8h.6c1 0 1.4.4 1.4 1s-.5 1-1.4 1c-.8 0-1.5-.3-1.9-.7l-.5 1c.6.5 1.6.8 2.5.8 1.8 0 2.6-1 2.6-2.1 0-1-.6-1.7-1.9-1.9zM223.1 49.1l1.6-1.9v-.8h-4.5v1h3l-1.5 1.8v.8h.6c1 0 1.4.4 1.4 1s-.5 1-1.4 1c-.8 0-1.5-.3-1.9-.7l-.5 1c.6.5 1.6.8 2.5.8 1.8 0 2.6-1 2.6-2.1 0-1-.6-1.7-1.9-1.9zM230.7 49.1h-1.2v1.4h-2.2l3.1-4.1h-1.3l-3.3 4.3v.8h3.7V53h1.2v-1.5h1.1v-1h-1.1zM234.5 49h-.6l.1-1.5h2.9v-1H233l-.3 3.6h1.6c1.4 0 1.8.4 1.8 1s-.5 1-1.4 1c-.8 0-1.5-.3-2-.7l-.5 1c.6.5 1.6.8 2.5.8 1.8 0 2.6-1 2.6-2.1 0-1.3-.8-2.1-2.8-2.1zM241.1 48.9c-.7 0-1.4.2-1.8.7 0-1.5.8-2.3 2-2.3.5 0 .9.1 1.3.3l.5-.9c-.4-.3-1.1-.4-1.8-.4-1.9 0-3.3 1.3-3.3 3.5 0 2.1 1.1 3.3 2.9 3.3 1.4 0 2.4-.8 2.4-2.2.1-1.2-.9-2-2.2-2zm-.2 3.3c-.9 0-1.4-.5-1.4-1.1 0-.7.6-1.1 1.3-1.1.8 0 1.3.4 1.3 1.1 0 .7-.4 1.1-1.2 1.1zM243.9 48.6h1.2v-1.2h2.6l-2.5 5.6h1.3l2.6-5.8v-.8h-5.2zM249.6 49.9h2.6v1h-2.6zM255.9 47.9c-1.5 0-2.6 1.1-2.6 2.6s1.1 2.6 2.8 2.6c.9 0 1.6-.3 2-.8l-.6-.7c-.4.4-.8.6-1.4.6-.9 0-1.5-.5-1.6-1.2h4v-.4c0-1.7-1.1-2.7-2.6-2.7zm-1.4 2.2c.1-.7.7-1.2 1.4-1.2.8 0 1.3.5 1.4 1.2h-2.8zM262.5 47.9c-.6 0-1.2.2-1.6.7V46h-1.2v7.1h1.1v-.7c.4.5 1 .7 1.7.7 1.5 0 2.6-1 2.6-2.6s-1.1-2.6-2.6-2.6zm-.1 4.2c-.9 0-1.5-.6-1.5-1.6s.7-1.6 1.5-1.6c.9 0 1.5.6 1.5 1.6s-.6 1.6-1.5 1.6zM269.4 50.3c.9-.9 1.1-1.5 1.1-2.1 0-1.2-.9-1.9-2.4-1.9-1.1 0-2 .4-2.5 1.1l.9.7c.4-.5.9-.7 1.6-.7.8 0 1.2.4 1.2 1 0 .4-.1.8-.8 1.4l-2.6 2.5v.8h4.9v-1h-3.1l1.7-1.8zM274.4 49.1l1.6-1.9v-.8h-4.5v1h3l-1.5 1.8v.8h.6c1 0 1.4.4 1.4 1s-.5 1-1.4 1c-.8 0-1.5-.3-1.9-.7l-.5 1c.6.5 1.6.8 2.5.8 1.8 0 2.6-1 2.6-2.1 0-1-.7-1.7-1.9-1.9zM279.4 46.3c-1.4 0-2.4.8-2.4 2.2 0 1.2 1 2 2.3 2 .7 0 1.4-.2 1.8-.7 0 1.5-.8 2.3-2 2.3-.5 0-.9-.1-1.3-.3l-.5.9c.4.3 1.1.4 1.7.4 1.9 0 3.3-1.3 3.3-3.5 0-2.1-1.1-3.3-2.9-3.3zm.1 3.2c-.8 0-1.3-.4-1.3-1.1 0-.7.5-1.1 1.3-1.1.9 0 1.4.5 1.4 1.1 0 .6-.6 1.1-1.4 1.1zM282.8 47.4h1.4V53h1.3v-6.6h-2.7zM290.4 50.3c.9-.9 1.1-1.5 1.1-2.1 0-1.2-.9-1.9-2.4-1.9-1.1 0-2 .4-2.5 1.1l.9.7c.4-.5.9-.7 1.6-.7.8 0 1.2.4 1.2 1 0 .4-.1.8-.8 1.4l-2.6 2.5v.8h4.9v-1h-3.1l1.7-1.8zM295.4 49.1l1.6-1.9v-.8h-4.5v1h3l-1.5 1.8v.8h.6c1 0 1.4.4 1.4 1s-.5 1-1.4 1c-.8 0-1.5-.3-1.9-.7l-.5 1c.6.5 1.6.8 2.5.8 1.8 0 2.6-1 2.6-2.1 0-1-.7-1.7-1.9-1.9zM298.3 49.9h2.6v1h-2.6zM306.7 49.1h-1.1v1.4h-2.2l3.1-4.1h-1.3l-3.3 4.3v.8h3.6V53h1.2v-1.5h1.2v-1h-1.2zM311.3 49.1l1.6-1.9v-.8h-4.5v1h3l-1.5 1.8v.8h.6c1 0 1.4.4 1.4 1s-.5 1-1.4 1c-.8 0-1.5-.3-1.9-.7l-.5 1c.6.5 1.6.8 2.5.8 1.8 0 2.6-1 2.6-2.1 0-1-.7-1.7-1.9-1.9zM317.5 50.3c.9-.9 1.1-1.5 1.1-2.1 0-1.2-.9-1.9-2.4-1.9-1.1 0-2 .4-2.5 1.1l.9.7c.4-.5.9-.7 1.6-.7.8 0 1.2.4 1.2 1 0 .4-.1.8-.8 1.4l-2.6 2.5v.8h4.9v-1h-3.1l1.7-1.8zM322.5 49.1l1.6-1.9v-.8h-4.5v1h3l-1.5 1.8v.8h.6c1 0 1.4.4 1.4 1s-.5 1-1.4 1c-.8 0-1.5-.3-1.9-.7l-.5 1c.6.5 1.6.8 2.5.8 1.8 0 2.6-1 2.6-2.1 0-1-.7-1.7-1.9-1.9zM330 49.1h-1.1v1.4h-2.2l3.1-4.1h-1.3l-3.3 4.3v.8h3.6V53h1.2v-1.5h1.2v-1H330zM335.3 50.3c.9-.9 1.1-1.5 1.1-2.1 0-1.2-.9-1.9-2.4-1.9-1.1 0-2 .4-2.5 1.1l.9.7c.4-.5.9-.7 1.6-.7.8 0 1.2.4 1.2 1 0 .4-.1.8-.8 1.4l-2.6 2.5v.8h4.9v-1h-3.1l1.7-1.8zM339.5 49h-.6l.1-1.5h2.9v-1H338l-.3 3.6h1.6c1.4 0 1.8.4 1.8 1s-.5 1-1.4 1c-.8 0-1.5-.3-2-.7l-.5 1c.6.5 1.6.8 2.5.8 1.8 0 2.6-1 2.6-2.1 0-1.3-.8-2.1-2.8-2.1zM346.5 50.3c.9-.9 1.1-1.5 1.1-2.1 0-1.2-.9-1.9-2.4-1.9-1.1 0-2 .4-2.5 1.1l.9.7c.4-.5.9-.7 1.6-.7.8 0 1.2.4 1.2 1 0 .4-.1.8-.8 1.4l-2.6 2.5v.8h4.9v-1h-3.1l1.7-1.8zM351.5 49.1l1.6-1.9v-.8h-4.5v1h3l-1.5 1.8v.8h.6c1 0 1.4.4 1.4 1s-.5 1-1.4 1c-.8 0-1.5-.3-1.9-.7l-.5 1c.6.5 1.6.8 2.5.8 1.8 0 2.6-1 2.6-2.1 0-1-.6-1.7-1.9-1.9zM356.3 49h-.6l.1-1.5h2.9v-1h-3.9l-.3 3.6h1.6c1.4 0 1.8.4 1.8 1s-.5 1-1.4 1c-.8 0-1.5-.3-2-.7l-.5 1c.6.5 1.6.8 2.5.8 1.8 0 2.6-1 2.6-2.1 0-1.3-.8-2.1-2.8-2.1zM362.7 46.3c-1.6 0-2.8 1.2-2.8 3.4s1.2 3.4 2.8 3.4c1.6 0 2.8-1.2 2.8-3.4s-1.3-3.4-2.8-3.4zm0 5.8c-.9 0-1.5-.7-1.5-2.3 0-1.6.6-2.3 1.5-2.3s1.5.7 1.5 2.3c0 1.6-.6 2.3-1.5 2.3zM369.2 46.3c-1.6 0-2.8 1.2-2.8 3.4s1.2 3.4 2.8 3.4c1.6 0 2.8-1.2 2.8-3.4s-1.3-3.4-2.8-3.4zm0 5.8c-.9 0-1.5-.7-1.5-2.3 0-1.6.6-2.3 1.5-2.3s1.5.7 1.5 2.3c0 1.6-.6 2.3-1.5 2.3zM373 49.9h2.6v1H373zM379.5 46.3c-1.6 0-2.8 1.2-2.8 3.4s1.2 3.4 2.8 3.4c1.6 0 2.8-1.2 2.8-3.4s-1.2-3.4-2.8-3.4zm0 5.8c-.9 0-1.5-.7-1.5-2.3 0-1.6.6-2.3 1.5-2.3s1.5.7 1.5 2.3c0 1.6-.6 2.3-1.5 2.3zM386 46.3c-1.6 0-2.8 1.2-2.8 3.4s1.2 3.4 2.8 3.4c1.6 0 2.8-1.2 2.8-3.4s-1.2-3.4-2.8-3.4zm0 5.8c-.9 0-1.5-.7-1.5-2.3 0-1.6.6-2.3 1.5-2.3s1.5.7 1.5 2.3c0 1.6-.6 2.3-1.5 2.3zM47.3 43.9l-2.9 5-3-5h-1.1v7.5h1.3v-4.9l2.4 4h.6l2.5-4.1v5h1.3v-7.5zM52.6 49.9l-1.8-4.2h-1.4l2.5 5.7-.1.2c-.3.6-.5.8-1 .8-.4 0-.7-.1-1-.4l-.5 1c.4.3 1 .5 1.5.5.9 0 1.7-.4 2.2-1.7l2.7-6.1h-1.3l-1.8 4.2zM67.5 49.6l-1.9-5.7h-1.3l-1.9 5.7-1.9-5.7h-1.4l2.5 7.5h1.5l1.8-5.5 1.9 5.5h1.4l2.5-7.5h-1.3zM73.9 45.6c-1.7 0-3 1.2-3 2.9s1.3 2.9 3 2.9c1.8 0 3-1.2 3-2.9s-1.2-2.9-3-2.9zm0 4.7c-1 0-1.7-.7-1.7-1.8s.7-1.8 1.7-1.8 1.7.7 1.7 1.8-.7 1.8-1.7 1.8zM79.6 46.5v-.8h-1.3v5.7h1.3v-2.8c0-1.2.6-1.8 1.6-1.8h.3v-1.3c-.8.1-1.5.4-1.9 1zM88.5 45.7h-1.6l-2.7 2.5v-4.7h-1.3v7.9h1.3v-1.5l1-1 1.9 2.5h1.7l-2.6-3.3zM93.6 43.5h1.3v7.9h-1.3zM89.9 45.4v.4H89v1.1h.9v4.6h1.3v-4.6h1.5v-1.1h-1.6v-.3c0-.6.3-.9.8-.9.3 0 .5.1.7.2l.4-1c-.3-.2-.7-.3-1.2-.3-1.2-.1-1.9.7-1.9 1.9zM99.4 45.6c-1.7 0-3 1.2-3 2.9s1.3 2.9 3 2.9c1.8 0 3-1.2 3-2.9s-1.3-2.9-3-2.9zm0 4.7c-1 0-1.7-.7-1.7-1.8s.7-1.8 1.7-1.8 1.7.7 1.7 1.8-.8 1.8-1.7 1.8zM109.8 49.9l-1.6-4.2h-1.1l-1.5 4.2-1.5-4.2h-1.3l2.1 5.7h1.3l1.4-4 1.5 4h1.3l2.1-5.7h-1.2zM123 46.7v-1h-1.4l.2-1.8h-1l-.2 1.8h-1.8l.2-1.8h-1l-.2 1.8h-1.6v1h1.4l-.2 1.9h-1.6v1h1.4l-.2 1.8h1l.2-1.8h1.8l-.2 1.8h1l.2-1.8h1.6v-1h-1.4l.2-1.9h1.6zm-2.8 1.9h-1.8l.2-1.9h1.8l-.2 1.9zM123.4 43.9v1.2h1.6v6.3h1.4v-7.5z"/><path d="M164 35.5H35c-3.9 0-7 3.1-7 7V55c0 3.9 3.1 7 7 7h129c3.9 0 7-3.1 7-7V42.5c0-3.9-3.1-7-7-7zm-1.6 10.7l-5 7-5-7h10zM30 55V42.5c0-2.8 2.2-5 5-5h109V60H35c-2.8 0-5-2.2-5-5zM207.3 154.1l-3.1 5.2-3.1-5.2h-1.6v8.4h1.8v-4.9l2.5 4h.9l2.4-4.1v5h1.9l-.1-8.4zM212.9 159h3.9v-1.5h-3.9v-1.8h4.4v-1.6H211v8.4h6.5v-1.6h-4.6zM225.4 154.1h-7.3v1.6h2.6v6.8h2v-6.8h2.7zM228.6 154.1l-3.7 8.4h2l.7-1.8h3.9l.7 1.8h2l-3.8-8.4h-1.8zm-.3 5.1l1.3-3.2 1.3 3.2h-2.6zM239 154.1h-3.8v8.4h3.8c2.7 0 4.6-1.7 4.6-4.2s-1.8-4.2-4.6-4.2zm-.1 6.8h-1.8v-5.2h1.8c1.7 0 2.8 1 2.8 2.6s-1.1 2.6-2.8 2.6zM245.9 162.5l.7-1.8h3.9l.7 1.8h2l-3.8-8.4h-1.9l-3.7 8.4h2.1zm2.7-6.5l1.3 3.2h-2.7l1.4-3.2zM255.5 162.5h1.9v-6.8h2.7v-1.6h-7.3v1.6h2.7zM261.6 162.5l.7-1.8h3.9l.7 1.8h2l-3.8-8.4h-1.9l-3.7 8.4h2.1zm2.7-6.5l1.3 3.2H263l1.3-3.2zM120.2 264.4h1.9v8.4h-1.9zM126 269.8h3.9v-1.6H126V266h4.4v-1.6h-6.3v8.4h1.9zM138.3 275.2c-1-1.8-1.5-3.6-1.5-5.6 0-2 .4-3.8 1.5-5.6h-1.8c-1 1.4-1.5 3.4-1.5 5.6 0 2.2.5 4.2 1.5 5.6h1.8zM140.2 265.5c.7 0 1.2-.5 1.2-1.1 0-.6-.5-1-1.2-1s-1.2.5-1.2 1c.1.6.6 1.1 1.2 1.1zM139.3 266.4h1.9v6.5h-1.9zM144.8 269.6c0-1.2.6-1.7 1.4-1.7.8 0 1.2.5 1.2 1.5v3.4h1.9v-3.2c0-1.2.6-1.7 1.4-1.7.8 0 1.2.5 1.2 1.5v3.4h1.9v-3.7c0-2-1.1-2.9-2.6-2.9-1 0-1.8.4-2.3 1.1-.5-.7-1.2-1.1-2.1-1.1-.8 0-1.5.3-2 .8v-.7H143v6.5h1.9v-3.2h-.1zM155.1 271c0 1.1.9 2 2.4 2 .9 0 1.6-.3 2-.9v.8h1.8v-3.7c0-2-1.1-2.9-3.1-2.9-1 0-2.1.3-2.8.8l.7 1.3c.5-.4 1.2-.6 1.9-.6 1 0 1.5.5 1.5 1.3H158c-2.1-.1-2.9.7-2.9 1.9zm4.3-.9v.7c-.2.6-.8.9-1.4.9-.7 0-1.1-.3-1.1-.8 0-.4.3-.8 1.2-.8h1.3zM165.7 272.5c.8 0 1.5-.3 2-.8v.3c0 1.2-.6 1.8-1.9 1.8-.8 0-1.7-.3-2.3-.7l-.7 1.3c.8.6 1.9.9 3.2.9 2.3 0 3.6-1.1 3.6-3.5v-5.4h-1.8v.8c-.5-.6-1.2-.9-2.1-.9-1.8 0-3.2 1.2-3.2 3.1 0 1.9 1.4 3.1 3.2 3.1zm.4-4.7c1 0 1.7.6 1.7 1.6s-.7 1.6-1.7 1.6-1.7-.6-1.7-1.6.7-1.6 1.7-1.6zM174.6 272.9c1.2 0 2.1-.4 2.7-1l-1-1.1c-.4.4-.9.6-1.6.6-1 0-1.7-.5-1.8-1.3h4.9v-.5c0-2.1-1.5-3.3-3.4-3.3-2 0-3.4 1.4-3.4 3.3-.1 1.9 1.4 3.3 3.6 3.3zm-.2-5.2c.8 0 1.5.5 1.6 1.3h-3.2c.1-.8.7-1.3 1.6-1.3zM180 275.2c1-1.5 1.5-3.4 1.5-5.6 0-2.2-.5-4.2-1.5-5.6h-1.8c1 1.8 1.5 3.6 1.5 5.6 0 2-.4 3.8-1.5 5.6h1.8zM145.5 361.1h-7.3v1.6h2.7v6.8h1.9v-6.8h2.7zM148.8 361.1l-3.7 8.4h2l.7-1.8h3.9l.7 1.8h2l-3.8-8.4h-1.8zm-.4 5.1l1.3-3.2 1.3 3.2h-2.6zM159.4 362.6c.9 0 1.6.3 2.2.9l1.2-1.2c-.8-.9-2-1.5-3.5-1.5-2.7 0-4.6 1.8-4.6 4.3s1.9 4.3 4.6 4.3c1.2 0 2.5-.4 3.4-1.1v-3.4h-1.8v2.5c-.5.3-1 .4-1.5.4-1.6 0-2.7-1.1-2.7-2.7 0-1.4 1.1-2.5 2.7-2.5zM299.3 363.5c0-.5.4-1 1.6-1 .7 0 1.5.2 2.3.7l.6-1.5c-.8-.5-1.9-.7-2.9-.7-2.4 0-3.5 1.2-3.5 2.6 0 3.1 4.9 2 4.9 3.6 0 .5-.5.9-1.6.9-1 0-2.1-.4-2.8-.9l-.7 1.5c.7.6 2.1 1 3.4 1 2.4 0 3.6-1.2 3.6-2.6-.1-3.1-4.9-2.1-4.9-3.6zM304.4 362.7h2.7v6.8h1.9v-6.8h2.7v-1.6h-7.3zM316.7 361c-2.7 0-4.6 1.8-4.6 4.3s1.9 4.3 4.6 4.3c2.6 0 4.6-1.8 4.6-4.3s-1.9-4.3-4.6-4.3zm0 7c-1.5 0-2.6-1.1-2.6-2.7s1.1-2.7 2.6-2.7 2.6 1.1 2.6 2.7c.1 1.6-1.1 2.7-2.6 2.7zM322.8 369.5h1.9v-2.3h1.8l1.6 2.3h2.1l-1.9-2.7c1.1-.5 1.7-1.4 1.7-2.7 0-1.9-1.4-3-3.6-3h-3.6v8.4zm1.9-6.8h1.6c1.2 0 1.8.5 1.8 1.5 0 .9-.6 1.5-1.8 1.5h-1.6v-3zM338.1 367.9h-4.6V366h3.9v-1.5h-3.9v-1.8h4.5v-1.6h-6.4v8.4h6.5zM297.5 264.8h1.9v8.4h-1.9zM303.4 270.1h3.9v-1.6h-3.9v-2.2h4.4v-1.5h-6.4v8.4h2zM315.7 275.5c-1-1.8-1.5-3.6-1.5-5.6 0-2 .4-3.8 1.5-5.6h-1.8c-1 1.4-1.5 3.4-1.5 5.6 0 2.2.5 4.2 1.5 5.6h1.8zM318.5 272.5c.5.5 1.1.8 1.9.8 1.8 0 3.2-1.3 3.2-3.3 0-2-1.4-3.3-3.2-3.3-.9 0-1.6.3-2 .8v-.7h-1.8v8.8h1.9v-3.1zm1.6-4.3c.9 0 1.6.7 1.6 1.8s-.7 1.8-1.6 1.8c-.9 0-1.6-.7-1.6-1.8s.7-1.8 1.6-1.8zM327.7 273.3c.9 0 1.5-.3 2-.8v.7h1.8v-8.9h-1.9v3.1c-.5-.5-1.1-.8-1.9-.8-1.8 0-3.2 1.3-3.2 3.3 0 2.1 1.4 3.4 3.2 3.4zm.3-5.1c.9 0 1.6.7 1.6 1.8s-.7 1.8-1.6 1.8c-.9 0-1.7-.7-1.7-1.8s.8-1.8 1.7-1.8zM333.5 273.2h1.9v-4.9h1.6v-1.4h-1.7v-.3c0-.6.3-.9.9-.9.3 0 .6.1.8.2l.5-1.4c-.3-.2-.9-.3-1.4-.3-1.6 0-2.5.9-2.5 2.4v.3h-1v1.4h1v4.9h-.1zM339.4 275.5c1-1.5 1.5-3.4 1.5-5.6 0-2.2-.5-4.2-1.5-5.6h-1.8c1 1.8 1.5 3.6 1.5 5.6 0 2-.4 3.8-1.5 5.6h1.8zM222.1 130v17.9h20.4l4.6-9-4.6-9h-20.4v.1zm18.6 14.9h-15.6V133h15.6l3.1 6-3.1 5.9zM140.7 335v18h20.4l4.6-9-4.6-9h-20.4zm18.5 15h-15.6v-12h15.6l3.1 6-3.1 6zM202.6 278.7l.4 3.2h6.3l.4-3.2.4-4.2.3-2.2h-8.5l.2 2.2zM211.4 270.8l-1-.6h-8.5l-1.1.6v1h10.6zM212 258.1h-.6c-.1 0-.3 0-.4-.1-.1-.1-.2-.2-.2-.3l-.3-.8c-.1-.1-.1-.2-.1-.4 0-.1.1-.3.2-.4l.4-.4c.1-.1.1-.2.1-.3 0-.1 0-.2-.1-.3l-.7-.7c-.1-.1-.2-.1-.3-.1-.1 0-.2 0-.3.1l-.4.4c-.1.1-.2.2-.4.2s-.3 0-.4-.1l-.8-.3c-.1 0-.2-.1-.3-.2-.1-.1-.1-.3-.1-.4v-.6c0-.1 0-.3-.1-.4-.1-.1-.2-.1-.3-.1h-1c-.1 0-.2 0-.3.1-.1.1-.1.2-.1.4v.6c0 .1 0 .3-.1.4-.1.1-.2.2-.3.2l-.8.3c-.1.1-.2.1-.4.1-.1 0-.3-.1-.4-.2l-.4-.4c-.1-.1-.2-.1-.3-.1-.1 0-.2 0-.3.1l-.7.7c-.1.1-.1.2-.1.3 0 .1 0 .2.1.3l.4.4c.1.1.2.2.2.4 0 .1 0 .3-.1.4l-.3.8c0 .1-.1.2-.2.3-.1.1-.3.1-.4.1h-.6c-.1 0-.3 0-.4.1-.1.1-.1.2-.1.3v1c0 .1 0 .3.1.3.1.1.2.1.4.1h.6c.1 0 .3 0 .4.1.1.1.2.2.2.3l.3.8c.1.1.1.2.1.4s-.1.3-.2.4l-.4.4c-.1.1-.1.2-.1.3 0 .1 0 .2.1.3l.7.7c.1.1.2.1.3.1.1 0 .2 0 .3-.1l.4-.4c.1-.1.2-.2.4-.2s.3 0 .4.1l.8.3c.1 0 .2.1.3.2.1.1.1.2.1.4v.6c0 .1 0 .2.1.3.1.1.2.1.3.1h1c.1 0 .3 0 .3-.1s.1-.2.1-.3v-.6c0-.1 0-.3.1-.4.1-.1.2-.2.3-.2l.8-.3c.1-.1.2-.1.4-.1s.3.1.4.2l.4.4c.1.1.2.1.3.1.1 0 .2 0 .3-.1l.7-.7c.1-.1.1-.2.1-.3 0-.1 0-.2-.1-.3l-.4-.4c-.1-.1-.2-.2-.2-.4s0-.3.1-.4l.3-.8c0-.1.1-.2.2-.3.1-.1.2-.1.4-.1h.6c.1 0 .2 0 .3-.1.1-.1.1-.2.1-.3v-1c0-.1 0-.2-.1-.3-.1 0-.2-.1-.3-.1zm-3.6 2c-.1.3-.3.6-.5.8-.2.2-.5.4-.8.5-.3.1-.6.2-1 .2s-.7-.1-.9-.2c-.3-.1-.6-.3-.8-.5-.2-.2-.4-.5-.5-.8-.1-.3-.2-.6-.2-1 0-.3.1-.7.2-.9.1-.3.3-.6.5-.8.2-.2.5-.4.8-.5.3-.1.6-.2.9-.2.3 0 .7.1 1 .2.3.1.6.3.8.5.2.2.4.5.5.8.1.3.2.6.2.9 0 .4-.1.7-.2 1zM379.1 270.8l-1.1-.6h-8.4l-1.1.6v1h10.6zM370.3 278.7l.3 3.2h6.4l.3-3.2.5-4.2.2-2.2h-8.4l.2 2.2zM379.7 258.1h-.6c-.1 0-.3 0-.4-.1-.1-.1-.2-.2-.2-.3l-.3-.8c-.1-.1-.1-.2-.1-.4 0-.1.1-.3.2-.4l.4-.4c.1-.1.1-.2.1-.3 0-.1 0-.2-.1-.3l-.7-.7c-.1-.1-.2-.1-.3-.1-.1 0-.2 0-.3.1l-.4.4c-.1.1-.2.2-.4.2s-.3 0-.4-.1l-.8-.3c-.1 0-.2-.1-.3-.2-.1-.1-.1-.3-.1-.4v-.6c0-.1 0-.3-.1-.4-.1-.1-.2-.1-.3-.1h-1c-.1 0-.2 0-.3.1-.1.1-.1.2-.1.4v.6c0 .1 0 .3-.1.4-.1.1-.2.2-.3.2l-.8.3c-.1.1-.2.1-.4.1-.1 0-.3-.1-.4-.2l-.4-.4c-.1-.1-.2-.1-.3-.1-.1 0-.2 0-.3.1l-1.2.6c-.1.1-.1.2-.1.3 0 .1 0 .2.1.3l.4.4c.1.1.2.2.2.4 0 .1 0 .3-.1.4l-.3.8c0 .1-.1.2-.2.3-.1.1-.3.1-.4.1h-.6c-.1 0-.3 0-.4.1-.1.1-.1.2-.1.3v1c0 .1 0 .3.1.3.1.1.2.1.4.1h.6c.1 0 .3 0 .4.1.1.1.2.2.2.3l.3.8c.1.1.1.2.1.4s-.1.3-.2.4l-.4.4c-.1.1-.1.2-.1.3 0 .1 0 .2.1.3l.7.7c.1.1.2.1.3.1.1 0 .2 0 .3-.1l.4-.4c.1-.1.2-.2.4-.2s.3 0 .4.1l.8.3c.1 0 .2.1.3.2.1.1.1.2.1.4v.6c0 .1 0 .2.1.3.1.1.2.1.3.1h1c.1 0 .3 0 .3-.1s.1-.2.1-.3v-.6c0-.1 0-.3.1-.4.1-.1.2-.2.3-.2l.8-.3c.1-.1.2-.1.4-.1s.3.1.4.2l.4.4c.1.1.2.1.3.1.1 0 .2 0 .3-.1l.7-.7c.1-.1.1-.2.1-.3 0-.1 0-.2-.1-.3l-.4-.4c-.1-.1-.2-.2-.2-.4s0-.3.1-.4l.3-.8c0-.1.1-.2.2-.3.1-.1.2-.1.4-.1h.6c.1 0 .2 0 .3-.1.1-.1.1-.2.1-.3v-1c0-.1 0-.2-.1-.3.4.1.3 0 .2 0zm-3.6 2c-.1.3-.3.6-.5.8-.2.2-.5.4-.8.5-.3.1-.6.2-1 .2s-.7-.1-.9-.2c-.3-.1-.6-.3-.8-.5-.2-.2-.4-.5-.5-.8-.1-.3-.2-.6-.2-1 0-.3.1-.7.2-.9.1-.3.3-.6.5-.8.2-.2.5-.4.8-.5.3-.1.6-.2.9-.2.3 0 .7.1 1 .2.3.1.6.3.8.5.2.2.4.5.5.8.1.3.2.6.2.9 0 .4-.1.7-.2 1zM201.9 346.9l-1.1.5v1.1h10.6v-1.1l-1-.5zM202.1 351.1l.5 4.3.4 3.2h6.3l.4-3.2.4-4.3.3-2.1h-8.5zM212 334.8h-.6c-.1 0-.3 0-.4-.1-.1-.1-.2-.2-.2-.3l-.3-.8c-.1-.1-.1-.2-.1-.4 0-.1.1-.3.2-.4l.4-.4c.1-.1.1-.2.1-.3 0-.1 0-.2-.1-.3l-.7-.7c-.1-.1-.2-.1-.3-.1-.1 0-.2 0-.3.1l-.4.4c-.1.1-.2.2-.4.2s-.3 0-.4-.1l-.8-.3c-.1 0-.2-.1-.3-.2-.1-.1-.1-.3-.1-.4v-.6c0-.1 0-.3-.1-.4-.1-.1-.2-.1-.3-.1h-1c-.1 0-.2 0-.3.1-.1.1-.1.2-.1.4v.6c0 .1 0 .3-.1.4-.1.1-.2.2-.3.2l-.8.3c-.1.1-.2.1-.4.1-.1 0-.3-.1-.4-.2l-.4-.4c-.1-.1-.2-.1-.3-.1-.1 0-.2 0-.3.1l-.7.7c-.1.1-.1.2-.1.3 0 .1 0 .2.1.3l.4.4c.1.1.2.2.2.4 0 .1 0 .3-.1.4l-.3.8c0 .1-.1.2-.2.3-.1.1-.3.1-.4.1h-.6c-.1 0-.3 0-.4.1-.1.1-.1.2-.1.3v1c0 .1 0 .3.1.3.1.1.2.1.4.1h.6c.1 0 .3 0 .4.1.1.1.2.2.2.3l.3.8c.1.1.1.2.1.4s-.1.3-.2.4l-.4.4c-.1.1-.1.2-.1.3 0 .1 0 .2.1.3l.7.7c.1.1.2.1.3.1.1 0 .2 0 .3-.1l.4-.4c.1-.1.2-.2.4-.2s.3 0 .4.1l.8.3c.1 0 .2.1.3.2.1.1.1.2.1.4v.6c0 .1 0 .2.1.3.1.1.2.1.3.1h1c.1 0 .3 0 .3-.1s.1-.2.1-.3v-.6c0-.1 0-.3.1-.4.1-.1.2-.2.3-.2l.8-.3c.1-.1.2-.1.4-.1s.3.1.4.2l.4.4c.1.1.2.1.3.1.1 0 .2 0 .3-.1l.7-.7c.1-.1.1-.2.1-.3 0-.1 0-.2-.1-.3l-.4-.4c-.1-.1-.2-.2-.2-.4s0-.3.1-.4l.3-.8c0-.1.1-.2.2-.3.1-.1.2-.1.4-.1h.6c.1 0 .2 0 .3-.1.1-.1.1-.2.1-.3v-1c0-.1 0-.2-.1-.3-.1-.1-.2-.1-.3-.1zm-3.6 1.9c-.1.3-.3.6-.5.8-.2.2-.5.4-.8.5-.3.1-.6.2-1 .2s-.7-.1-.9-.2c-.3-.1-.6-.3-.8-.5-.2-.2-.4-.5-.5-.8-.1-.3-.2-.6-.2-1 0-.3.1-.7.2-.9.1-.3.3-.6.5-.8.2-.2.5-.4.8-.5.3-.1.6-.2.9-.2.3 0 .7.1 1 .2.3.1.6.3.8.5.2.2.4.5.5.8.1.3.2.6.2.9 0 .4-.1.7-.2 1zM369.8 351.1l.5 4.3.3 3.2h6.4l.3-3.2.5-4.3.2-2.1h-8.4zM369.6 346.9l-1.1.5v1.1h10.6v-1.1l-1.1-.5zM379.7 334.8h-.6c-.1 0-.3 0-.4-.1-.1-.1-.2-.2-.2-.3l-.3-.8c-.1-.1-.1-.2-.1-.4 0-.1.1-.3.2-.4l.4-.4c.1-.1.1-.2.1-.3 0-.1 0-.2-.1-.3l-.7-.7c-.1-.1-.2-.1-.3-.1-.1 0-.2 0-.3.1l-.4.4c-.1.1-.2.2-.4.2s-.3 0-.4-.1l-.8-.3c-.1 0-.2-.1-.3-.2-.1-.1-.1-.3-.1-.4v-.6c0-.1 0-.3-.1-.4-.1-.1-.2-.1-.3-.1h-1c-.1 0-.2 0-.3.1-.1.1-.1.2-.1.4v.6c0 .1 0 .3-.1.4-.1.1-.2.2-.3.2l-.8.3c-.1.1-.2.1-.4.1-.1 0-.3-.1-.4-.2l-.4-.4c-.1-.1-.2-.1-.3-.1-.1 0-.2 0-.3.1l-.7.7c-.1.1-.1.2-.1.3 0 .1 0 .2.1.3l.4.4c.1.1.2.2.2.4 0 .1 0 .3-.1.4l-.3.8c0 .1-.1.2-.2.3-.1.1-.3.1-.4.1h-.6c-.1 0-.3 0-.4.1-.1.1-.1.2-.1.3v1c0 .1 0 .3.1.3.1.1.2.1.4.1h.6c.1 0 .3 0 .4.1.1.1.2.2.2.3l.3.8c.1.1.1.2.1.4s-.1.3-.2.4l-.4.4c-.1.1-.1.2-.1.3 0 .1 0 .2.1.3l.7.7c.1.1.2.1.3.1.1 0 .2 0 .3-.1l.4-.4c.1-.1.2-.2.4-.2s.3 0 .4.1l.8.3c.1 0 .2.1.3.2.1.1.1.2.1.4v.6c0 .1 0 .2.1.3.1.1.2.1.3.1h1c.1 0 .3 0 .3-.1s.1-.2.1-.3v-.6c0-.1 0-.3.1-.4.1-.1.2-.2.3-.2l.8-.3c.1-.1.2-.1.4-.1s.3.1.4.2l.4.4c.1.1.2.1.3.1.1 0 .2 0 .3-.1l.7-.7c.1-.1.1-.2.1-.3 0-.1 0-.2-.1-.3l-.4-.4c-.1-.1-.2-.2-.2-.4s0-.3.1-.4l.3-.8c0-.1.1-.2.2-.3.1-.1.2-.1.4-.1h.6c.1 0 .2 0 .3-.1.1-.1.1-.2.1-.3v-1c0-.1 0-.2-.1-.3-.1-.1-.2-.1-.3-.1zm-3.6 1.9c-.1.3-.3.6-.5.8-.2.2-.5.4-.8.5-.3.1-.6.2-1 .2s-.7-.1-.9-.2c-.3-.1-.6-.3-.8-.5-.2-.2-.4-.5-.5-.8-.1-.3-.2-.6-.2-1 0-.3.1-.7.2-.9.1-.3.3-.6.5-.8.2-.2.5-.4.8-.5.3-.1.6-.2.9-.2.3 0 .7.1 1 .2.3.1.6.3.8.5.2.2.4.5.5.8.1.3.2.6.2.9 0 .4-.1.7-.2 1zM271.3 196.9v-3.2h-5.8v-1.4c1.1-.3 1.9-1.3 1.9-2.5 0-1.4-1.1-2.6-2.6-2.6s-2.6 1.1-2.6 2.6c0 1.2.8 2.1 1.8 2.4v1.4h-5.8v3.2c-1.1.3-1.9 1.3-1.9 2.5 0 1.4 1.1 2.6 2.6 2.6s2.6-1.1 2.6-2.6c0-1.2-.8-2.1-1.9-2.5V195H269.8v1.8c-1.1.3-1.9 1.3-1.9 2.5 0 1.4 1.1 2.6 2.6 2.6 1.4 0 2.6-1.1 2.6-2.6.1-1.1-.7-2.1-1.8-2.4z"/><path d="M264.9 182.8c-6.9 0-12.5 5.6-12.5 12.5s5.6 12.5 12.5 12.5 12.5-5.6 12.5-12.5-5.6-12.5-12.5-12.5zm0 23.6c-6.1 0-11.1-5-11.1-11.1s5-11.1 11.1-11.1 11.1 5 11.1 11.1-5 11.1-11.1 11.1zM262.3 90.2c0 1.2.8 2.1 1.8 2.4V94h-5.8v3.2c-1.1.3-1.9 1.3-1.9 2.5 0 1.4 1.1 2.6 2.6 2.6s2.6-1.1 2.6-2.6c0-1.2-.8-2.1-1.9-2.5v-1.8H269.9v1.8c-1.1.3-1.9 1.3-1.9 2.5 0 1.4 1.1 2.6 2.6 2.6 1.4 0 2.6-1.1 2.6-2.6 0-1.2-.8-2.1-1.9-2.5V94h-5.8v-1.4c1.1-.3 1.9-1.3 1.9-2.5 0-1.4-1.1-2.6-2.6-2.6s-2.5 1.3-2.5 2.7z"/><path d="M252.4 95.7c0 6.9 5.6 12.5 12.5 12.5s12.5-5.6 12.5-12.5-5.6-12.5-12.5-12.5-12.5 5.6-12.5 12.5zm23.6 0c0 6.1-5 11.1-11.1 11.1s-11.1-5-11.1-11.1 5-11.1 11.1-11.1S276 89.5 276 95.7zM314.5 352.3h7.2v-8.2h4.2l-3.9-4.9-3.9-4.9-3.9 4.9-4 4.9h4.3zM310.2 353.8h15.7v2h-15.7zM419.9 50.5h2.9v-7.6h-7.5v3.2h4.6zM414.4 47h-2.9v7.5h7.5v-3.1h-4.6z"/><path d="M415.3 47h3.7v3.5h-3.7z"/><path d="M422 38h-9.3c-3.3 0-6 2.7-6 6v10.7c0 3.3 2.7 6 6 6h9.3c3.3 0 6-2.7 6-6V44c0-3.3-2.7-6-6-6zm1.8 13.4H420v4h-9.3v-9.3h3.8v-4h9.3v9.3z"/></g></svg>