<svg width="201" height="12" viewBox="0 0 201 12" xmlns="http://www.w3.org/2000/svg"><title>FilestackWorkflowsLogo</title><g fill-rule="nonzero" fill="none"><g fill="#CCC"><path d="M8.2 2.3v3.4h4.9V7H8.2v4H6.8V1.2h6.9v1.2H8.2zM15.7 1.1h1.4v9.8h-1.4zM20 1.1h1.4v8.6h5.3v1.2H20zM35.4 9.7v1.2h-7.1V1.1h6.9v1.2h-5.5v3h4.9v1.2h-4.9v3.2h5.7zM36.8 9.8l.5-1.1c.7.7 2 1.1 3.2 1.1 1.7 0 2.4-.7 2.4-1.5 0-2.4-5.9-.9-5.9-4.5C37 2.3 38.2 1 40.8 1c1.1 0 2.3.3 3.2.9L43.5 3c-.9-.5-1.8-.8-2.7-.8-1.7 0-2.4.7-2.4 1.6 0 2.4 5.9.9 5.9 4.5 0 1.5-1.2 2.8-3.8 2.8-1.4-.1-2.9-.6-3.7-1.3zM48.2 2.3h-3.4V1.1h8.1v1.2h-3.4v8.6h-1.4V2.3zM60.2 8.5H55L53.9 11h-1.4l4.4-9.8h1.4l4.5 9.8h-1.5l-1.1-2.5zm-.4-1.2l-2.1-4.8-2.1 4.8h4.2zM63.6 6c0-2.9 2.2-5 5.2-5 1.5 0 2.8.5 3.7 1.5l-.9.9c-.8-.8-1.7-1.2-2.8-1.2-2.2 0-3.9 1.6-3.9 3.8 0 2.2 1.6 3.8 3.9 3.8 1.1 0 2-.4 2.8-1.2l.9.9c-.9 1-2.2 1.5-3.7 1.5-3 0-5.2-2.1-5.2-5zM78 6.6l-1.8 1.8v2.5h-1.4V1.1h1.4v5.5l5.3-5.5h1.6l-4.2 4.4 4.5 5.4h-1.6zM104 1.1l-3.2 9.8h-2.4l-2.2-6.6-2.2 6.6h-2.4l-3.2-9.8h2.4L93 8l2.3-6.9h2.1L99.6 8l2.3-6.9h2.1zM104.5 6c0-2.9 2.3-5.1 5.4-5.1 3.1 0 5.4 2.1 5.4 5.1 0 3-2.3 5.1-5.4 5.1-3.1 0-5.4-2.2-5.4-5.1zm8.4 0c0-1.9-1.3-3.1-3.1-3.1s-3.1 1.3-3.1 3.1c0 1.9 1.3 3.1 3.1 3.1s3.1-1.2 3.1-3.1zM123.2 10.9l-1.9-2.7h-2.1v2.7h-2.3V1.1h4.2c2.6 0 4.3 1.4 4.3 3.6 0 1.5-.7 2.5-2 3.1l2.2 3.2h-2.4v-.1zM121 3h-1.8v3.4h1.8c1.4 0 2.1-.6 2.1-1.7S122.4 3 121 3zM130.8 7.1l-1.3 1.4V11h-2.3V1.2h2.3v4.6l4.3-4.6h2.5l-4.1 4.4 4.3 5.4h-2.6zM139.8 2.9v2.6h4.5v1.8h-4.5v3.6h-2.3V1.1h7.4v1.8h-5.1zM146.5 1.1h2.3v8h4.9v1.8h-7.2zM154.2 6c0-2.9 2.3-5.1 5.4-5.1C162.7.9 165 3 165 6c0 3-2.3 5.1-5.4 5.1-3.1 0-5.4-2.2-5.4-5.1zm8.4 0c0-1.9-1.3-3.1-3.1-3.1s-3.1 1.3-3.1 3.1c0 1.9 1.3 3.1 3.1 3.1s3.1-1.2 3.1-3.1zM181.1 1.1l-3.2 9.8h-2.4l-2.2-6.6-2.2 6.6h-2.4l-3.2-9.8h2.4L170 8l2.3-6.9h2.1l2.2 6.9 2.3-6.9zM181.6 9.9l.8-1.7c.8.6 2.1 1 3.2 1 1.3 0 1.9-.4 1.9-1 0-1.8-5.7-.6-5.7-4.2 0-1.7 1.3-3.1 4.1-3.1 1.2 0 2.5.3 3.4.9l-.7 1.7c-.9-.5-1.8-.8-2.7-.8-1.3 0-1.9.5-1.9 1.1 0 1.8 5.7.6 5.7 4.2 0 1.6-1.4 3-4.2 3-1.5.1-3-.4-3.9-1.1z"/></g><g fill="#CCC"><path d="M192.9 1.7h-1.5v-.5h3.6v.5h-1.5v3.8h-.6zM199.8 5.6V2.4l-1.6 2.7h-.3l-1.6-2.6v3.2h-.6V1.3h.5l1.8 3.1 1.8-3.1h.5v4.4h-.5z"/></g><path fill="#EF4A25" d="M.4 1.2H2v9.7H.4z"/></g></svg>