<svg width="24" height="24" viewBox="0 0 24 24" fill="none" xmlns="http://www.w3.org/2000/svg">
<path d="M10 4C10.5523 4 11 4.44772 11 5V10C11 10.4832 10.6572 10.8864 10.2015 10.9797C10.1364 10.993 10.069 11 10 11H5C4.44772 11 4 10.5523 4 10C4 9.44772 4.44772 9 5 9H9V5C9 4.44772 9.44772 4 10 4Z" fill="white"/>
<path d="M4 14C4 13.4477 4.44772 13 5 13H9.99901C10.5491 13 10.9965 13.4442 11 13.9935L11 14V19C11 19.5523 10.5523 20 10 20C9.44772 20 9 19.5523 9 19V15H5C4.44772 15 4 14.5523 4 14Z" fill="white"/>
<path d="M13 19C13 19.5523 13.4477 20 14 20C14.5523 20 15 19.5523 15 19V15H19C19.5523 15 20 14.5523 20 14C20 13.4477 19.5523 13 19 13L14 13L13.9935 13C13.4442 13.0035 13 13.4499 13 14L13 19Z" fill="white"/>
<path d="M20 10C20 10.5523 19.5523 11 19 11H14.001C13.4509 11 13.0035 10.5558 13 10.0065L13 10V5C13 4.44772 13.4477 4 14 4C14.5523 4 15 4.44772 15 5V9L19 9C19.5523 9 20 9.44772 20 10Z" fill="white"/>
</svg>
