<svg width="24" height="24" viewBox="0 0 24 24" fill="none" xmlns="http://www.w3.org/2000/svg">
<g clip-path="url(#clip0_119_136)">
<path d="M11.741 10.1871V17.9568H11.0504V10.1871H11.741Z" fill="#FE554A"/>
<path d="M12.9496 10.1871V17.9568H12.259V10.1871H12.9496Z" fill="#FE554A"/>
<path d="M17.0935 8.97842V9.66906H6.90647V8.97842H17.0935Z" fill="#FE554A"/>
<path d="M17.0935 7.76978V8.46043H6.90647V7.76978H17.0935Z" fill="#FE554A"/>
<path fill-rule="evenodd" clip-rule="evenodd" d="M12 0C18.6274 0 24 5.37258 24 12C24 18.6274 18.6274 24 12 24C5.37258 24 0 18.6274 0 12C0 5.37258 5.37258 0 12 0ZM6.38849 7.2518V10.1871H10.5324V18.4748H13.4676V10.1871H17.6115V7.2518H6.38849Z" fill="#FE554A"/>
</g>
<defs>
<clipPath id="clip0_119_136">
<rect width="24" height="24" fill="white"/>
</clipPath>
</defs>
</svg>
