<svg width="24" height="24" viewBox="0 0 24 24" fill="none" xmlns="http://www.w3.org/2000/svg">
<path d="M20 16.18V7.81998C20.4797 7.65287 20.9091 7.3667 21.2479 6.9883C21.5868 6.6099 21.824 6.15166 21.9374 5.65654C22.0507 5.16141 22.0365 4.6456 21.8961 4.15747C21.7556 3.66933 21.4935 3.22485 21.1343 2.86568C20.7752 2.50651 20.3307 2.24442 19.8426 2.10397C19.3544 1.96352 18.8386 1.94931 18.3435 2.06267C17.8484 2.17603 17.3901 2.41325 17.0117 2.7521C16.6333 3.09094 16.3472 3.52032 16.18 3.99998H7.82004C7.65293 3.52032 7.36676 3.09094 6.98836 2.7521C6.60996 2.41325 6.15172 2.17603 5.6566 2.06267C5.16147 1.94931 4.64566 1.96352 4.15753 2.10397C3.66939 2.24442 3.22491 2.50651 2.86574 2.86568C2.50657 3.22485 2.24448 3.66933 2.10403 4.15747C1.96358 4.6456 1.94937 5.16141 2.06273 5.65654C2.17609 6.15166 2.41331 6.6099 2.75216 6.9883C3.09101 7.3667 3.52038 7.65287 4.00004 7.81998V16.18C3.52038 16.3471 3.09101 16.6333 2.75216 17.0117C2.41331 17.3901 2.17609 17.8483 2.06273 18.3434C1.94937 18.8386 1.96358 19.3544 2.10403 19.8425C2.24448 20.3306 2.50657 20.7751 2.86574 21.1343C3.22491 21.4935 3.66939 21.7555 4.15753 21.896C4.64566 22.0365 5.16147 22.0507 5.6566 21.9373C6.15172 21.8239 6.60996 21.5867 6.98836 21.2479C7.36676 20.909 7.65293 20.4796 7.82004 20H16.18C16.3472 20.4796 16.6333 20.909 17.0117 21.2479C17.3901 21.5867 17.8484 21.8239 18.3435 21.9373C18.8386 22.0507 19.3544 22.0365 19.8426 21.896C20.3307 21.7555 20.7752 21.4935 21.1343 21.1343C21.4935 20.7751 21.7556 20.3306 21.8961 19.8425C22.0365 19.3544 22.0507 18.8386 21.9374 18.3434C21.824 17.8483 21.5868 17.3901 21.2479 17.0117C20.9091 16.6333 20.4797 16.3471 20 16.18V16.18ZM19 3.99998C19.1978 3.99998 19.3912 4.05863 19.5556 4.16851C19.7201 4.2784 19.8482 4.43457 19.9239 4.6173C19.9996 4.80003 20.0194 5.00109 19.9808 5.19507C19.9422 5.38906 19.847 5.56724 19.7072 5.70709C19.5673 5.84694 19.3891 5.94218 19.1951 5.98077C19.0012 6.01935 18.8001 5.99955 18.6174 5.92386C18.4346 5.84818 18.2785 5.72 18.1686 5.55555C18.0587 5.3911 18 5.19777 18 4.99998C18 4.73477 18.1054 4.48041 18.2929 4.29288C18.4805 4.10534 18.7348 3.99998 19 3.99998V3.99998ZM5.00004 3.99998C5.19783 3.99998 5.39117 4.05863 5.55561 4.16851C5.72006 4.2784 5.84824 4.43457 5.92392 4.6173C5.99961 4.80003 6.01942 5.00109 5.98083 5.19507C5.94224 5.38906 5.847 5.56724 5.70715 5.70709C5.5673 5.84694 5.38912 5.94218 5.19514 5.98077C5.00115 6.01935 4.80009 5.99955 4.61736 5.92386C4.43464 5.84818 4.27846 5.72 4.16858 5.55555C4.05869 5.3911 4.00004 5.19777 4.00004 4.99998C4.00004 4.73477 4.1054 4.48041 4.29294 4.29288C4.48047 4.10534 4.73483 3.99998 5.00004 3.99998V3.99998ZM5.00004 20C4.80226 20 4.60892 19.9413 4.44447 19.8315C4.28003 19.7216 4.15185 19.5654 4.07617 19.3827C4.00048 19.1999 3.98067 18.9989 4.01926 18.8049C4.05784 18.6109 4.15309 18.4327 4.29294 18.2929C4.43279 18.153 4.61097 18.0578 4.80495 18.0192C4.99894 17.9806 5.2 18.0004 5.38273 18.0761C5.56545 18.1518 5.72163 18.28 5.83151 18.4444C5.9414 18.6089 6.00004 18.8022 6.00004 19C6.00004 19.2652 5.89469 19.5196 5.70715 19.7071C5.51962 19.8946 5.26526 20 5.00004 20ZM16.18 18H7.82004C7.67073 17.5806 7.42994 17.1997 7.11514 16.8849C6.80035 16.5701 6.41944 16.3293 6.00004 16.18V7.81998C6.41944 7.67067 6.80035 7.42988 7.11514 7.11508C7.42994 6.80029 7.67073 6.41938 7.82004 5.99998H16.18C16.3294 6.41938 16.5702 6.80029 16.8849 7.11508C17.1997 7.42988 17.5806 7.67067 18 7.81998V16.18C17.5806 16.3293 17.1997 16.5701 16.8849 16.8849C16.5702 17.1997 16.3294 17.5806 16.18 18V18ZM19 20C18.8023 20 18.6089 19.9413 18.4445 19.8315C18.28 19.7216 18.1519 19.5654 18.0762 19.3827C18.0005 19.1999 17.9807 18.9989 18.0193 18.8049C18.0578 18.6109 18.1531 18.4327 18.2929 18.2929C18.4328 18.153 18.611 18.0578 18.805 18.0192C18.9989 17.9806 19.2 18.0004 19.3827 18.0761C19.5655 18.1518 19.7216 18.28 19.8315 18.4444C19.9414 18.6089 20 18.8022 20 19C20 19.2652 19.8947 19.5196 19.7072 19.7071C19.5196 19.8946 19.2653 20 19 20Z" fill="#212529"/>
</svg>
