<svg width="26" height="24" viewBox="0 0 26 24" fill="none" xmlns="http://www.w3.org/2000/svg">
<path fill-rule="evenodd" clip-rule="evenodd" d="M24.7685 7.77409L18.7013 11.2268L11.0207 6.8632L10.1385 6.35481L5.10412 3.49515C6.48105 2.11826 8.20223 1.08032 10.1385 0.508383C10.4182 0.423652 10.7194 0.338923 11.0207 0.275375C11.8382 0.0847318 12.6988 0 13.5594 0C18.7229 0 23.1119 3.24096 24.7685 7.77409ZM1.66179 11.7352C1.66179 13.6205 2.1136 15.3998 2.90964 16.9673L0.5 24L6.45956 21.1403C7.55681 21.9453 8.78313 22.5596 10.1385 22.9621V17.1368V16.12V7.3504L4.48021 4.13062C2.71601 6.18535 1.66179 8.83322 1.66179 11.7352ZM25.0482 8.64252L19.6265 11.7352L18.7444 12.2436L11.0422 16.6284V23.195C11.8598 23.3644 12.6988 23.4704 13.5809 23.4704C18.7444 23.4704 23.1549 20.2295 24.79 15.6963C24.8773 15.4729 24.9504 15.2357 25.0208 15.007C25.0372 14.9538 25.0535 14.901 25.0697 14.849C25.3495 13.8534 25.5 12.8367 25.5 11.7564C25.457 10.676 25.3064 9.63811 25.0482 8.64252Z" fill="#007AFF"/>
</svg>
