<svg width="3068" height="120" fill="none" xmlns="http://www.w3.org/2000/svg">
  <symbol viewBox="0 0 3068 120" id="pageLogo">
    <path fill-rule="evenodd" clip-rule="evenodd" d="M445.411 120.002H445.475C450.995 120.002 456.315 118.762 461.435 116.282C466.555 113.802 471.075 110.002 474.995 104.882V118.322C476.915 118.882 478.795 119.162 480.635 119.162C481.515 119.162 482.435 119.082 483.395 118.922C484.355 118.762 485.235 118.562 486.035 118.322V102.602C486.035 101.322 486.075 100.042 486.155 98.7622C489.755 98.7622 492.555 99.0022 494.555 99.4822C496.635 99.8821 498.435 100.682 499.955 101.882C501.555 103.002 503.475 104.682 505.715 106.922L510.875 112.202C513.595 114.922 516.075 116.922 518.315 118.202C520.413 119.287 522.641 119.882 525 119.986V120H525.479C525.571 120.001 525.663 120.002 525.755 120.002L525.758 120H3068V111H527.665C525.03 110.44 522.913 109.681 521.315 108.722C519.715 107.682 517.955 106.002 516.035 103.682L512.435 99.4822C511.075 97.8821 509.515 96.5222 507.755 95.4021C512.795 93.8022 516.795 91.4021 519.755 88.2021C522.795 85.0022 524.315 81.2822 524.315 77.0422C524.315 71.9221 522.755 67.8022 519.635 64.6821C516.515 61.5622 512.355 60.0022 507.155 60.0022C506.275 60.0022 505.355 60.0422 504.395 60.1221C510.635 46.8423 513.755 34.7622 513.755 23.8821C513.755 16.8423 512.075 11.1221 508.715 6.72216C505.435 2.32225 500.835 0.082264 494.915 0.00218589C488.435 -0.0778922 483.475 2.04222 480.035 6.36229C476.675 10.6821 474.995 16.8423 474.995 24.8423V86.4021C471.235 93.9221 466.955 99.7222 462.155 103.802C457.355 107.802 452.075 109.802 446.315 109.802L446.202 109.803L446.131 109.802C439.571 109.802 434.491 107.962 430.891 104.282C427.371 100.602 425.611 95.7222 425.611 89.6421C425.611 83.7222 427.011 79.0422 429.811 75.6023C432.691 72.0823 436.451 70.3223 441.091 70.3223C445.731 70.3223 449.371 72.1221 452.011 75.7222C455.691 74.2822 458.011 71.9221 458.971 68.6421C456.971 65.8423 454.371 63.7222 451.171 62.2822C448.051 60.7622 444.571 60.0022 440.731 60.0022C435.611 60.0022 431.051 61.3223 427.051 63.9621C423.131 66.5222 420.051 70.0823 417.811 74.6421C415.571 79.1223 414.451 84.3223 414.451 90.2422C414.451 92.1621 414.611 94.0422 414.931 95.8821C413.091 100.122 410.891 103.482 408.331 105.962C405.866 108.427 403.362 109.666 400.819 109.682H400.805C397.685 109.682 395.445 108.522 394.085 106.202C392.805 103.802 392.165 100.482 392.165 96.2419V61.6821C390.405 61.1221 388.605 60.842 386.765 60.842C385.725 60.842 384.725 60.9221 383.765 61.082C382.805 61.2419 381.965 61.4421 381.245 61.6821V83.282C381.005 86.8821 380.405 90.4421 379.445 93.9619C378.565 97.4819 377.125 100.602 375.125 103.322C373.445 105.482 371.645 107.082 369.725 108.122C367.805 109.162 366.005 109.682 364.325 109.682H364.279C361.726 109.679 359.85 108.719 358.651 106.802C357.531 104.882 356.972 101.722 356.972 97.3223V83.2822C356.972 75.9221 355.252 70.2021 351.812 66.1221C348.452 62.0422 343.651 60.0022 337.411 60.0022C333.092 60.0022 329.172 61.0422 325.651 63.1223C322.132 65.1223 319.252 68.0022 317.012 71.7622C316.052 68.1621 314.332 65.3223 311.852 63.2422C309.372 61.0823 306.332 60.0022 302.732 60.0022C299.292 60.0022 295.812 60.8022 292.292 62.4021C288.797 63.9905 284.239 66.6433 278.615 70.3601C276.607 67.801 274.19 65.6684 271.364 63.9621C267.124 61.3223 262.324 60.0022 256.964 60.0022C251.604 60.0022 246.764 61.3223 242.444 63.9621C238.204 66.5222 234.844 70.0422 232.364 74.5222C229.884 79.0022 228.644 84.1221 228.644 89.8821C228.644 91.7222 228.764 93.4822 229.004 95.1621C226.444 99.7222 223.124 103.322 219.044 105.962C215.051 108.518 210.62 109.798 205.75 109.802C199.204 109.797 194.134 107.957 190.539 104.282C187.019 100.602 185.259 95.7222 185.259 89.6421C185.259 83.7222 186.659 79.0422 189.459 75.6023C192.339 72.0823 196.099 70.3223 200.739 70.3223C205.379 70.3223 209.019 72.1221 211.659 75.7222C215.339 74.2822 217.659 71.9221 218.619 68.6421C216.619 65.8423 214.019 63.7222 210.819 62.2822C207.699 60.7622 204.219 60.0022 200.379 60.0022C195.259 60.0022 190.699 61.3223 186.699 63.9621C182.779 66.5222 179.699 70.0823 177.459 74.6421C175.219 79.1223 174.099 84.3223 174.099 90.2422C174.099 92.1621 174.259 94.0422 174.579 95.8821C172.739 100.122 170.539 103.482 167.979 105.962C165.515 108.427 163.011 109.666 160.468 109.682H160.454C157.334 109.682 155.094 108.522 153.734 106.202C152.454 103.802 151.814 100.482 151.814 96.2419V61.6821C150.054 61.1221 148.254 60.842 146.414 60.842C145.374 60.842 144.374 60.9221 143.414 61.082C142.454 61.2419 141.614 61.4421 140.894 61.6821V83.282C140.654 86.8821 140.054 90.4421 139.094 93.9619C138.214 97.4819 136.774 100.602 134.774 103.322C133.094 105.482 131.294 107.082 129.374 108.122C127.454 109.162 125.654 109.682 123.974 109.682H123.961C121.43 109.668 119.569 108.708 118.378 106.802C117.258 104.882 116.698 101.722 116.698 97.3223V61.0823C115.018 60.5222 113.218 60.2422 111.298 60.2422C110.258 60.2422 109.258 60.3223 108.298 60.4822C107.338 60.6421 106.498 60.8423 105.778 61.0823V66.0022C103.938 64.1621 101.658 62.7222 98.9378 61.6821C96.2178 60.5622 93.4578 60.0022 90.6578 60.0022C85.3778 60.0022 80.6578 61.3623 76.4978 64.0823C72.4178 66.8022 69.1778 70.5222 66.7778 75.2422C64.3778 79.9622 63.1778 85.3623 63.1778 91.4421C63.1778 92.8022 63.2578 94.0823 63.4178 95.2822C60.7778 99.7622 57.4178 103.322 53.3378 105.962C49.3378 108.522 44.9378 109.802 40.1378 109.802L40.0707 109.802L40 109.802C37.2 109.802 34.72 109.162 32.56 107.882C30.4 106.522 28.76 104.522 27.64 101.882C27.48 101.562 27.36 101.282 27.28 101.042C30.72 97.522 34.04 93.2419 37.24 88.2019C40.44 83.082 43.28 77.4419 45.76 71.282C48.32 65.1221 50.32 58.6418 51.76 51.842C53.28 44.9619 54.04 38.042 54.04 31.082C54.04 21.4018 52.36 13.802 49 8.28197C45.64 2.76195 40.84 0.00194175 34.6 0.00194175C31.48 0.00194175 28.6 0.641834 25.96 1.92186C23.4 3.20189 21.24 5.28197 19.48 8.16185C18.28 10.082 17.28 12.2419 16.48 14.6418C15.76 16.9619 15.16 19.802 14.68 23.1619C14.2 26.522 13.88 30.6819 13.72 35.6418C13.56 40.602 13.48 46.6418 13.48 53.762L13.6 53.8821H13.48C13.48 65.1619 13.64 74.2419 13.96 81.1221C14.28 88.0019 14.88 93.602 15.76 97.9219C13.6 100.322 11.16 102.602 8.44 104.762C5.72 106.922 3.04001 108.762 0.399994 110.282C1.35999 114.682 3.32001 117.922 6.28 120.002C9.16 118.082 11.64 116.282 13.72 114.602C15.88 112.842 17.8 111.082 19.48 109.322C21.16 112.362 23.72 114.922 27.16 117.002C30.68 119.002 34.72 120.002 39.28 120.002L39.3636 120.001L39.4259 120L39.4594 120.001L39.5378 120.002C45.1378 120.002 50.2978 118.962 55.0178 116.882C59.7378 114.722 63.7778 111.682 67.1378 107.762C69.2978 111.602 72.1778 114.602 75.7778 116.762C79.4578 118.922 83.6978 120.002 88.4978 120.002C92.4978 120.002 96.1378 119.202 99.4178 117.602C102.698 115.922 105.498 113.602 107.818 110.642C110.458 116.882 115.578 120.002 123.178 120.002L123.222 120.002L123.255 120.002C126.489 119.986 129.488 119.346 132.254 118.082C135.134 116.802 137.654 115.082 139.814 112.922C141.094 111.642 142.294 110.082 143.414 108.242C145.886 116.058 151.26 119.978 159.536 120.002L159.579 120.002C167.819 120.002 174.419 116.042 179.379 108.122C182.019 111.882 185.539 114.802 189.939 116.882C194.339 118.962 199.379 120.002 205.059 120.002H205.124C210.884 120.002 216.164 118.882 220.964 116.642C225.844 114.402 229.964 111.202 233.324 107.042C235.804 111.042 239.084 114.202 243.164 116.522C247.244 118.842 251.844 120.002 256.964 120.002C262.404 120.002 267.204 118.722 271.364 116.162C275.604 113.522 278.924 109.922 281.324 105.362C283.804 100.802 285.044 95.6421 285.044 89.8821C285.044 86.074 284.502 82.5456 283.418 79.2969C283.537 79.2317 283.655 79.1601 283.772 79.0823C287.772 76.2822 291.332 74.1221 294.452 72.6023C297.572 71.0823 300.012 70.3223 301.772 70.3223C303.852 70.3223 305.292 71.1621 306.092 72.8423C306.891 74.5222 307.292 76.9221 307.292 80.0422V118.322C308.972 118.882 310.771 119.162 312.692 119.162C313.572 119.162 314.492 119.082 315.452 118.922C316.411 118.762 317.292 118.562 318.092 118.322V103.442C318.092 96.8823 318.812 91.1221 320.252 86.1621C321.771 81.2021 323.852 77.3223 326.492 74.5222C329.212 71.7222 332.332 70.3223 335.852 70.3223C342.651 70.3223 346.052 74.6421 346.052 83.2822V98.6421C346.052 112.882 351.852 120.002 363.452 120.002L363.498 120.002C366.773 120 369.809 119.36 372.605 118.082C375.485 116.802 378.005 115.082 380.165 112.922C381.445 111.642 382.645 110.082 383.765 108.242C386.238 116.058 391.612 119.978 399.888 120.002L399.931 120.002C408.171 120.002 414.771 116.042 419.731 108.122C422.371 111.882 425.891 114.802 430.291 116.882C434.691 118.962 439.731 120.002 445.411 120.002ZM485.675 24.7222V72.0022C491.275 63.5222 495.555 55.1221 498.515 46.8022C501.555 38.4822 503.075 30.8022 503.075 23.7622C503.075 19.2822 502.315 15.8821 500.795 13.5622C499.355 11.1621 497.235 9.96215 494.435 9.96215C488.595 9.96215 485.675 14.8821 485.675 24.7222ZM505.235 69.4822C500.995 69.4822 497.275 71.3623 494.075 75.1221C490.955 78.8821 488.715 83.8423 487.355 90.0022C488.715 90.1621 490.275 90.2422 492.035 90.2422C496.195 90.2422 499.915 89.6821 503.195 88.5622C506.475 87.4421 509.035 85.9221 510.875 84.0022C512.795 82.0823 513.755 79.9221 513.755 77.5222C513.755 75.1221 512.955 73.2021 511.355 71.7622C509.835 70.2422 507.795 69.4822 505.235 69.4822ZM269.084 104.282C266.044 107.882 261.964 109.682 256.844 109.682C251.724 109.682 247.604 107.882 244.484 104.282C241.444 100.682 239.924 95.9622 239.924 90.1221C239.924 85.6421 240.844 81.8022 242.684 78.6023C244.524 75.3223 247.044 73.0022 250.244 71.6421C252.484 74.6821 255.524 77.0823 259.364 78.8423C263.284 80.6023 267.644 81.5622 272.444 81.7222C273.324 84.2021 273.764 86.9221 273.764 89.8821C273.764 95.8821 272.204 100.682 269.084 104.282ZM74.3378 91.4421C74.3378 97.1223 75.6178 101.602 78.1778 104.882C80.8178 108.082 84.4178 109.682 88.9778 109.682C94.0178 109.682 98.0578 107.962 101.098 104.522C104.218 101.082 105.778 96.5622 105.778 90.9622V77.5222C104.178 75.3623 102.138 73.6421 99.6578 72.3623C97.1778 71.0022 94.6178 70.3223 91.9778 70.3223C88.5378 70.3223 85.4978 71.2422 82.8578 73.0823C80.2178 74.9221 78.1378 77.4421 76.6178 80.6421C75.0978 83.7622 74.3378 87.3623 74.3378 91.4421ZM24.28 75.0019C24.2 69.562 24.16 62.7219 24.16 54.4819C24.16 46.4018 24.24 39.8818 24.4 34.9219C24.64 29.9619 25 26.042 25.48 23.1619C26.04 20.2019 26.72 17.762 27.52 15.842C29.12 12.1619 31.48 10.322 34.6 10.322C37.4 10.322 39.56 12.1221 41.08 15.7219C42.6 19.2419 43.36 24.322 43.36 30.9619C43.36 37.9219 42.52 44.9219 40.84 51.9619C39.24 59.0019 37.04 65.6819 34.24 72.0019C31.44 78.2419 28.32 83.6819 24.88 88.322C24.64 84.802 24.44 80.3621 24.28 75.0019Z" fill="currentColor"/>
    <path d="M381.125 42.0019C382.725 43.602 384.645 44.4021 386.885 44.4021C389.205 44.4021 391.125 43.6421 392.645 42.1221C394.245 40.522 395.045 38.562 395.045 36.2419C395.045 33.842 394.285 31.8821 392.765 30.362C391.245 28.842 389.285 28.082 386.885 28.082C384.565 28.082 382.605 28.842 381.005 30.362C379.485 31.8821 378.725 33.842 378.725 36.2419C378.725 38.4819 379.525 40.4021 381.125 42.0019Z" fill="currentColor"/>
    <path d="M146.534 44.4021C144.294 44.4021 142.374 43.602 140.774 42.0019C139.174 40.4021 138.374 38.4819 138.374 36.2419C138.374 33.842 139.134 31.8821 140.654 30.362C142.254 28.842 144.214 28.082 146.534 28.082C148.934 28.082 150.894 28.842 152.414 30.362C153.934 31.8821 154.694 33.842 154.694 36.2419C154.694 38.562 153.894 40.522 152.294 42.1221C150.774 43.6421 148.854 44.4021 146.534 44.4021Z" fill="currentColor"/>
    <path d="M568.254 38.4C567.134 38.4 566.214 38 565.494 37.2C564.854 36.4 564.574 35.4 564.654 34.2L565.734 24.72C565.814 24.48 565.774 24.32 565.614 24.24C565.454 24.16 565.254 24.2 565.014 24.36L557.214 30C556.254 30.72 555.254 31 554.214 30.84C553.174 30.6 552.334 29.96 551.694 28.92C550.974 27.64 550.814 26.52 551.214 25.56C551.694 24.6 552.454 23.92 553.494 23.52L562.254 19.56C562.494 19.48 562.614 19.36 562.614 19.2C562.614 19.04 562.494 18.92 562.254 18.84L553.494 14.88C552.374 14.4 551.654 13.64 551.334 12.6C551.014 11.56 551.134 10.52 551.694 9.48C552.334 8.44 553.174 7.84 554.214 7.68C555.254 7.44 556.254 7.64 557.214 8.28L565.014 14.04C565.254 14.2 565.454 14.24 565.614 14.16C565.774 14.08 565.814 13.92 565.734 13.68L564.654 4.19999C564.574 2.99999 564.894 2 565.614 1.2C566.334 0.399998 567.294 0 568.494 0C569.614 0 570.534 0.399998 571.254 1.2C571.974 2 572.254 2.99999 572.094 4.19999L571.014 13.68C570.934 13.92 570.974 14.08 571.134 14.16C571.294 14.24 571.494 14.2 571.734 14.04L579.534 8.4C580.494 7.68 581.494 7.44 582.534 7.68C583.654 7.84 584.494 8.44 585.054 9.48C585.774 10.76 585.894 11.88 585.414 12.84C585.014 13.8 584.294 14.48 583.254 14.88L574.494 18.84C574.254 18.92 574.134 19.04 574.134 19.2C574.134 19.36 574.254 19.48 574.494 19.56L583.254 23.52C584.374 24 585.094 24.76 585.414 25.8C585.814 26.84 585.694 27.88 585.054 28.92C584.494 29.96 583.654 30.6 582.534 30.84C581.494 31 580.494 30.76 579.534 30.12L571.734 24.36C571.494 24.2 571.294 24.16 571.134 24.24C570.974 24.32 570.934 24.48 571.014 24.72L572.094 34.2C572.254 35.4 571.934 36.4 571.134 37.2C570.414 38 569.454 38.4 568.254 38.4Z" fill="#F2B516"/>
  </symbol>
</svg>
