<svg width="814" height="345" viewBox="0 0 814 345" fill="none" xmlns="http://www.w3.org/2000/svg">
<g opacity="0.3">
<path opacity="0.1" d="M592.214 49.2857L666.143 0V98.5714L592.214 49.2857Z" fill="white"/>
<path opacity="0.2" d="M740.071 49.2856L666.143 98.5713V-0.000137329L740.071 49.2856Z" fill="white"/>
<path opacity="0.3" d="M666.143 98.5718L740.071 49.2861V147.858L666.143 98.5718Z" fill="white"/>
<path opacity="0.43" d="M814 98.5717L740.071 147.857V49.286L814 98.5717Z" fill="white"/>
<path opacity="0.25" d="M740.071 147.857L814 98.5713V197.143L740.071 147.857Z" fill="white"/>
<path opacity="0.25" d="M740.071 345L814 295.714V345H740.071Z" fill="white"/>
<path opacity="0.25" d="M666.143 197.143L740.071 147.857V246.429L666.143 197.143Z" fill="white"/>
<path opacity="0.35" d="M814 197.143L740.071 246.429V147.857L814 197.143Z" fill="white"/>
<path opacity="0.1" d="M592.214 147.857L666.143 98.5713V197.143L592.214 147.857Z" fill="white"/>
<path opacity="0.05" d="M740.071 147.857L666.143 197.143V98.5712L740.071 147.857Z" fill="white"/>
<path opacity="0.1" d="M740.071 49.2857L814 0V98.5714L740.071 49.2857Z" fill="white"/>
<path opacity="0.1" d="M592.214 246.428L666.143 197.143V295.714L592.214 246.428Z" fill="white"/>
<path opacity="0.2" d="M740.071 246.428L666.143 295.714V197.142L740.071 246.428Z" fill="white"/>
<path opacity="0.1" d="M518.286 295.714L592.214 246.429V345L518.286 295.714Z" fill="white"/>
<path opacity="0.2" d="M666.143 295.714L592.214 345V246.429L666.143 295.714Z" fill="white"/>
<path opacity="0.1" d="M370.429 295.714L444.357 246.429V345L370.429 295.714Z" fill="white"/>
<path opacity="0.2" d="M518.286 295.714L444.357 345V246.429L518.286 295.714Z" fill="white"/>
<path opacity="0.3" d="M592.214 246.428L518.286 295.714V197.142L592.214 246.428Z" fill="white"/>
<path opacity="0.1" d="M518.286 197.143L592.214 147.857V246.429L518.286 197.143Z" fill="white"/>
<path opacity="0.2" d="M666.143 197.143L592.214 246.429V147.857L666.143 197.143Z" fill="white"/>
<path opacity="0.3" d="M444.357 147.857L518.286 98.5713V197.143L444.357 147.857Z" fill="white"/>
<path opacity="0.2" d="M592.214 147.857L518.286 197.143V98.5712L592.214 147.857Z" fill="white"/>
<path opacity="0.1" d="M518.286 197.143L444.357 246.429V147.857L518.286 197.143Z" fill="white"/>
<path opacity="0.1" d="M222.571 295.714L296.5 246.429V345L222.571 295.714Z" fill="white"/>
<path opacity="0.2" d="M370.429 295.714L296.5 345V246.429L370.429 295.714Z" fill="white"/>
<path opacity="0.4" d="M296.5 246.428L370.429 197.143V295.714L296.5 246.428Z" fill="white"/>
<path opacity="0.2" d="M444.357 246.428L370.429 295.714V197.142L444.357 246.428Z" fill="white"/>
<path opacity="0.1" d="M222.571 197.143L296.5 147.857V246.429L222.571 197.143Z" fill="white"/>
<path opacity="0.2" d="M370.429 197.143L296.5 246.429V147.857L370.429 197.143Z" fill="white"/>
<path opacity="0.1" d="M148.643 345L222.571 295.714V345H148.643Z" fill="white"/>
<path opacity="0.2" d="M296.5 345H222.571V295.714L296.5 345Z" fill="white"/>
<path opacity="0.1" d="M296.5 345L370.429 295.714V345H296.5Z" fill="white"/>
<path opacity="0.2" d="M444.357 345H370.429V295.714L444.357 345Z" fill="white"/>
<path opacity="0.05" d="M444.357 345L518.286 295.714V345H444.357Z" fill="white"/>
<path opacity="0.3" d="M592.214 345H518.286V295.714L592.214 345Z" fill="white"/>
<path opacity="0.1" d="M74.7142 295.714L148.643 246.429V345L74.7142 295.714Z" fill="white"/>
<path opacity="0.2" d="M222.571 295.714L148.643 345V246.429L222.571 295.714Z" fill="white"/>
<path opacity="0.1" d="M0.785645 345L74.7142 295.714V345H0.785645Z" fill="white"/>
<path opacity="0.3" d="M148.643 345H74.7142V295.714L148.643 345Z" fill="white"/>
<path opacity="0.1" d="M148.643 246.428L222.571 197.143V295.714L148.643 246.428Z" fill="white"/>
<path opacity="0.1" d="M592.214 345L666.143 295.714V345H592.214Z" fill="white"/>
<path opacity="0.2" d="M740.071 345H666.143V295.714L740.071 345Z" fill="white"/>
<path opacity="0.4" d="M666.143 295.714L740.071 246.429V345L666.143 295.714Z" fill="white"/>
<path opacity="0.2" d="M814 295.714L740.071 345V246.429L814 295.714Z" fill="white"/>
</g>
</svg>
