<svg fill="none" height="168" viewBox="0 0 643 168" width="643" xmlns="http://www.w3.org/2000/svg"><g fill="#fff" opacity=".3"><path d="m376.533-4.62222 47.067-31.37778v62.7556z" opacity=".1"/><path d="m470.667-4.62216-47.067 31.37776v-62.7555z" opacity=".2"/><path d="m423.6 26.7555 47.067-31.37781v62.75551z" opacity=".3"/><path d="m517.733 26.7555-47.066 31.3778v-62.75555z" opacity=".43"/><path d="m470.667 58.1334 47.066-31.3778v62.7556z" opacity=".25"/><path d="m564.8 58.1332-47.067 31.3778v-62.7556z" opacity=".35"/><path d="m517.733 89.5111 47.067-31.3778v62.7557z" opacity=".1"/><path d="m611.867 89.5111-47.067 31.3779v-62.7556z" opacity=".2"/><path d="m564.8 120.889 47.067-31.378v62.756z" opacity=".3"/><path d="m658.933 120.889-47.066 31.378v-62.756z" opacity=".2"/><path d="m611.867 152.267 47.066-31.378v62.755z" opacity=".25"/><path d="m470.667 183.644 47.066-31.377v31.377z" opacity=".25"/><path d="m564.8 183.645h-47.067v-31.378z" opacity=".35"/><path d="m564.8 183.644 47.067-31.377v31.377z" opacity=".1"/><path d="m517.733 152.267 47.067-31.378v62.755z" opacity=".2"/><path d="m611.867 152.267-47.067 31.378v-62.756z" opacity=".5"/><path d="m423.6 89.5111 47.067-31.3778v62.7557z" opacity=".25"/><path d="m517.733 89.5111-47.066 31.3779v-62.7556z" opacity=".35"/><path d="m376.533 58.1334 47.067-31.3778v62.7556z" opacity=".1"/><path d="m470.667 58.1332-47.067 31.3778v-62.7556z" opacity=".05"/><path d="m564.8 120.889-47.067 31.378v-62.756z" opacity=".05"/><path d="m517.733 26.7555 47.067-31.37781v62.75551z" opacity=".2"/><path d="m470.667-4.62222 47.066-31.37778v62.7556z" opacity=".1"/><path d="m564.8-4.62216-47.067 31.37776v-62.7555z" opacity=".2"/><path d="m564.8 58.1334 47.067-31.3778v62.7556z" opacity=".1"/><path d="m658.933 58.1332-47.066 31.3778v-62.7556z" opacity=".2"/><path d="m376.533 120.889 47.067-31.378v62.756z" opacity=".1"/><path d="m470.667 120.889-47.067 31.378v-62.756z" opacity=".2"/><path d="m329.467 152.267 47.066-31.378v62.755z" opacity=".1"/><path d="m423.6 152.267-47.067 31.378v-62.756z" opacity=".2"/><path d="m235.333 152.267 47.067-31.378v62.755z" opacity=".1"/><path d="m329.467 152.267-47.067 31.378v-62.756z" opacity=".2"/><path d="m376.533 120.889-47.066 31.378v-62.756z" opacity=".3"/><path d="m329.467 89.5111 47.066-31.3778v62.7557z" opacity=".1"/><path d="m423.6 89.5111-47.067 31.3779v-62.7556z" opacity=".2"/><path d="m282.4 58.1334 47.067-31.3778v62.7556z" opacity=".3"/><path d="m376.533 58.1332-47.066 31.3778v-62.7556z" opacity=".2"/><path d="m329.467 89.5111-47.067 31.3779v-62.7556z" opacity=".1"/><path d="m141.2 152.267 47.067-31.378v62.755z" opacity=".1"/><path d="m235.333 152.267-47.066 31.378v-62.756z" opacity=".2"/><path d="m188.267 120.889 47.066-31.378v62.756z" opacity=".4"/><path d="m282.4 120.889-47.067 31.378v-62.756z" opacity=".2"/><path d="m141.2 89.5111 47.067-31.3778v62.7557z" opacity=".1"/><path d="m235.333 89.5111-47.066 31.3779v-62.7556z" opacity=".2"/><path d="m94.1334 183.644 47.0666-31.377v31.377z" opacity=".1"/><path d="m188.267 183.645h-47.067v-31.378z" opacity=".2"/><path d="m188.267 183.644 47.066-31.377v31.377z" opacity=".1"/><path d="m282.4 183.645h-47.067v-31.378z" opacity=".2"/><path d="m282.4 183.644 47.067-31.377v31.377z" opacity=".05"/><path d="m376.533 183.645h-47.066v-31.378z" opacity=".3"/><path d="m47.0667 152.267 47.0666-31.378v62.755z" opacity=".1"/><path d="m141.2 152.267-47.0667 31.378v-62.756z" opacity=".2"/><path d="m0 183.644 47.0667-31.377v31.377z" opacity=".1"/><path d="m94.1334 183.645h-47.0667v-31.378z" opacity=".3"/><path d="m94.1334 120.889 47.0666-31.378v62.756z" opacity=".1"/><path d="m376.533 183.644 47.067-31.377v31.377z" opacity=".1"/><path d="m470.667 183.645h-47.067v-31.378z" opacity=".2"/><path d="m423.6 152.267 47.067-31.378v62.755z" opacity=".4"/><path d="m517.733 152.267-47.066 31.378v-62.756z" opacity=".2"/></g></svg>