<svg fill="none" height="345" viewBox="0 0 814 345" width="814" xmlns="http://www.w3.org/2000/svg"><g fill="#786f90" opacity=".3"><path d="m592.214 295.714 73.929 49.286v-98.571z" opacity=".1"/><path d="m740.071 295.715-73.928-49.286v98.571z" opacity=".2"/><path d="m666.143 246.428 73.928 49.286v-98.571z" opacity=".3"/><path d="m814 246.428-73.929-49.285v98.571z" opacity=".43"/><path d="m740.071 197.143 73.929 49.286v-98.572z" opacity=".25"/><path d="m740.071.00054169 73.929 49.28575831v-49.28575831z" opacity=".25"/><path d="m666.143 147.857 73.928 49.286v-98.5717z" opacity=".25"/><path d="m814 147.857-73.929-49.2856v98.5716z" opacity=".35"/><path d="m592.214 197.143 73.929 49.286v-98.572z" opacity=".1"/><path d="m740.071 197.143-73.928-49.285v98.571z" opacity=".05"/><path d="m740.071 295.714 73.929 49.286v-98.571z" opacity=".1"/><path d="m592.214 98.5718 73.929 49.2862v-98.5719z" opacity=".1"/><path d="m740.071 98.572-73.928-49.2857v98.5717z" opacity=".2"/><path d="m518.286 49.2857 73.928 49.2857v-98.57141526z" opacity=".1"/><path d="m666.143 49.2858-73.929-49.28567793v98.57137793z" opacity=".2"/><path d="m370.429 49.2857 73.928 49.2857v-98.57141526z" opacity=".1"/><path d="m518.286 49.2858-73.929-49.28567793v98.57137793z" opacity=".2"/><path d="m592.214 98.572-73.928-49.2857v98.5717z" opacity=".3"/><path d="m518.286 147.857 73.928 49.286v-98.5717z" opacity=".1"/><path d="m666.143 147.857-73.929-49.2856v98.5716z" opacity=".2"/><path d="m444.357 197.143 73.929 49.286v-98.572z" opacity=".3"/><path d="m592.214 197.143-73.928-49.285v98.571z" opacity=".2"/><path d="m518.286 147.857-73.929-49.2856v98.5716z" opacity=".1"/><path d="m222.571 49.2857 73.929 49.2857v-98.57141526z" opacity=".1"/><path d="m370.429 49.2858-73.929-49.28567793v98.57137793z" opacity=".2"/><path d="m296.5 98.5718 73.929 49.2862v-98.5719z" opacity=".4"/><path d="m444.357 98.572-73.928-49.2857v98.5717z" opacity=".2"/><path d="m222.571 147.857 73.929 49.286v-98.5717z" opacity=".1"/><path d="m370.429 147.857-73.929-49.2856v98.5716z" opacity=".2"/><path d="m148.643.00054169 73.928 49.28575831v-49.28575831z" opacity=".1"/><path d="m296.5.00012207h-73.929v49.28567793z" opacity=".2"/><path d="m296.5.00054169 73.929 49.28575831v-49.28575831z" opacity=".1"/><path d="m444.357.00012207h-73.928v49.28567793z" opacity=".2"/><path d="m444.357.00054169 73.929 49.28575831v-49.28575831z" opacity=".05"/><path d="m592.214.00012207h-73.928v49.28567793z" opacity=".3"/><path d="m74.7142 49.2857 73.9288 49.2857v-98.57141526z" opacity=".1"/><path d="m222.571 49.2858-73.928-49.28567793v98.57137793z" opacity=".2"/><path d="m.785645.00054169 73.928555 49.28575831v-49.28575831z" opacity=".1"/><path d="m148.643.00012207h-73.9288v49.28567793z" opacity=".3"/><path d="m148.643 98.5718 73.928 49.2862v-98.5719z" opacity=".1"/><path d="m592.214.00054169 73.929 49.28575831v-49.28575831z" opacity=".1"/><path d="m740.071.00012207h-73.928v49.28567793z" opacity=".2"/><path d="m666.143 49.2857 73.928 49.2857v-98.57141526z" opacity=".4"/><path d="m814 49.2858-73.929-49.28567793v98.57137793z" opacity=".2"/></g></svg>