<svg height="21" viewBox="0 0 318 21" width="318" xmlns="http://www.w3.org/2000/svg"><g fill="none" fill-rule="evenodd"><path d="m.078.76h1.998v19.175h-1.998z" fill="#ef4a26"/><g fill="#9a98a0"><path d="m17.29 2.514v7.533h9.774v1.753h-9.774v8.135h-1.998v-19.175h12.96v1.753h-10.962zm15.088-1.754h1.998v19.174h-1.998zm8.147 0h1.998v17.42h10.584v1.754h-12.582zm29.265 17.42v1.754h-13.365v-19.174h12.96v1.753h-10.962v6.82h9.774v1.726h-9.774v7.122h11.367zm9.907 1.918a12.1 12.1 0 0 1 -4.05-.685c-1.278-.456-2.268-1.059-2.97-1.807l.783-1.562c.684.694 1.593 1.26 2.727 1.698 1.134.42 2.304.63 3.51.63 1.692 0 2.961-.31 3.807-.93.846-.64 1.27-1.462 1.27-2.466 0-.767-.235-1.379-.703-1.835a4.369 4.369 0 0 0 -1.674-1.041c-.666-.256-1.593-.53-2.78-.822-1.423-.365-2.557-.712-3.403-1.04a5.832 5.832 0 0 1 -2.187-1.562c-.594-.694-.89-1.634-.89-2.821 0-.968.251-1.845.755-2.63.504-.803 1.278-1.443 2.322-1.917 1.044-.475 2.34-.712 3.888-.712 1.08 0 2.133.155 3.16.465 1.043.292 1.943.703 2.7 1.233l-.676 1.616a8.933 8.933 0 0 0 -2.538-1.178 9.06 9.06 0 0 0 -2.646-.41c-1.656 0-2.907.328-3.753.985-.828.64-1.242 1.47-1.242 2.493 0 .767.225 1.388.675 1.862.468.457 1.044.813 1.728 1.069.702.237 1.638.502 2.808.794 1.386.347 2.502.694 3.348 1.041.864.329 1.593.84 2.187 1.534.594.676.891 1.598.891 2.766 0 .968-.26 1.854-.783 2.657-.504.786-1.287 1.416-2.349 1.89-1.062.457-2.367.685-3.915.685zm14.809-17.584h-6.642v-1.754h15.282v1.753h-6.642v17.42h-1.998v-17.418zm22.736 12.299h-10.53l-2.269 5.122h-2.078l8.64-19.175h1.97l8.64 19.174h-2.105l-2.269-5.122zm-.73-1.644-4.534-10.299-4.537 10.3h9.073zm16.174 6.93c-1.872 0-3.564-.42-5.076-1.26a9.31 9.31 0 0 1 -3.537-3.479c-.846-1.497-1.269-3.168-1.269-5.012 0-1.845.423-3.506 1.27-4.985a9.199 9.199 0 0 1 3.563-3.506c1.512-.84 3.204-1.26 5.076-1.26 1.404 0 2.7.237 3.888.712a8.055 8.055 0 0 1 3.024 2.081l-1.269 1.288c-1.476-1.516-3.339-2.274-5.589-2.274-1.494 0-2.853.347-4.077 1.041a7.648 7.648 0 0 0 -2.889 2.849c-.684 1.205-1.026 2.556-1.026 4.054 0 1.497.342 2.849 1.026 4.054a7.648 7.648 0 0 0 2.89 2.848c1.223.694 2.582 1.041 4.076 1.041 2.268 0 4.131-.767 5.59-2.3l1.268 1.287c-.828.913-1.845 1.616-3.05 2.109-1.189.475-2.485.712-3.889.712zm17.058-9.176-3.861 3.972v5.04h-1.998v-19.175h1.998v11.586l11.096-11.585h2.295l-8.18 8.683 8.748 10.49h-2.377l-7.721-9.01zm152.131-8.22h-3.321v-.877h7.641v.877h-3.321v8.71h-.999zm15.73-.877v9.587h-.958v-7.67l-3.713 6.451h-.472l-3.713-6.41v7.63h-.958v-9.589h.823l4.104 7.108 4.064-7.108h.824z" fill-rule="nonzero"/><path d="m178.659.152c2.033 0 3.847.429 5.444 1.287 1.596.858 2.835 2.053 3.719 3.585.883 1.532 1.325 3.282 1.325 5.248s-.451 3.715-1.354 5.247c-.902 1.533-2.161 2.728-3.776 3.586-1.615.857-3.458 1.286-5.529 1.286h-8.293v-20.239zm.114 16.394c1.102 0 2.095-.265 2.978-.795a5.487 5.487 0 0 0 2.066-2.212c.495-.945.742-2.024.742-3.238 0-1.215-.262-2.304-.784-3.268-.523-.963-1.235-1.71-2.138-2.24-.902-.53-1.923-.795-3.064-.795h-3.876v12.548zm13.188-16.394h15.19v3.788h-10.687v4.395h9.605v3.787h-9.605v4.482h11.001v3.787h-15.504zm18.888 0h4.503v16.25h8.55v3.99h-13.053v-20.241zm15.582 0h4.503v20.24h-4.503v-20.241zm6.576 0h4.845l5.444 15.266 5.472-15.266h4.645l-7.923 20.24h-4.645l-7.838-20.241zm22.45 0h15.191v3.788h-10.688v4.395h9.605v3.787h-9.604v4.482h11v3.787h-15.504zm31.144 20.24-3.164-5.783h-4.589v5.782h-4.502v-20.239h8.663c2.604 0 4.617.612 6.042 1.836 1.426 1.224 2.138 2.954 2.138 5.19 0 1.561-.318 2.896-.955 4.005-.636 1.108-1.562 1.951-2.779 2.53l4.247 6.678h-5.101zm-7.752-9.6h4.16c1.255 0 2.219-.294 2.893-.882.675-.588 1.012-1.45 1.012-2.587 0-1.118-.337-1.962-1.012-2.53-.674-.569-1.638-.853-2.892-.853h-4.161z"/></g></g></svg>