<svg height="22" viewBox="0 0 404 22" width="404" xmlns="http://www.w3.org/2000/svg"><g fill="none" fill-rule="evenodd"><path d="m.078 1.65h1.998v18.9h-1.998z" fill="#ef4a26"/><g fill="#9a98a0"><path d="m17.29 3.378v7.425h9.774v1.728h-9.774v8.019h-1.998v-18.9h12.96v1.728zm15.088-1.728h1.998v18.9h-1.998zm8.147 0h1.998v17.172h10.584v1.728h-12.582zm29.265 17.172v1.728h-13.365v-18.9h12.96v1.728h-10.962v6.723h9.774v1.701h-9.774v7.02zm9.907 1.89c-1.404 0-2.754-.225-4.05-.675-1.278-.45-2.268-1.044-2.97-1.782l.783-1.539c.684.684 1.593 1.242 2.727 1.674 1.134.414 2.304.621 3.51.621 1.692 0 2.961-.306 3.807-.918.846-.63 1.27-1.44 1.27-2.43 0-.756-.235-1.359-.703-1.809-.45-.45-1.008-.792-1.674-1.026-.666-.252-1.593-.522-2.78-.81-1.423-.36-2.557-.702-3.403-1.026a5.83 5.83 0 0 1 -2.187-1.539c-.594-.684-.89-1.611-.89-2.781 0-.954.251-1.818.755-2.592.504-.792 1.278-1.422 2.322-1.89s2.34-.702 3.888-.702c1.08 0 2.133.153 3.16.459 1.043.288 1.943.693 2.7 1.215l-.676 1.593a8.994 8.994 0 0 0 -2.538-1.161 9.18 9.18 0 0 0 -2.646-.405c-1.656 0-2.907.324-3.753.972-.828.63-1.242 1.449-1.242 2.457 0 .756.225 1.368.675 1.836.468.45 1.044.801 1.728 1.053.702.234 1.638.495 2.808.783 1.386.342 2.502.684 3.348 1.026a5.324 5.324 0 0 1 2.187 1.512c.594.666.891 1.575.891 2.727a4.66 4.66 0 0 1 -.783 2.619c-.504.774-1.287 1.395-2.349 1.863-1.062.45-2.367.675-3.915.675zm14.809-17.334h-6.642v-1.728h15.282v1.728h-6.642v17.172h-1.998zm22.736 12.123h-10.53l-2.269 5.049h-2.078l8.64-18.9h1.97l8.64 18.9h-2.105l-2.269-5.049zm-.73-1.62-4.535-10.152-4.537 10.152h9.073zm16.174 6.831c-1.872 0-3.564-.414-5.076-1.242a9.248 9.248 0 0 1 -3.537-3.429c-.846-1.476-1.269-3.123-1.269-4.941s.423-3.456 1.27-4.914a9.138 9.138 0 0 1 3.563-3.456c1.512-.828 3.204-1.242 5.076-1.242 1.404 0 2.7.234 3.888.702a8.059 8.059 0 0 1 3.024 2.052l-1.269 1.269c-1.476-1.494-3.339-2.241-5.589-2.241-1.494 0-2.853.342-4.077 1.026a7.596 7.596 0 0 0 -2.889 2.808c-.684 1.188-1.026 2.52-1.026 3.996s.342 2.808 1.026 3.996a7.596 7.596 0 0 0 2.89 2.808c1.223.684 2.582 1.026 4.076 1.026 2.268 0 4.131-.756 5.59-2.268l1.268 1.269c-.828.9-1.845 1.593-3.05 2.079-1.189.468-2.485.702-3.889.702zm17.058-9.045-3.861 3.915v4.968h-1.998v-18.9h1.998v11.421l11.096-11.421h2.295l-8.18 8.559 8.748 10.341h-2.377zm237.631-8.103h-3.321v-.864h7.641v.864h-3.321v8.586h-.999zm15.73-.864v9.45h-.958v-7.56l-3.713 6.359h-.472l-3.713-6.318v7.519h-.958v-9.45h.823l4.104 7.007 4.064-7.007h.824z" fill-rule="nonzero"/><path d="m170.195 1.05h4.502v19.95h-4.502zm22.564 0h4.275v19.95h-4.104l-9.662-12.825v12.825h-4.303v-19.95h4.104l9.69 12.882zm6.548 0h16.672v3.819h-6.099v16.131h-4.503v-16.131h-6.07zm18.945 0h15.19v3.734h-10.688v4.332h9.605v3.733h-9.605v4.418h11.002v3.733h-15.506v-19.95zm18.887 0h4.504v16.017h8.55v3.933h-13.054zm15.582 0h4.503v16.017h8.55v3.933h-13.053zm15.582 0h4.504v19.95h-4.504zm22.166 9.89h3.904v7.752c-1.064.779-2.336 1.41-3.818 1.895-1.483.484-2.907.727-4.276.727-1.995 0-3.8-.452-5.414-1.354a10.075 10.075 0 0 1 -3.82-3.705c-.93-1.568-1.396-3.32-1.396-5.258 0-1.92.475-3.663 1.425-5.23.95-1.568 2.256-2.798 3.919-3.691 1.662-.893 3.51-1.34 5.543-1.34 1.482 0 2.93.266 4.346.799 1.416.532 2.636 1.253 3.663 2.165l-2.537 3.221a8.26 8.26 0 0 0 -2.565-1.653 7.584 7.584 0 0 0 -2.907-.599c-1.159 0-2.218.28-3.178.841a6.138 6.138 0 0 0 -2.266 2.28c-.55.96-.826 2.028-.826 3.207 0 1.178.28 2.256.84 3.234a6.184 6.184 0 0 0 2.28 2.309c.96.56 2.02.84 3.178.84.59 0 1.226-.1 1.91-.299.684-.2 1.349-.47 1.995-.812v-5.33zm7.688-9.89h15.19v3.734h-10.688v4.332h9.605v3.733h-9.605v4.418h11.002v3.733h-15.505v-19.95zm32.682 0h4.274v19.95h-4.103l-9.662-12.825v12.825h-4.303v-19.95h4.103l9.69 12.882v-12.882zm22.963 6.241a7.568 7.568 0 0 0 -2.408-1.923c-.922-.466-1.848-.699-2.779-.699a5.932 5.932 0 0 0 -3.078.827 5.946 5.946 0 0 0 -2.195 2.252c-.532.95-.797 2.004-.797 3.163s.265 2.218.797 3.178a6.023 6.023 0 0 0 2.195 2.28c.931.56 1.957.84 3.078.84.893 0 1.8-.213 2.722-.64a8.549 8.549 0 0 0 2.465-1.725l2.65 2.879a12.009 12.009 0 0 1 -3.747 2.622c-1.435.646-2.874.969-4.318.969-1.957 0-3.733-.452-5.33-1.354a9.892 9.892 0 0 1 -3.762-3.72c-.912-1.577-1.368-3.334-1.368-5.272 0-1.919.466-3.657 1.397-5.216.931-1.558 2.209-2.783 3.833-3.676 1.625-.893 3.425-1.34 5.401-1.34 1.444 0 2.869.3 4.275.898 1.406.599 2.603 1.411 3.591 2.437zm5.18-6.241h15.19v3.734h-10.688v4.332h9.605v3.733h-9.604v4.418h11v3.733h-15.504v-19.95z"/></g></g></svg>