<svg fill="none" height="32" viewBox="0 0 121 32" width="121" xmlns="http://www.w3.org/2000/svg"><path d="m25 22v-19h-22v26h15v3h10v-10zm-25-22h28v32h-28zm20 24h8l-8 8zm-11-15h10v3h-10zm0 5h8v3h-8zm0 5h3v3h-3z" fill="#ef4a25"/><g fill="#181325"><path d="m42.8221 6.3102v2.2998h-1.266c-.6978 0-1.0854.3876-1.0854 1.1112v1.5762h2.3514v2.61h-2.3514v10.9824h-3.1008v-10.9824h-1.3698v-2.61h1.3698v-1.6542c0-1.8084.723-3.6432 3.204-3.6432.7236 0 1.7316.1548 2.2482.3102zm1.3949 4.9872h3.1008v13.5924h-3.1008zm0-5.0904h3.1008v2.8164h-3.1008z"/><path d="m50.108 6.207h3.101v18.683h-3.101z"/><path d="m58.6618 16.6207h3.6174c0-1.9638-.5166-3.1008-1.6536-3.1008-1.3176 0-1.8606 1.137-1.9638 3.1008zm6.8736 1.473v.7752h-6.8994c.0258 2.4294.5682 3.7985 2.0928 3.7985 1.0596 0 1.7316-.9557 1.7316-2.5835h3.075c0 3.4884-2.0412 5.1162-4.8066 5.1162-3.4884 0-5.3232-2.2224-5.3232-7.1064s1.8606-7.1064 5.22-7.1064c3.282 0 4.9098 2.2224 4.9098 7.1064zm11.3696-3.4111c0 .2844-.0258.5682-.0258.5946h-3.153c0-1.2144-.594-1.7574-1.5246-1.7574-.9558 0-1.602.5166-1.602 1.344 0 2.6352 6.6414.5682 6.6414 5.943 0 3.3078-2.1708 4.3932-5.0652 4.3932-3.1266 0-4.9356-1.7316-4.9356-4.3158 0-.129.0258-.3102.0258-.3102h3.153v.1812c.0258 1.4472.9816 1.9122 1.8606 1.9122.8268 0 1.8084-.3618 1.8084-1.473 0-2.8686-6.6408-.8268-6.6408-6.0726 0-2.7648 2.1444-4.1346 4.8582-4.1346 2.5842 0 4.5996 1.3698 4.5996 3.6954zm7.9326-3.3853v2.61h-1.9638v7.5714c0 .7236.3876 1.1112 1.0854 1.1112h.8784v2.2998c-.4392.1554-1.266.3102-1.8606.3102-2.481 0-3.204-1.8348-3.204-3.6432v-7.6494h-1.3698v-2.61h1.3698l.465-3.82437h2.6358v3.82437zm3.9275 9.7941c0 .93.465 1.5246 1.5246 1.5246 1.473 0 2.0412-1.3698 2.0412-2.9718v-.7752c-1.8084 0-3.5658.465-3.5658 2.2224zm6.693-6.0984v6.693c0 .6456.3618.9042.7236.9042h.6198v2.1966c-.336.1806-.9042.4134-1.8348.4134-1.2402 0-2.0928-.7236-2.403-1.7832h-.129c-.7752 1.0854-1.6284 1.7832-3.4368 1.7832-1.2666 0-3.411-.672-3.411-3.8244 0-3.6696 2.7906-4.755 6.744-4.755v-1.4214c0-.93-.2322-1.6794-1.4208-1.6794-1.2666 0-1.6278.7752-1.6278 1.4214v.387h-3.024c-.0258-.1548-.0258-.3354-.0258-.5682 0-2.274 1.809-3.7728 4.5996-3.7728 3.153 0 4.626 1.473 4.626 4.0056zm12.4029 1.4211h-3.178c0-1.9122-.517-2.817-1.576-2.817-1.319 0-1.809 1.3956-1.809 4.0056v.9822c0 2.61.516 4.005 1.912 4.005 1.111 0 1.576-.9564 1.576-2.8164h3.075c0 3.7986-1.809 5.4264-4.651 5.4264-3.5407 0-5.1427-2.2224-5.1427-7.1064s1.68-7.1058 5.0397-7.1058c2.893 0 4.754 1.6278 4.754 5.4264z"/><path d="m117.086 11.297h3.308l-4.032 5.531 4.238 8.062h-3.437l-2.739-5.633-1.137 1.395v4.238h-3.101v-18.683h3.101v10.492z"/></g></svg>