<svg height="22" viewBox="0 0 378 22" width="378" xmlns="http://www.w3.org/2000/svg"><g fill="none" fill-rule="evenodd"><path d="m.078 1.65h1.998v18.9h-1.998z" fill="#ef4a26"/><g fill="#9a98a0"><path d="m17.29 3.378v7.425h9.774v1.728h-9.774v8.019h-1.998v-18.9h12.96v1.728zm15.088-1.728h1.998v18.9h-1.998zm8.147 0h1.998v17.172h10.584v1.728h-12.582zm29.265 17.172v1.728h-13.365v-18.9h12.96v1.728h-10.962v6.723h9.774v1.701h-9.774v7.02zm9.907 1.89c-1.404 0-2.754-.225-4.05-.675-1.278-.45-2.268-1.044-2.97-1.782l.783-1.539c.684.684 1.593 1.242 2.727 1.674 1.134.414 2.304.621 3.51.621 1.692 0 2.961-.306 3.807-.918.846-.63 1.27-1.44 1.27-2.43 0-.756-.235-1.359-.703-1.809-.45-.45-1.008-.792-1.674-1.026-.666-.252-1.593-.522-2.78-.81-1.423-.36-2.557-.702-3.403-1.026a5.83 5.83 0 0 1 -2.187-1.539c-.594-.684-.89-1.611-.89-2.781 0-.954.251-1.818.755-2.592.504-.792 1.278-1.422 2.322-1.89s2.34-.702 3.888-.702c1.08 0 2.133.153 3.16.459 1.043.288 1.943.693 2.7 1.215l-.676 1.593a8.994 8.994 0 0 0 -2.538-1.161 9.18 9.18 0 0 0 -2.646-.405c-1.656 0-2.907.324-3.753.972-.828.63-1.242 1.449-1.242 2.457 0 .756.225 1.368.675 1.836.468.45 1.044.801 1.728 1.053.702.234 1.638.495 2.808.783 1.386.342 2.502.684 3.348 1.026a5.324 5.324 0 0 1 2.187 1.512c.594.666.891 1.575.891 2.727a4.66 4.66 0 0 1 -.783 2.619c-.504.774-1.287 1.395-2.349 1.863-1.062.45-2.367.675-3.915.675zm14.809-17.334h-6.642v-1.728h15.282v1.728h-6.642v17.172h-1.998zm22.736 12.123h-10.53l-2.269 5.049h-2.078l8.64-18.9h1.97l8.64 18.9h-2.105l-2.269-5.049zm-.73-1.62-4.535-10.152-4.537 10.152h9.073zm16.174 6.831c-1.872 0-3.564-.414-5.076-1.242a9.248 9.248 0 0 1 -3.537-3.429c-.846-1.476-1.269-3.123-1.269-4.941s.423-3.456 1.27-4.914a9.138 9.138 0 0 1 3.563-3.456c1.512-.828 3.204-1.242 5.076-1.242 1.404 0 2.7.234 3.888.702a8.059 8.059 0 0 1 3.024 2.052l-1.269 1.269c-1.476-1.494-3.339-2.241-5.589-2.241-1.494 0-2.853.342-4.077 1.026a7.596 7.596 0 0 0 -2.889 2.808c-.684 1.188-1.026 2.52-1.026 3.996s.342 2.808 1.026 3.996a7.596 7.596 0 0 0 2.89 2.808c1.223.684 2.582 1.026 4.076 1.026 2.268 0 4.131-.756 5.59-2.268l1.268 1.269c-.828.9-1.845 1.593-3.05 2.079-1.189.468-2.485.702-3.889.702zm17.058-9.045-3.861 3.915v4.968h-1.998v-18.9h1.998v11.421l11.096-11.421h2.295l-8.18 8.559 8.748 10.341h-2.377zm212.131-8.103h-3.321v-.864h7.641v.864h-3.321v8.586h-.999zm15.73-.864v9.45h-.958v-7.56l-3.713 6.359h-.472l-3.713-6.318v7.519h-.958v-9.45h.823l4.104 7.007 4.064-7.007h.824z" fill-rule="nonzero"/><path d="m168.228 1.05h16.672v3.819h-6.099v16.131h-4.501v-16.131h-6.071v-3.819zm31.2 19.95-3.163-5.7h-4.589v5.7h-4.503v-19.95h8.664c2.603 0 4.617.603 6.042 1.81 1.425 1.206 2.138 2.911 2.138 5.116 0 1.539-.319 2.854-.955 3.947-.637 1.092-1.563 1.923-2.779 2.493l4.247 6.584zm-7.752-9.462h4.161c1.254 0 2.218-.29 2.893-.87.674-.579 1.012-1.429 1.012-2.55 0-1.102-.338-1.933-1.012-2.494-.675-.56-1.639-.84-2.893-.84h-4.161zm30.716 9.462-1.568-3.876h-9.234l-1.567 3.876h-4.646l8.664-19.95h4.645l8.522 19.95zm-9.32-7.495h6.298l-3.135-7.753zm29.86-12.455h4.276v19.95h-4.105l-9.661-12.825v12.825h-4.304v-19.95h4.105l9.69 12.882v-12.882zm21.653 5.558a15.146 15.146 0 0 0 -3.263-1.497c-1.15-.37-2.133-.555-2.95-.555-.779 0-1.396.142-1.853.427-.456.285-.684.703-.684 1.254 0 .703.328 1.24.984 1.61.655.37 1.667.755 3.035 1.154 1.368.4 2.494.798 3.377 1.197a5.99 5.99 0 0 1 2.266 1.796c.627.798.94 1.852.94 3.164 0 1.273-.337 2.37-1.011 3.291-.675.922-1.601 1.62-2.779 2.095s-2.517.712-4.019.712c-1.615 0-3.201-.284-4.759-.855-1.558-.57-2.907-1.348-4.047-2.337l1.796-3.676a12.139 12.139 0 0 0 3.477 2.194c1.31.552 2.507.827 3.59.827.932 0 1.658-.171 2.18-.513.523-.342.784-.836.784-1.482 0-.513-.175-.936-.527-1.268-.351-.333-.798-.603-1.34-.813-.54-.209-1.286-.446-2.236-.712-1.369-.38-2.485-.76-3.35-1.14a5.892 5.892 0 0 1 -2.237-1.739c-.627-.779-.94-1.814-.94-3.106 0-1.197.323-2.247.969-3.15.646-.902 1.548-1.595 2.708-2.08 1.159-.484 2.507-.726 4.047-.726 1.368 0 2.716.199 4.046.598s2.508.931 3.535 1.596l-1.739 3.733zm4.866-5.558h14.335l-.028 3.734h-9.804v4.901h9.006v3.762h-9.006v7.553h-4.503v-19.95zm26.099-.314c1.995 0 3.809.447 5.443 1.34s2.921 2.123 3.862 3.69c.94 1.568 1.41 3.311 1.41 5.23 0 1.92-.47 3.667-1.41 5.245a10.091 10.091 0 0 1 -3.862 3.719c-1.634.902-3.448 1.354-5.443 1.354-1.996 0-3.81-.452-5.444-1.354-1.634-.903-2.921-2.138-3.862-3.705-.94-1.568-1.41-3.32-1.41-5.258 0-1.92.47-3.663 1.41-5.23a10.047 10.047 0 0 1 3.848-3.691c1.624-.893 3.443-1.34 5.458-1.34zm.056 3.934c-1.102 0-2.127.28-3.077.84a6.14 6.14 0 0 0 -2.252 2.295 6.345 6.345 0 0 0 -.827 3.191c0 1.179.28 2.252.841 3.221a6.398 6.398 0 0 0 2.252 2.309 5.8 5.8 0 0 0 3.063.855 5.73 5.73 0 0 0 3.036-.841 6.107 6.107 0 0 0 2.194-2.309c.542-.978.813-2.056.813-3.235a6.43 6.43 0 0 0 -.813-3.192 6.136 6.136 0 0 0 -2.194-2.294 5.73 5.73 0 0 0 -3.036-.84zm25.728 16.33-3.163-5.7h-4.589v5.7h-4.502v-19.95h8.663c2.604 0 4.617.603 6.043 1.81 1.425 1.206 2.137 2.911 2.137 5.116 0 1.539-.318 2.854-.955 3.947-.636 1.092-1.562 1.923-2.779 2.493l4.248 6.584h-5.101zm-7.752-9.462h4.161c1.255 0 2.219-.29 2.893-.87.675-.579 1.012-1.429 1.012-2.55 0-1.102-.337-1.933-1.012-2.494-.674-.56-1.638-.84-2.893-.84h-4.16v6.754zm15.981-10.488h5.017l6.213 12.255 6.156-12.255h4.987v19.95h-4.047v-13.48l-5.672 11.457h-2.906l-5.7-11.457v13.48h-4.048z"/></g></g></svg>