<svg width="393" height="22" viewBox="0 0 393 22" fill="none" xmlns="http://www.w3.org/2000/svg">
<path fill-rule="evenodd" clip-rule="evenodd" d="M0.0780029 1.75977H2.076V20.9348H0.0780029V1.75977Z" fill="#EF4A26"/>
<path d="M17.29 3.5137V11.0467H27.064V12.7997H17.29V20.9347H15.292V1.7597H28.252V3.5127H17.29V3.5137ZM32.378 1.7597H34.376V20.9337H32.378V1.7597ZM40.525 1.7597H42.523V19.1797H53.107V20.9337H40.525V1.7597ZM69.79 19.1797V20.9337H56.425V1.7597H69.385V3.5127H58.423V10.3327H68.197V12.0587H58.423V19.1807H69.79V19.1797ZM79.697 21.0977C78.3178 21.1019 76.9481 20.8702 75.647 20.4127C74.369 19.9567 73.379 19.3537 72.677 18.6057L73.46 17.0437C74.144 17.7377 75.053 18.3037 76.187 18.7417C77.321 19.1617 78.491 19.3717 79.697 19.3717C81.389 19.3717 82.658 19.0617 83.504 18.4417C84.35 17.8017 84.774 16.9797 84.774 15.9757C84.774 15.2087 84.539 14.5967 84.071 14.1407C83.5996 13.6707 83.027 13.3146 82.397 13.0997C81.731 12.8437 80.804 12.5697 79.617 12.2777C78.194 11.9127 77.06 11.5657 76.214 11.2377C75.3733 10.8944 74.6245 10.3595 74.027 9.6757C73.433 8.9817 73.137 8.0417 73.137 6.8547C73.137 5.8867 73.388 5.0097 73.892 4.2247C74.396 3.4217 75.17 2.7817 76.214 2.3077C77.258 1.8327 78.554 1.5957 80.102 1.5957C81.182 1.5957 82.235 1.7507 83.262 2.0607C84.305 2.3527 85.205 2.7637 85.962 3.2937L85.286 4.9097C84.5071 4.38616 83.6506 3.98861 82.748 3.7317C81.8912 3.46474 80.9994 3.32656 80.102 3.3217C78.446 3.3217 77.195 3.6497 76.349 4.3067C75.521 4.9467 75.107 5.7767 75.107 6.7997C75.107 7.5667 75.332 8.1877 75.782 8.6617C76.25 9.1187 76.826 9.4747 77.51 9.7307C78.212 9.9677 79.148 10.2327 80.318 10.5247C81.704 10.8717 82.82 11.2187 83.666 11.5657C84.53 11.8947 85.259 12.4057 85.853 13.0997C86.447 13.7757 86.744 14.6977 86.744 15.8657C86.744 16.8337 86.484 17.7197 85.961 18.5227C85.457 19.3087 84.674 19.9387 83.612 20.4127C82.55 20.8697 81.245 21.0977 79.697 21.0977ZM94.506 3.5137H87.864V1.7597H103.146V3.5127H96.504V20.9327H94.506V3.5147V3.5137ZM117.242 15.8127H106.712L104.443 20.9347H102.365L111.005 1.7607H112.975L121.615 20.9347H119.51L117.241 15.8127H117.242ZM116.512 14.1687L111.978 3.8697L107.441 14.1697H116.514L116.512 14.1687ZM132.686 21.0987C130.814 21.0987 129.122 20.6787 127.61 19.8387C126.138 19.0203 124.916 17.8179 124.073 16.3597C123.227 14.8627 122.804 13.1917 122.804 11.3477C122.804 9.5027 123.227 7.8417 124.074 6.3627C124.915 4.88757 126.148 3.6741 127.637 2.8567C129.149 2.0167 130.841 1.5967 132.713 1.5967C134.117 1.5967 135.413 1.8337 136.601 2.3087C137.756 2.76038 138.791 3.47254 139.625 4.3897L138.356 5.6777C136.88 4.1617 135.017 3.4037 132.767 3.4037C131.273 3.4037 129.914 3.7507 128.69 4.4447C127.488 5.11694 126.49 6.10125 125.801 7.2937C125.117 8.4987 124.775 9.8497 124.775 11.3477C124.775 12.8447 125.117 14.1967 125.801 15.4017C126.49 16.5939 127.489 17.5779 128.691 18.2497C129.914 18.9437 131.273 19.2907 132.767 19.2907C135.035 19.2907 136.898 18.5237 138.357 16.9907L139.625 18.2777C138.797 19.1907 137.78 19.8937 136.575 20.3867C135.386 20.8617 134.09 21.0987 132.686 21.0987ZM149.744 11.9227L145.883 15.8947V20.9347H143.885V1.7597H145.883V13.3457L156.979 1.7597H159.274L151.094 10.4427L159.842 20.9327H157.465L149.744 11.9227ZM376.875 3.7027H373.554V2.8257H381.195V3.7027H377.874V12.4127H376.875V3.7027ZM392.605 2.8257V12.4127H391.647V4.7427L387.934 11.1937H387.462L383.749 4.7837V12.4137H382.791V2.8247H383.614L387.718 9.9327L391.782 2.8247H392.606L392.605 2.8257Z" fill="#9A98A0"/>
<path fill-rule="evenodd" clip-rule="evenodd" d="M194.534 1.15188H199.179L192.424 21.3919H187.779L183.589 6.78988L179.343 21.3909H174.726L168 1.15188H172.845L177.177 16.5919L181.481 1.15188H185.898L190.258 16.5919L194.533 1.15188H194.534ZM210.173 0.833879C212.168 0.833879 213.982 1.28688 215.616 2.19288C217.219 3.06819 218.553 4.36223 219.478 5.93688C220.418 7.52688 220.888 9.29588 220.888 11.2429C220.888 13.1899 220.418 14.9629 219.478 16.5629C218.555 18.1459 217.22 19.4496 215.616 20.3359C213.982 21.2519 212.168 21.7089 210.172 21.7089C208.177 21.7089 206.363 21.2519 204.729 20.3359C203.128 19.4522 201.794 18.1538 200.867 16.5769C199.927 14.9869 199.457 13.2089 199.457 11.2429C199.457 9.29588 199.927 7.52788 200.867 5.93688C201.789 4.36495 203.118 3.07135 204.715 2.19288C206.339 1.28688 208.158 0.833879 210.173 0.833879ZM210.229 4.82388C209.144 4.81918 208.079 5.11438 207.151 5.67688C206.207 6.23931 205.43 7.04282 204.9 8.00488C204.347 8.99386 204.062 10.11 204.073 11.2429C204.073 12.4379 204.353 13.5269 204.914 14.5099C205.452 15.47 206.228 16.2762 207.166 16.8519C208.085 17.4241 209.147 17.7246 210.23 17.7189C211.302 17.7272 212.354 17.4314 213.265 16.8659C214.191 16.2931 214.948 15.485 215.459 14.5239C216.001 13.5319 216.272 12.4379 216.272 11.2429C216.272 10.0669 216.001 8.98788 215.459 8.00488C214.944 7.04996 214.188 6.24713 213.265 5.67688C212.354 5.11131 211.302 4.81554 210.23 4.82388H210.229ZM235.957 21.3909L232.794 15.6089H228.205V21.3909H223.702V1.15188H232.367C234.97 1.15188 236.983 1.76388 238.409 2.98788C239.834 4.21188 240.546 5.94188 240.546 8.17788C240.546 9.73888 240.228 11.0739 239.591 12.1829C238.955 13.2909 238.029 14.1339 236.812 14.7129L241.059 21.3909H235.958H235.957ZM228.206 11.7919H232.366C233.621 11.7919 234.585 11.4979 235.259 10.9099C235.934 10.3219 236.271 9.45988 236.271 8.32288C236.271 7.20488 235.934 6.36088 235.259 5.79288C234.585 5.22388 233.621 4.93988 232.367 4.93988H228.206V11.7919ZM262.683 21.3919H257.296L251.54 13.0929L248.69 16.3029V21.3909H244.186V1.15188H248.69V10.5779L256.954 1.15188H262.199L254.674 9.56588L262.683 21.3909V21.3919ZM265.041 1.15188H279.377L279.348 4.93988H269.544V9.91288H278.55V13.7289H269.544V21.3909H265.041V1.15188ZM281.849 1.15188H286.351V17.4019H294.901V21.3919H281.848V1.15088L281.849 1.15188ZM306.722 0.833879C308.717 0.833879 310.531 1.28688 312.165 2.19288C313.768 3.06819 315.102 4.36223 316.027 5.93688C316.967 7.52688 317.437 9.29588 317.437 11.2429C317.437 13.1899 316.967 14.9629 316.027 16.5629C315.104 18.1459 313.769 19.4496 312.165 20.3359C310.531 21.2519 308.717 21.7089 306.721 21.7089C304.726 21.7089 302.912 21.2519 301.278 20.3359C299.677 19.4522 298.343 18.1538 297.416 16.5769C296.476 14.9869 296.006 13.2089 296.006 11.2429C296.006 9.29588 296.476 7.52788 297.416 5.93688C298.338 4.36495 299.667 3.07135 301.264 2.19288C302.888 1.28688 304.707 0.833879 306.721 0.833879H306.722ZM306.779 4.82388C305.694 4.819 304.628 5.1142 303.7 5.67688C302.756 6.23931 301.979 7.04282 301.449 8.00488C300.896 8.99386 300.611 10.11 300.622 11.2429C300.622 12.4379 300.902 13.5269 301.463 14.5099C302.001 15.47 302.777 16.2762 303.715 16.8519C304.634 17.4241 305.696 17.7246 306.779 17.7189C307.851 17.7272 308.903 17.4314 309.814 16.8659C310.74 16.2931 311.497 15.485 312.008 14.5239C312.55 13.5319 312.821 12.4379 312.821 11.2429C312.821 10.0669 312.55 8.98788 312.008 8.00488C311.493 7.04996 310.737 6.24713 309.814 5.67688C308.903 5.11112 307.85 4.81535 306.778 4.82388H306.779ZM344.305 1.15188H348.951L342.196 21.3919H337.551L333.361 6.78988L329.115 21.3909H324.498L317.772 1.15188H322.617L326.949 16.5919L331.252 1.15188H335.67L340.03 16.5919L344.306 1.15188H344.305ZM364.134 6.78988C363.111 6.15514 362.015 5.64549 360.871 5.27188C359.721 4.89588 358.738 4.70788 357.921 4.70788C357.142 4.70788 356.525 4.85288 356.068 5.14188C355.612 5.43188 355.385 5.85488 355.385 6.41388C355.385 7.12788 355.712 7.67188 356.368 8.04788C357.023 8.42388 358.035 8.81388 359.403 9.21788C360.771 9.62388 361.897 10.0279 362.78 10.4329C363.673 10.8454 364.451 11.4711 365.046 12.2549C365.673 13.0649 365.986 14.1349 365.986 15.4649C365.986 16.7549 365.649 17.8689 364.975 18.8039C364.3 19.7379 363.374 20.4469 362.196 20.9289C361.018 21.4109 359.679 21.6519 358.177 21.6519C356.551 21.6497 354.94 21.3557 353.418 20.7839C351.86 20.2059 350.511 19.4159 349.371 18.4139L351.167 14.6839C352.19 15.6193 353.366 16.3723 354.644 16.9099C355.954 17.4689 357.151 17.7479 358.234 17.7479C359.166 17.7479 359.892 17.5749 360.414 17.2279C360.937 16.8809 361.199 16.3799 361.199 15.7239C361.199 15.2039 361.023 14.7749 360.671 14.4379C360.32 14.0999 359.873 13.8259 359.331 13.6139C358.791 13.4019 358.045 13.1609 357.094 12.8909C355.726 12.5049 354.61 12.1199 353.746 11.7339C352.881 11.3489 352.136 10.7609 351.509 9.97088C350.881 9.18088 350.568 8.12988 350.568 6.81888C350.568 5.60488 350.891 4.53888 351.537 3.62388C352.183 2.70888 353.085 2.00488 354.245 1.51388C355.404 1.02188 356.752 0.775879 358.291 0.775879C359.66 0.775879 361.008 0.978879 362.339 1.38288C363.669 1.78788 364.846 2.32788 365.873 3.00288L364.134 6.78988Z" fill="#9A98A0"/>
</svg>
