<svg fill="none" height="96" viewBox="0 0 48 96" width="48" xmlns="http://www.w3.org/2000/svg"><path d="m24 46c12.15 0 22-9.85 22-22s-9.85-22-22-22-22 9.85-22 22 9.85 22 22 22zm0 2c-13.255 0-24-10.745-24-24s10.745-24 24-24 24 10.745 24 24-10.745 24-24 24zm11.146-26.974c-.409-1.648-1.188-2.904-2.843-2.904h-2.084v2.55c0 1.982-1.713 3.532-3.602 3.532h-5.687c-1.558 0-2.785 1.433-2.785 3.002v5.455c0 1.55 1.305 2.472 2.824 2.904 1.791.53 3.505.628 5.666 0 1.422-.412 2.824-1.256 2.824-2.904v-2.178h-5.647v-.785h8.51c1.655 0 2.258-1.138 2.843-2.884.564-1.785.545-3.493-.02-5.788zm-8.179 10.91c.585 0 1.071.49 1.071 1.078 0 .609-.486 1.1-1.07 1.1-.585 0-1.072-.491-1.072-1.1 0-.588.487-1.079 1.071-1.079zm-6.036-8.32h5.686c1.577 0 2.824-1.354 2.824-2.943v-5.455c0-1.55-1.286-2.727-2.844-2.983-.9789-.1562-1.9687-.2348-2.96-.235-.973 0-1.869.078-2.687.235-2.414.432-2.823 1.335-2.823 2.983v2.119h5.647v.785h-7.828c-1.655 0-3.096 1-3.544 2.904-.526 2.178-.546 3.512 0 5.788.409 1.687 1.363 2.884 3.018 2.884h1.928v-2.55c.02-1.904 1.655-3.532 3.583-3.532zm-.35-7.672c-.585 0-1.072-.49-1.072-1.08 0-.608.487-1.098 1.071-1.098s1.071.49 1.071 1.099c0 .588-.487 1.079-1.07 1.079z" fill="#786f90"/><path d="m24 94c12.15 0 22-9.85 22-22s-9.85-22-22-22-22 9.85-22 22 9.85 22 22 22zm0 2c-13.255 0-24-10.745-24-24s10.745-24 24-24 24 10.745 24 24-10.745 24-24 24zm11.146-26.974c-.409-1.648-1.188-2.904-2.843-2.904h-2.084v2.55c0 1.982-1.713 3.532-3.602 3.532h-5.687c-1.558 0-2.785 1.433-2.785 3.002v5.455c0 1.55 1.305 2.472 2.824 2.904 1.791.53 3.505.628 5.666 0 1.422-.412 2.824-1.256 2.824-2.904v-2.178h-5.647v-.785h8.51c1.655 0 2.258-1.138 2.843-2.884.564-1.785.545-3.493-.02-5.788zm-8.179 10.91c.585 0 1.071.49 1.071 1.078 0 .609-.486 1.1-1.07 1.1-.585 0-1.072-.491-1.072-1.1 0-.588.487-1.079 1.071-1.079zm-6.036-8.32h5.686c1.577 0 2.824-1.354 2.824-2.943v-5.455c0-1.55-1.286-2.727-2.844-2.983-.9789-.1562-1.9687-.2348-2.96-.235-.973 0-1.869.078-2.687.235-2.414.432-2.823 1.335-2.823 2.983v2.119h5.647v.785h-7.828c-1.655 0-3.096 1-3.544 2.904-.526 2.178-.546 3.512 0 5.788.409 1.687 1.363 2.884 3.018 2.884h1.928v-2.55c.02-1.904 1.655-3.532 3.583-3.532zm-.35-7.672c-.585 0-1.072-.49-1.072-1.08 0-.608.487-1.098 1.071-1.098s1.071.49 1.071 1.099c0 .588-.487 1.079-1.07 1.079z" fill="#f7c821"/></svg>