<svg width="32" height="32" viewBox="0 0 32 32" fill="none" xmlns="http://www.w3.org/2000/svg">
<path fill-rule="evenodd" clip-rule="evenodd" d="M16 30C23.732 30 30 23.732 30 16C30 8.26801 23.732 2 16 2C8.26801 2 2 8.26801 2 16C2 23.732 8.26801 30 16 30ZM16 32C24.8366 32 32 24.8366 32 16C32 7.16344 24.8366 0 16 0C7.16344 0 0 7.16344 0 16C0 24.8366 7.16344 32 16 32Z" fill="#786F90"/>
<path fill-rule="evenodd" clip-rule="evenodd" d="M30 16C30 23.732 23.732 30 16 30C8.26801 30 2 23.732 2 16C2 8.26801 8.26801 2 16 2C23.732 2 30 8.26801 30 16ZM13.5369 9.97779L21.6742 15.1561C22.2917 15.5491 22.2917 16.4505 21.6742 16.8434L13.5369 22.0218C12.8712 22.4454 12 21.9672 12 21.1781V10.8214C12 10.0324 12.8712 9.55414 13.5369 9.97779Z" fill="#CEC3EA"/>
<path fill-rule="evenodd" clip-rule="evenodd" d="M14 12.6431V19.3564L19.2747 15.9998L14 12.6431ZM21.6742 15.1561L13.5369 9.97779C12.8712 9.55414 12 10.0324 12 10.8214V21.1781C12 21.9672 12.8712 22.4454 13.5369 22.0218L21.6742 16.8434C22.2917 16.4505 22.2917 15.5491 21.6742 15.1561Z" fill="#786F90"/>
</svg>
