<svg width="26" height="30" viewBox="0 0 26 30" fill="none" xmlns="http://www.w3.org/2000/svg">
<path d="M8 20C8 19.4477 7.55228 19 7 19H2V2L10.1716 2L14 5.82843V6C14 6.55229 14.4477 7 15 7C15.5523 7 16 6.55229 16 6V5.82843C16 5.29799 15.7893 4.78929 15.4142 4.41421L11.5858 0.585786C11.2107 0.210713 10.702 0 10.1716 0H2C0.895431 0 0 0.895431 0 2V19C0 20.1046 0.895431 21 2 21H7C7.55228 21 8 20.5523 8 20Z" fill="#786F90"/>
<path fill-rule="evenodd" clip-rule="evenodd" d="M9 6V4C9 3.44772 9.44772 3 10 3C10.5523 3 11 3.44772 11 4V5H12C12.5523 5 13 5.44772 13 6C13 6.55228 12.5523 7 12 7H10C9.44772 7 9 6.55228 9 6Z" fill="#786F90"/>
<path fill-rule="evenodd" clip-rule="evenodd" d="M12 28H24L24 14.8284L20.1716 11L12 11V28ZM12 30H24C25.1046 30 26 29.1046 26 28V14.8284C26 14.298 25.7893 13.7893 25.4142 13.4142L21.5858 9.58579C21.2107 9.21071 20.702 9 20.1716 9H12C10.8954 9 10 9.89543 10 11V28C10 29.1046 10.8954 30 12 30Z" fill="#786F90"/>
<path fill-rule="evenodd" clip-rule="evenodd" d="M12 28H24L24 14.8284L20.1716 11L12 11V28Z" fill="#CEC3EA"/>
<path fill-rule="evenodd" clip-rule="evenodd" d="M19 15V13C19 12.4477 19.4477 12 20 12C20.5523 12 21 12.4477 21 13V14H22C22.5523 14 23 14.4477 23 15C23 15.5523 22.5523 16 22 16H20C19.4477 16 19 15.5523 19 15Z" fill="#786F90"/>
</svg>
