<svg fill="none" height="96" viewBox="0 0 48 96" width="48" xmlns="http://www.w3.org/2000/svg"><path d="m24 46c12.15 0 22-9.85 22-22s-9.85-22-22-22-22 9.85-22 22 9.85 22 22 22zm0 2c-13.255 0-24-10.745-24-24s10.745-24 24-24 24 10.745 24 24-10.745 24-24 24zm11.733-31.798-10.181-5.924c-.3244-.182-.6901-.2776-1.062-.2776s-.7376.0956-1.062.2776l-10.298 5.924c-.67.393-1.131 1.11-1.131 1.874v11.825c0 .763.485 1.48 1.154 1.874l2.725 1.55c1.292.649 1.754.649 2.354.649 1.917 0 3.025-1.157 3.025-3.194v-11.686c0-.162-.093-.416-.254-.416h-1.293c-.162 0-.531.254-.531.416v11.686c0 .903-.808 1.805-2.332 1.041l-2.816-1.62c-.0489-.0279-.0897-.0682-.1181-.1168s-.0436-.1039-.0439-.1602v-11.825c0-.116.139-.231.23-.278l10.251-5.923c.0508-.0228.1058-.0346.1615-.0346s.1107.0118.1615.0346l10.137 5.922c.093.07.07.162.07.278v11.825c0 .116.046.231-.047.278l-10.18 5.924c-.093.046-.185.046-.3 0l-2.61-1.55c-.036-.0265-.0786-.0428-.1232-.047-.0445-.0043-.0894.0037-.1298.023-.716.417-.855.463-1.547.694-.162.07-.416.162.092.44l3.417 2.036c.323.185.692.278 1.062.278s.739-.093 1.085-.278l10.135-5.924c.67-.393.97-1.11.97-1.874v-11.824c0-.787-.324-1.504-.97-1.897zm-8.057 11.824c-2.701 0-3.302-.74-3.51-2.105-.023-.14-.138-.324-.3-.324h-1.316c-.161 0-.3.208-.3.37 0 1.735.947 3.818 5.426 3.818 3.232 0 5.102-1.273 5.102-3.494 0-2.222-1.5-2.8-4.64-3.217-3.187-.416-3.51-.624-3.51-1.388 0-.625.277-1.435 2.632-1.435 2.101 0 2.886.463 3.186 1.875.0104.0655.0442.125.0951.1675.051.0425.1156.065.1819.0635h1.34c.091 0 .16-.023.207-.093.046-.069.092-.138.07-.23-.209-2.454-1.825-3.588-5.103-3.588-2.909 0-4.663 1.227-4.663 3.31 0 2.244 1.731 2.869 4.525 3.146 3.347.324 3.601.81 3.601 1.481.046 1.157-.877 1.643-3.024 1.643z" fill="#786f90"/><path d="m24 94c12.15 0 22-9.85 22-22s-9.85-22-22-22-22 9.85-22 22 9.85 22 22 22zm0 2c-13.255 0-24-10.745-24-24s10.745-24 24-24 24 10.745 24 24-10.745 24-24 24zm11.733-31.798-10.181-5.924c-.3244-.182-.6901-.2776-1.062-.2776s-.7376.0956-1.062.2776l-10.298 5.924c-.67.393-1.131 1.11-1.131 1.874v11.825c0 .763.485 1.48 1.154 1.874l2.725 1.55c1.292.649 1.754.649 2.354.649 1.917 0 3.025-1.157 3.025-3.194v-11.686c0-.162-.093-.416-.254-.416h-1.293c-.162 0-.531.254-.531.416v11.686c0 .903-.808 1.805-2.332 1.041l-2.816-1.62c-.0489-.0279-.0897-.0682-.1181-.1168s-.0436-.1039-.0439-.1602v-11.825c0-.116.139-.231.23-.278l10.251-5.923c.0508-.0228.1058-.0346.1615-.0346s.1107.0118.1615.0346l10.137 5.922c.093.07.07.162.07.278v11.825c0 .116.046.231-.047.278l-10.18 5.924c-.093.046-.185.046-.3 0l-2.61-1.55c-.036-.0265-.0786-.0428-.1232-.047-.0445-.0043-.0894.0037-.1298.023-.716.417-.855.463-1.547.694-.162.07-.416.162.092.44l3.417 2.036c.323.185.692.278 1.062.278s.739-.093 1.085-.278l10.135-5.924c.67-.393.97-1.11.97-1.874v-11.824c0-.787-.324-1.504-.97-1.897zm-8.057 11.824c-2.701 0-3.302-.74-3.51-2.105-.023-.14-.138-.324-.3-.324h-1.316c-.161 0-.3.208-.3.37 0 1.735.947 3.818 5.426 3.818 3.232 0 5.102-1.273 5.102-3.494 0-2.222-1.5-2.8-4.64-3.217-3.187-.416-3.51-.624-3.51-1.388 0-.625.277-1.435 2.632-1.435 2.101 0 2.886.463 3.186 1.875.0104.0655.0442.125.0951.1675.051.0425.1156.065.1819.0635h1.34c.091 0 .16-.023.207-.093.046-.069.092-.138.07-.23-.209-2.454-1.825-3.588-5.103-3.588-2.909 0-4.663 1.227-4.663 3.31 0 2.244 1.731 2.869 4.525 3.146 3.347.324 3.601.81 3.601 1.481.046 1.157-.877 1.643-3.024 1.643z" fill="#f7c821"/></svg>