<svg fill="none" height="96" viewBox="0 0 48 96" width="48" xmlns="http://www.w3.org/2000/svg"><path d="m24 46c12.15 0 22-9.85 22-22s-9.85-22-22-22-22 9.85-22 22 9.85 22 22 22zm0 2c-13.255 0-24-10.745-24-24s10.745-24 24-24 24 10.745 24 24-10.745 24-24 24zm-.261-33c-9.784 0-17.739 4.035-17.739 9s7.955 9 17.739 9 17.738-4.035 17.738-9-7.954-9-17.738-9zm-4.616 10.742c-.436.406-.9.552-1.423.726s-1.19.145-1.974.145h-1.83l-.493 2.903h-2.12l1.888-9.87h4.064c1.22 0 2.12.348 2.671.986.552.639.726 1.568.494 2.7-.0887.4565-.2455.8971-.465 1.307-.1905.4205-.4671.7962-.812 1.103zm6.183.87.842-4.18c.087-.493.058-.842-.116-1.045-.174-.174-.522-.29-1.045-.29h-1.684l-1.074 5.516h-2.09l1.887-9.58h2.09l-.493 2.612h1.887c1.19 0 2.003.232 2.438.639.436.406.581.987.407 1.887l-.871 4.413h-2.178v.029zm11.7-3.25c-.087.464-.26.9-.464 1.306-.2228.4078-.518.7717-.871 1.074-.436.406-.9.552-1.423.726-.522.174-1.19.145-1.974.145h-1.829l-.493 2.903h-2.12l1.887-9.87h4.065c1.22 0 2.12.348 2.67.986.61.639.756 1.597.552 2.73zm-4.006-2.266h-1.452l-.783 4.064h1.277c.842 0 1.48-.087 1.916-.406.407-.32.697-.813.842-1.568.145-.726.087-1.277-.203-1.597-.262-.29-.784-.493-1.597-.493zm-16.548 0h-1.452l-.784 4.064h1.278c.841 0 1.48-.087 1.916-.406.406-.32.696-.813.842-1.568.145-.726.087-1.277-.204-1.597-.232-.29-.783-.493-1.596-.493z" fill="#786f90"/><path d="m24 94c12.15 0 22-9.85 22-22s-9.85-22-22-22-22 9.85-22 22 9.85 22 22 22zm0 2c-13.255 0-24-10.745-24-24s10.745-24 24-24 24 10.745 24 24-10.745 24-24 24zm-.261-33c-9.784 0-17.739 4.035-17.739 9s7.955 9 17.739 9 17.738-4.035 17.738-9-7.954-9-17.738-9zm-4.616 10.742c-.436.406-.9.552-1.423.726s-1.19.145-1.974.145h-1.83l-.493 2.903h-2.12l1.888-9.87h4.064c1.22 0 2.12.348 2.671.986.552.639.726 1.568.494 2.7-.0887.4565-.2455.8971-.465 1.307-.1905.4205-.4671.7962-.812 1.103zm6.183.87.842-4.18c.087-.493.058-.842-.116-1.045-.174-.174-.522-.29-1.045-.29h-1.684l-1.074 5.516h-2.09l1.887-9.58h2.09l-.493 2.612h1.887c1.19 0 2.003.232 2.438.639.436.406.581.987.407 1.887l-.871 4.413h-2.178v.029zm11.7-3.25c-.087.464-.26.9-.464 1.306-.2228.4078-.518.7717-.871 1.074-.436.406-.9.552-1.423.726-.522.174-1.19.145-1.974.145h-1.829l-.493 2.903h-2.12l1.887-9.87h4.065c1.22 0 2.12.348 2.67.986.61.639.756 1.597.552 2.73zm-4.006-2.266h-1.452l-.783 4.064h1.277c.842 0 1.48-.087 1.916-.406.407-.32.697-.813.842-1.568.145-.726.087-1.277-.203-1.597-.262-.29-.784-.493-1.597-.493zm-16.548 0h-1.452l-.784 4.064h1.278c.841 0 1.48-.087 1.916-.406.406-.32.696-.813.842-1.568.145-.726.087-1.277-.204-1.597-.232-.29-.783-.493-1.596-.493z" fill="#5d6adb"/></svg>