<svg fill="none" height="32" viewBox="0 0 153 32" width="153" xmlns="http://www.w3.org/2000/svg"><path clip-rule="evenodd" d="m126.072 17.3253v6.3351c0 .0969.015.1912-.084.2676s-.188.1387-.321.1378c-.726-.0036-1.452-.0062-2.179.0018-.138.0017-.265-.0445-.347-.12-.083-.0747-.116-.216-.125-.3432-.004-.0408-.001-.0835-.001-.1253 0-4.1227 0-8.2462-.001-12.3689 0-.1635.019-.3164.14-.4444.063-.0658.128-.0854.217-.0845.734.0036 1.469.0018 2.204.0018.066 0 .133-.0027.2.0009.168.0089.289.1351.297.3067.001.0497 0 .0995 0 .1502zm10.624 1.2969v5.0356c0 .096.016.192-.082.2684-.097.0765-.186.1405-.32.1396-.735-.0036-1.469-.0054-2.204.0009-.179.0009-.28-.1058-.387-.2169-.013-.0142-.012-.0454-.013-.0685-.002-.0586-.001-.1173-.001-.176v-9.9449c0-.0666-.002-.1333.001-.2.002-.0533-.016-.0746-.07-.0711-.058.0027-.117 0-.176 0-.834 0-1.67 0-2.505.0009-.177 0-.299-.0711-.376-.2382-.024-.0498-.03-.0916-.03-.1387-.002-.7013-.002-1.4026-.001-2.104.001-.1724.153-.3217.327-.3262.034-.0009.067 0 .101 0 2.822 0 5.645 0 8.467.0018.086 0 .167-.0036.26.04.116.0542.129.1467.165.2373.011.0285.002.0658.002.0987 0 .6684.001 1.336 0 2.0044-.001.2747-.154.424-.434.424-.827.0009-1.654 0-2.48 0-.059 0-.118.0027-.176 0-.055-.0035-.071.0205-.069.0729.004.0578.001.1165.001.1751zm-27.062-1.2978c0-2.096 0-4.192-.001-6.2888 0-.1147.009-.2205.086-.3156.045-.0551.131-.1324.191-.136.042-.0027.084-.0009.125-.0009 2.656 0 5.312 0 7.968.0009.087 0 .172-.0178.25.0667.073.0791.104.1537.103.2604-.004.7013-.002 1.4027-.003 2.1049 0 .2693-.106.3733-.379.3733-1.688.0009-3.374 0-5.061 0-.059 0-.118.0045-.175-.0009-.074-.0071-.1.016-.099.0943.003.8604.002 1.7209 0 2.5804 0 .0658.019.0871.084.0845.117-.0054.234-.0018.351-.0018 1.235 0 2.472-.0018 3.707.0026.144 0 .293.0125.429.0552.075.0231.159.1084.185.184.042.1262.053.2675.054.4026.006.5422-.001 1.0854.005 1.6285.002.1155-.022.2231-.054.3297-.055.1876-.148.2534-.348.2534-.844.0009-1.687.0009-2.531.0009h-1.654c-.226 0-.226 0-.226.2382v4.3591.0756c-.003.0888.011.1742-.078.2453-.096.0773-.184.1449-.318.1449-.734-.0036-1.469-.0009-2.204-.0027-.246 0-.406-.1582-.407-.4-.001-.3173 0-.6347 0-.952zm-55.9337 6.7396c-1.3779 0-2.7566-.0009-4.1344.0009-.1885.0009-.3218-.0711-.3947-.248-.0062-.0142-.0276-.0267-.0267-.0382.0222-.2143-.0382-.4267.088-.6409.2356-.4.432-.8222.6445-1.2356.248-.4818.4827-.9706.7476-1.4435.2471-.44.4444-.9049.6924-1.3414.2534-.4453.4552-.9173.7068-1.3617.2489-.4383.4453-.904.6942-1.3405.2587-.4515.464-.9298.7209-1.3813.2454-.4311.4623-.8765.6738-1.3245.0267-.056.0747-.1022.1032-.1573.0213-.0409.0266-.0889.0391-.1342-.0374-.0098-.0747-.0267-.112-.0267-.3174-.0027-.6347-.0018-.9521-.0018-1.0267 0-2.0543 0-3.0819.0009-.176 0-.3005-.064-.3805-.2329-.0266-.0577-.0329-.1075-.0329-.1617-.0017-.6934-.0017-1.3867-.0008-2.0792.0009-.176.1502-.3271.3209-.3333.0337-.0009.0666 0 .1004 0 2.7148 0 5.4287.0036 8.1435-.0071.1742-.0009.288.0684.3458.1849.0747.1529.096.3307.0071.504-.3227.6347-.6382 1.2729-.9591 1.9084-.2747.5458-.5778 1.0791-.8267 1.6365-.4712 1.0524-1.0196 2.0658-1.5228 3.1022-.5004 1.0302-1.0303 2.0453-1.5467 3.0676-.0071.0133.0027.0346-.0036.0488-.0817.176-.0818.1787.0916.1787 1.3023.0009 2.6054 0 3.9086.0018.0711 0 .144.0098.2133.0284.2249.0605.2996.2249.2987.4436-.0035.4755-.0008.952-.0008 1.4275 0 .184.0008.368-.001.552-.0017.2445-.1591.4027-.4044.4027-1.1521.0018-2.305.0009-3.458.0009zm42.1015-6.7671c0-2.096-.0009-4.192.0009-6.288.0009-.0853-.0036-.1671.04-.2587.0551-.1164.1467-.1315.2373-.1644.0374-.0134.0827-.0027.1245-.0027 2.6552 0 5.3105.0018 7.9665-.0027.159-.0008.257.0418.322.192.025.0578.027.1094.027.1636.002.7013-.002 1.4027.006 2.104.002.1093-.048.1662-.11.232-.071.0729-.136.1218-.253.1218-1.236-.0062-2.472-.0045-3.708-.0045-.517 0-1.0353.0018-1.5526-.0017-.0774 0-.096.024-.0951.0986.0027.7342.0035 1.4694-.0018 2.2036-.0009.096.0284.1111.1129.1075.1582-.0071.3173-.0017.4765-.0017 1.2521 0 2.5051-.0009 3.7571.0017.078 0 .152-.0071.237.0311.122.056.154.1476.179.2534.009.04.001.0835.001.1253 0 .6765.001 1.352 0 2.0285 0 .1964-.066.3111-.217.3546-.061.0178-.13.0107-.196.0107-1.319.0009-2.638.0009-3.9576.0009-.1245 0-.248.0053-.3725.0071-.0062.1315-.016.2631-.0168.3938-.0018.7013 0 1.4026-.0018 2.104 0 .0693.0062.1084.0906.1022.1085-.0071.2169-.0018.3254-.0018 1.6037 0 3.2067.0009 4.8097 0 .158 0 .297.0329.416.1485.061.0595.074.12.074.1973-.003.3253-.002.6507-.002.9769 0 .392.001.7849 0 1.1769 0 .0729.01.1422-.064.2009-.081.0648-.152.1413-.261.1555-.042.0053-.084.0009-.125.0009-2.606 0-5.2113-.0009-7.8158.0018-.1956 0-.3361-.056-.4267-.2427-.0329-.0684-.0249-.1271-.0249-.1893-.0036-.4507-.0018-.9014-.0018-1.3529zm-31.3232-.024c0-2.0622.0009-4.1245 0-6.1876 0-.1751.0355-.3315.1751-.4551.0418-.0373.08-.0506.1315-.0471.0418.0018.0836 0 .1254 0 2.6392 0 5.2776 0 7.9168.0009.0951 0 .192-.0249.2729.0702.0862.1022.152.1991.1511.3405-.0044.6604-.0018 1.32-.0027 1.9795 0 .2649-.1519.4151-.4177.4151-1.6952.0009-3.3904 0-5.0856 0-.2089.0009-.2089.0009-.2089.2063-.0009.6933 0 1.3866-.0009 2.0791 0 .1342-.0116.1209.12.1209 1.4036 0 2.8064.0008 4.2091-.0018.1867 0 .3289.0578.3964.2418.016.0444.0347.0906.0347.136.0018.6844 0 1.3697.0018 2.0542.0009.1671-.1102.2613-.2142.3618-.0142.0133-.0454.0124-.0685.0133-.0586.0018-.1173.0009-.176.0009h-4.058c-.0586 0-.1173.0026-.176-.0009-.0542-.0036-.0702.0187-.0702.0711.0027.3004.0009.6018.0009.9022 0 .5094.0036 1.0187-.0027 1.528-.0009.096.0285.1076.1129.1076 1.2196-.0036 2.4384-.0027 3.658-.0027.4924 0 .9858.0071 1.4783-.0044.1315-.0027.2426.0489.3271.1137.0827.0623.1431.1805.1404.3076-.0026.1413 0 .2836 0 .4258 0 .5004 0 1.0018-.0009 1.5031 0 .096-.0115.1858-.0435.2818-.0489.1457-.1582.1884-.2791.2275-.0294.0098-.0658.0018-.0996.0018-2.6223 0-5.2438 0-7.8661-.0018-.0623 0-.1236-.0044-.1894-.0231-.2142-.0604-.2435-.2355-.2898-.4035-.0151-.0543-.0026-.1165-.0026-.1743zm25.4589.1262c0 2.1547.0009 4.3093 0 6.4631 0 .0978.016.192-.0844.2685-.0996.0746-.1894.1466-.3218.1342-.0418-.0036-.0836-.0009-.1254 0-.1689.0018-.3049-.0578-.4275-.1805-2.4722-2.4755-4.9469-4.9493-7.4208-7.4231-.0418-.0417-.0818-.0844-.1245-.1235-.0142-.0134-.0355-.0187-.0524-.0285-.0045.0151-.0116.0303-.0125.0454-.0009.0666 0 .1333 0 .2 0 2.2969 0 4.5929-.0009 6.8897 0 .0952.024.192-.072.272-.1022.0863-.1991.1503-.3413.1494-.7262-.0045-1.4525-.0054-2.1796.0009-.1769.0017-.2854-.0925-.3903-.208-.0178-.0205-.0196-.0587-.0222-.0898-.0036-.0498-.0009-.0996-.0009-.1502 0-1.0436.0373-2.0889-.0089-3.1307-.0693-1.6053-.0267-3.2098-.0382-4.8151-.0116-1.6116-.0009-3.2231-.0063-4.8347-.0008-.1706.0587-.2933.1761-.4053.04-.0391.0773-.0569.1306-.0498.008.0009.016 0 .0249 0 .1831 0 .3672.0009.5503.0009.1244.1244.24.2587.3733.3707.4836.4062.8916.8924 1.3645 1.3066.4134.3609.769.7796 1.1823 1.136.4596.3965.8525.8605 1.3094 1.256.4338.376.8027.816 1.2356 1.1876.4427.3787.8169.8258 1.2552 1.2035.3209.2765.6089.584.9147.8729.0107.0107.0231.0196.0347.0285.0071-.0134.0204-.0267.0204-.0409.0027-.0667.0009-.1333.0009-.2009 0-2.0871-.0009-4.1751.0026-6.2622 0-.152.0196-.3067.0534-.4542.0142-.0632.0907-.1103.1333-.1698.0382-.0525.0898-.0338.1369-.0338.7183-.0009 1.4366-.0009 2.1548-.0009.1085 0 .2169-.0018.3254.0009.1129.0027.2462.1378.2506.2516.0018.0506 0 .1004 0 .1502zm62.5955 2.4053v.8516c-.017.0133-.047.0258-.048.04-.01.1031-.019.2027-.044.3067-.096.4017-.153.6035-.358.9804-.118.2142-.244.4205-.4.6133-.141.1734-.293.3325-.452.4854-.201.192-.444.3298-.673.4871-.274.1875-.579.2969-.882.4115-.157.0596-.324.1085-.495.1405-.122.0222-.251.0187-.367.0773-.02.0107-.046.016-.068.0151-.346-.0142-.686.0898-1.032.0507-.119-.0133-.236-.04-.355-.048-.125-.008-.253.0169-.374-.0062-.203-.0382-.414-.0516-.609-.1049-.358-.0969-.727-.1582-1.071-.3147-.151-.0693-.306-.144-.471-.1938-.167-.0515-.315-.1662-.468-.2586-.299-.1805-.573-.3929-.807-.6534-.101-.112-.136-.2408-.069-.3751.111-.2213.23-.4391.353-.6542.101-.1769.217-.344.317-.5209.091-.1618.161-.3351.257-.4942.068-.112.177-.1707.318-.1876.264-.0311.45.1174.65.2472.386.2488.794.4488 1.224.6151.174.0666.354.1093.528.176.137.0524.297.0533.448.0657.116.0098.233-.0026.35.0027.273.0133.505-.1004.735-.2231.212-.1138.345-.3004.42-.5227.068-.2017.134-.4026.05-.6266-.039-.1058-.048-.2285-.095-.336-.119-.2703-.299-.4489-.541-.6525-.256-.216-.54-.3831-.838-.52-.266-.1226-.534-.2418-.815-.3342-.218-.0711-.417-.2018-.622-.3093-.405-.2116-.785-.4596-1.148-.7387-.298-.2284-.555-.4978-.803-.7707-.312-.3431-.514-.7609-.665-1.2-.089-.2551-.143-.5155-.16-.7884-.009-.1245-.037-.2525-.042-.3805-.004-.1466.075-.2791.054-.4311-.019-.1431.064-.2746.088-.4106.078-.4338.282-.8045.511-1.168.058-.0934.116-.1903.189-.2711.427-.4783.919-.8747 1.517-1.112.317-.1245.647-.2169.984-.2898.579-.1254 1.16-.0729 1.739-.0907.24.0818.495.0898.742.1387.278.0551.536.1724.816.2115.342.1823.711.3014 1.05.4898.302.1671.587.3582.878.5405.081.0506.174.1315.194.216.031.1235.014.2631-.006.3928-.011.0729-.06.1432-.103.2063-.15.2222-.316.4355-.456.664-.14.2266-.292.4453-.435.6693-.114.176-.298.2871-.53.2809-.128-.0027-.228-.0711-.32-.136-.395-.2818-.816-.5165-1.257-.7173-.248-.1129-.506-.1903-.769-.2614-.146-.0391-.308.008-.438-.0898-.374.0063-.729.072-1.008.3476-.123.1218-.287.224-.284.432-.095.1084-.043.2382-.043.3564 0 .0889.037.1832.073.2676.132.3093.295.464.593.7058.327.2666.701.4409 1.077.6098.393.1777.798.3324 1.193.5066.319.1405.623.32.915.5111.398.2605.781.5458 1.106.8996.415.4515.733.96.902 1.5547.052.1831.102.3662.102.56 0 .0213.031.0435.048.0648zm-152.533-6.0995h7.25633l3.96907-3.1005 6.3256 1.8605 5.7061-8.31023 8.1861-4.15467-2.2329 6.38756 4.0935-3.72089 10.5427-.68267-13.1473 14.016.0622 1.7982 4.5887 5.9538-.1236.8062 6.0777 7.4418h-6.9462l-2.1085-6.3876-6.6359-.0622-9.3026-4.0311-2.481-4.5271-7.06969-1.9227z" fill="#786f90" fill-rule="evenodd"/></svg>