<svg fill="none" height="23" viewBox="0 0 140 23" width="140" xmlns="http://www.w3.org/2000/svg"><path clip-rule="evenodd" d="m91.5006 8.5615v14.111h4.6118c0-.2107 0-.3868 0-.5629-.0004-4.3674.0039-8.7348-.0093-13.10224-.001-.36965.1054-.47071.467-.46379 1.1247.02158 2.2503-.00517 3.3752.01542.3417.00623.4277-.10653.4227-.43325-.017-1.15175-.005-2.30387-.008-3.45585 0-.12256-.016-.24504-.027-.38614h-13.0771v4.27775zm-20.8749 11.6965c.873.8981 1.8611 1.5729 2.9975 2.0018 2.3659.893 4.7483 1.0934 7.0958-.0462 3.2369-1.5713 4.1257-5.8309 1.7971-8.5267-.8838-1.0231-2.0258-1.6484-3.2746-2.1178-.8253-.3101-1.6457-.6421-2.4396-1.024-.485-.2332-.7648-.66697-.6721-1.24589.0903-.56493.4911-.8757 1.0039-.94651.5657-.07811 1.1699-.13632 1.7182-.01938.7767.16557 1.5178.49951 2.3161.77601.6784-1.05836 1.3998-2.18351 2.128-3.3193-.0963-.08905-.161-.16838-.2427-.22172-2.6464-1.72883-5.464-2.19726-8.3764-.84576-3.0162 1.3996-4.0687 5.20983-2.3062 7.93385.7815 1.2076 1.9358 1.9336 3.2422 2.4522.8089.3212 1.6188.6398 2.4241.9699.1734.0711.3363.1755.491.2834.4257.2973.7479.6676.6494 1.2316-.1016.5806-.5129.8851-1.049 1.0229-.6871.1766-1.3782.1306-2.0632-.0309-1.158-.2731-2.1449-.871-3.0888-1.665-.7952 1.1291-1.5702 2.2296-2.3507 3.3375zm44.2653-8.9208c-1.58 0-3.161-.0077-4.741.0066-.302.0028-.395-.0883-.386-.3858.018-.6706.021-1.34239-.002-2.01264-.01-.32665.112-.40164.417-.39997 2.023.0114 4.046.00593 6.068.00585h.463v-4.2643h-11.465v18.38776h11.615v-4.2316c-.163-.0088-.311-.0237-.459-.0238-2.061-.0014-4.122-.0077-6.183.0061-.336.0022-.471-.0735-.456-.4382.028-.6698.027-1.3424.001-2.0124-.014-.3601.09-.4811.463-.4765 1.555.0193 3.11.0088 4.665.0069.147-.0001.293-.0156.452-.0246v-4.1434zm-48.7171-7.05261h-4.4674v9.12161c-3.8239-3.1685-7.5518-6.25752-11.3188-9.37889v18.65289h4.4928v-9.1168c3.8019 3.1517 7.523 6.2363 11.2934 9.3619zm-25.4478 9.21831c-.0093 2.8085-2.2463 5.0557-5.027 5.0496-2.7811-.0061-4.9965-2.2551-4.9981-5.074-.0015-2.815 2.2178-5.06198 5.003-5.06517 2.7982-.00319 5.0314 2.26007 5.0221 5.08957zm-4.7759-9.51343c-5.4841-.13107-9.5558 4.06811-9.8038 8.99533-.2677 5.3136 3.8226 9.9026 9.4203 9.9939 5.2849.0861 9.6679-3.9991 9.729-9.4754-.0114-5.12842-3.9885-9.38588-9.3455-9.51383zm93.0558 1.37035c.517.00585 1.043-.03108 1.549.04969 1.178.18806 1.982 1.14726 1.956 2.25099-.028 1.18061-.837 2.12652-2.06 2.22591-1.061.08624-2.135.01793-3.23.01793v-4.54612c.606 0 1.196-.00517 1.785.0016zm7.194 12.82138c-1.169-1.4843-2.336-2.97-3.522-4.4779.284-.1333.512-.2381.739-.3474 4.479-2.1618 4.691-8.00619 1.186-10.719-1.505-1.16496-3.246-1.60506-5.105-1.62724-2.213-.026369-4.426-.00631-6.639-.00532-.098 0-.196.01003-.308.01626v21.6522h4.664v-8.5226c.039-.026.079-.052.119-.078.158.1689.33.327.473.5083 2.039 2.5971 4.077 5.1949 6.105 7.8006.19.2449.388.3366.698.3334 1.555-.0161 3.111-.0072 4.666-.0071h.493c-1.226-1.5557-2.398-3.0402-3.569-4.5262zm-115.1882 4.5113h-4.6232v-11.3681c-1.9501 1.9622-3.8609 3.8846-5.7554 5.7908-1.99533-2.0011-3.91846-3.9297-5.84151-5.8583-.04075.0242-.08157.0483-.12232.0723v11.3473h-4.66937v-22.566021c3.46853 3.467011 6.95001 6.947091 10.405 10.400621 3.5626-3.53057 7.0616-6.99789 10.6068-10.5111z" fill="#786f90" fill-rule="evenodd"/></svg>