<svg fill="none" height="32" viewBox="0 0 148 32" width="148" xmlns="http://www.w3.org/2000/svg" xmlns:xlink="http://www.w3.org/1999/xlink"><clipPath id="a"><path d="m0 0h148v32h-148z"/></clipPath><g clip-path="url(#a)"><path clip-rule="evenodd" d="m131.195 8.66735c.567.03657.73.18356.799.76028.021.16739.028.33689.028.50568.001 3.90059.001 7.80189-.002 11.70309 0 .2384-.019.4783-.046.7153-.051.4571-.208.6112-.654.6787-.217.0323-.433.0752-.632.1104-.112.4846-.092 1.2723.036 1.5789.087.0113.183.0345.278.0345 1.564.0021 3.128.0028 4.692-.0007.119 0 .238-.0323.394-.0556.016-.5605.046-1.0859-.019-1.6309-.419-.0563-.802-.1076-1.165-.1562-.196-.2278-.138-.4775-.138-.7103-.004-4.9007-.002-9.8021-.005-14.70276 0-.1906-.022-.38119-.033-.55702-.467-.11042-3.805-.09495-4.151.01688v1.63028c.216.02883.416.06611.618.07947zm-88.6983 6.30025c.0035 2.0713-.0014 4.1432.0049 6.2145.0014.6182.0104 1.2364.175 1.8434.2677.9853.8891 1.6134 1.8535 1.8813.387.1076.7921.1569 1.1931.2012 1.1227.1224 2.1944-.0879 3.2216-.5465.1095-.0485.2029-.1322.3263-.2138-.175-.6337-.3409-1.2378-.5146-1.8652-.1562.0514-.2629.0781-.3633.121-.5251.2236-1.0725.2919-1.6394.2602-.652-.0366-1.1129-.3727-1.2872-1.0121-.0886-.3221-.1479-.6632-.1499-.9966-.014-2.0431-.0084-4.0862-.0056-6.1293.0007-.1477.0327-.2954.0558-.4867h3.0856c.2622-.6752.5139-1.3215.7901-2.0319-.226-.0112-.3745-.0246-.523-.0253-.9358-.0021-1.8716.0007-2.8081-.0028-.1911-.0007-.394.0288-.5795-.1576-.007-.1258-.0216-.2785-.0223-.4311-.0021-.6196.0027-1.2399-.0007-1.85954-.0014-.1477-.0272-.29469-.0419-.4459h-1.4385c-.265.69909-.491 1.39674-.9477 1.98124-.4784.6119-1.1304.9389-1.8388 1.1309-.1291.6267-.2218 1.2013-.2497 1.8385h1.6506c.0223.2897.053.5113.0537.7321zm42.6879-2.681c-1.0662-.3882-2.17-.4825-3.2976-.4318-2.4358.1097-4.3262 1.5754-5.0919 3.8991-.3605 1.0951-.3417 2.2197-.3668 3.3344-.0188.882.1583 1.7625.4631 2.6058.5857 1.6204 1.6708 2.7162 3.3227 3.1874.8912.2546 1.8054.3172 2.7363.2138 1.1799-.1308 2.2523-.5232 3.2328-1.1865.1129-.0766.2168-.1667.3647-.2813-.3501-.6295-.6876-1.2357-1.0432-1.8743-.1701.1034-.3013.1779-.4261.2602-.6527.4325-1.3583.7209-2.1373.8074-1.3221.1477-2.6567-.4185-3.1853-1.8539-.59-1.6022-.6032-3.2381-.083-4.8473.6018-1.8609 2.1847-2.2963 3.7983-1.9439.371.0816.5313.3094.5488.6984.0111.2391.0035.4789.0042.7188v.839c.7601-.0879 1.4664-.0457 2.1686-.2166v-3.3984c-.2949-.2827-.6568-.4023-1.0083-.5303zm55.5324 4.8866c.13-.7096.347-1.3876.759-1.9897.611-.8932 1.452-1.3243 2.53-1.2701.883.0436 1.45.6308 1.446 1.5247-.003.7455-.317 1.3202-.982 1.6866-.552.3038-1.154.4248-1.764.4719-.568.0436-1.142.0183-1.713.0169-.078 0-.157-.038-.279-.0704 0-.1273-.018-.2524.003-.3699zm5.833 5.0435c-.859.4789-1.776.7377-2.762.7251-1.588-.0204-2.691-.9432-3.008-2.5186-.05-.244-.142-.4874-.027-.7511.053-.0134.105-.0373.158-.0394.725-.0218 1.45-.0141 2.173-.0661.949-.0682 1.882-.2398 2.758-.6436.803-.3699 1.438-.9255 1.795-1.7498.308-.7082.411-1.465.343-2.2323-.143-1.6043-1.099-2.6853-2.677-2.9694-.599-.1076-1.223-.1322-1.832-.1055-2.125.0943-3.742 1.0894-4.734 2.9821-1.187 2.266-1.221 4.6566-.425 7.0443.543 1.6247 1.727 2.629 3.387 3.0271.859.2061 1.727.2736 2.616.1807 1.1-.1146 2.134-.4128 3.104-.9403.142-.0766.267-.1836.414-.2869-.269-.6457-.523-1.2526-.803-1.9243-.192.1069-.336.1878-.48.268zm-93.3941-4.9324c.1165-.8341.3843-1.6106.9038-2.2815.6443-.8334 1.5048-1.1809 2.5361-1.0782.7894.0788 1.2678.6407 1.2782 1.4509.0133.9516-.3856 1.5804-1.2865 1.8927-.4819.1666-.9951.2749-1.5028.3284-.5376.057-1.085.0218-1.6282.019-.0914-.0007-.182-.0422-.2845-.0675-.007-.102-.0265-.185-.0161-.2638zm3.0278 2.2042c.8249-.0774 1.6241-.2883 2.3562-.692.9428-.5205 1.5948-1.2871 1.774-2.3772.0837-.5092.1081-1.0381.0809-1.5537-.0648-1.2153-.6603-2.0972-1.7628-2.6114-.6583-.308-1.3605-.3952-2.0794-.4121-1.2294-.0288-2.3862.2096-3.4385.8791-1.1066.7048-1.8354 1.7119-2.3061 2.9244-.3131.806-.4644 1.6444-.5236 2.5094-.0844 1.2372.0167 2.449.4239 3.6207.5809 1.6682 1.7308 2.7288 3.4385 3.1466.8591.2103 1.7294.2623 2.6171.1765 1.1018-.1069 2.1338-.41 3.1066-.9333.1422-.0759.2712-.1772.4128-.2707-.143-.3545-.2573-.6724-.3989-.9776-.1436-.3102-.2008-.6675-.4582-.939-.1262.0725-.2342.133-.3416.1956-.9052.5218-1.8751.8067-2.9211.7631-1.136-.0472-2.0515-.4987-2.6059-1.5516-.2392-.4543-.3466-.9494-.4191-1.4523-.0112-.0767.0216-.1596.0321-.2279 1.0418-.0731 2.0292-.1245 3.0131-.2166zm54.8223-4.6215c.002 1.8434-.008 3.6868.003 5.5302.014 2.2548-2.187 3.0496-3.722 2.3455-.605-.2771-.991-.7863-1.186-1.4087-.159-.5057-.291-1.0339-.331-1.5599-.081-1.0817-.056-2.1655.235-3.224.142-.5191.34-1.0114.656-1.4503.583-.8074 1.406-1.1555 2.355-1.1449.563.0063 1.125.1652 1.686.263.078.0134.148.0717.271.1357.013.1822.032.3482.033.5134zm2.468-2.3167c-1.787-.5802-3.605-.8735-5.486-.6097-2.407.3376-4.141 1.8891-4.789 4.2501-.334 1.2139-.365 2.4454-.316 3.6867.029.7624.155 1.5115.416 2.2317.47 1.2976 1.277 2.2597 2.611 2.7232.702.2433 1.42.2708 2.149.2588 1.166-.0204 2.143-.4572 2.921-1.3384.088-.1006.19-.1899.328-.3277.228.4367.042.8995.263 1.2596.451.1231 3.148.0977 3.476-.0457.016-.4839.03-.9819-.009-1.4882-.249-.0373-.441-.0605-.631-.095-.478-.0879-.604-.2405-.616-.7406-.004-.1406-.002-.2813-.002-.4227 0-2.8878 0-5.7763.001-8.6648v-.5204c-.143-.0718-.225-.1273-.316-.1569zm-42.9666 2.2865c.0035 1.8849 0 3.7698.0021 5.6546.0021 1.5818-1.2538 2.6149-2.8402 2.4869-1.182-.0956-1.8688-.8299-2.1554-1.9327-.4415-1.6992-.3912-3.3984.1882-5.0624.2399-.6906.6492-1.2716 1.3033-1.6457.4101-.235.8536-.3531 1.3152-.3791.7154-.0401 1.4107.0844 2.1352.3502.0202.1984.0516.3629.0516.5282zm3.6909 8.2632c-.7901-.0795-.8954-.1962-.8968-.998v-.2532c0-2.8723.0008-5.7446-.0006-8.617-.0007-.1793-.0182-.3586-.0258-.5141-.0677-.0499-.0991-.0794-.1353-.0977-.0621-.031-.1262-.0598-.1925-.0809-1.7872-.5795-3.6079-.8785-5.483-.5901-2.4755.3805-4.0508 1.8117-4.746 4.2297-.3487 1.2153-.4149 2.4588-.3319 3.717.0551.8342.1896 1.6493.4993 2.4272.5146 1.2898 1.4016 2.1774 2.7446 2.5783.6541.1955 1.3208.2068 1.9909.1871 1.1471-.0331 2.1108-.4719 2.875-1.3426.0879-.0999.189-.1878.3661-.3608.0663.5078.1193.9108.1792 1.3665.6158.0014 1.1848.0141 1.7531.0021.5767-.0112 1.159.0563 1.7419-.0443v-1.5578c-.1478-.0225-.2427-.0415-.3382-.0514zm46.3967-1.247c-.003-1.8729.02-3.7458-.009-5.618-.021-1.2955.814-2.079 1.997-2.2274.502-.0626 1-.0127 1.477.1941.815.3538 1.254 1.0268 1.464 1.8448.415 1.6106.39 3.2289-.063 4.8318-.072.2546-.19.5-.313.7349-.505.9706-1.412 1.465-2.617 1.3609-.387-.033-.773-.1153-1.15-.211-.251-.0633-.487-.1906-.747-.2968-.016-.2271-.039-.4205-.039-.6133zm-2.449 2.4012c.245.0998.491.206.744.2799 1.566.4571 3.154.7223 4.792.545.789-.0851 1.532-.3059 2.216-.7096 1.032-.6077 1.712-1.5149 2.151-2.6184.384-.9643.526-1.9749.614-3.0053.1-1.1801.014-2.335-.29-3.4715-.288-1.0761-.844-1.9777-1.75-2.6557-1.347-1.0079-3.995-1.112-5.514.1237-.123.1006-.255.192-.459.3447-.025-.2757-.054-.4509-.055-.6253-.003-1.6767-.001-3.35337-.003-5.03007-.001-.16457-.019-.32845-.032-.53874-.714-.04782-1.394-.02954-2.073-.02039-.689.00984-1.384-.06541-2.073.04853v1.68232c.245.02602.463.04853.679.07314.415.04642.606.2117.673.62243.032.19342.03.39316.03.59008.002 4.5223.001 9.0453.001 13.5676v.6041c.155.0873.247.152.349.1935zm-30.0619-15.65718v-1.64716c.3389-.09776 3.5981-.11956 4.1253-.02672.0133.14628.0411.30734.0411.4684.0028 1.97209.0008 3.94416.0029 5.91626 0 .159.0195.3186.0355.562.1318-.1168.2044-.1569.2427-.2188.8208-1.3018 2.0292-1.8307 3.5173-1.8089.5892.0077 1.1701.0563 1.7273.2729.7831.3045 1.343.8376 1.6798 1.6141.3075.711.4121 1.4622.4163 2.2253.0119 2.1268.0042 4.2543.0063 6.3811 0 .1794.0181.3587.0314.5887.404.0506.784.0985 1.21.1519.037.5402.025 1.0655.007 1.574-.343.1266-4.8138.154-5.3522.0359-.0711-.4902-.0348-.9973-.016-1.5332.1834-.0225.3187-.0394.454-.0549.6213-.0731.8026-.268.8047-.8974.0041-1.2822.0021-2.5636.0014-3.8457 0-.6759.0181-1.3532-.0091-2.0277-.0139-.3474-.0698-.704-.1758-1.0338-.1799-.5606-.5822-.9087-1.1596-1.0487-1.6129-.3903-3.0689.569-3.3437 2.2155-.0432.2623-.0683.531-.0697.7975-.0062 1.6901-.0041 3.3801-.0014 5.0709 0 .1793.0224.3587.0377.5908.3912.0464.7587.09 1.1192.1329.1172.3186.1304 1.2209.0279 1.6232-.3277.1069-4.8498.1182-5.2947 0-.067-.481-.03-.979-.0224-1.5233.2246-.0436.4233-.0915.6255-.1196.5153-.0717.7134-.2785.7203-.8025.0084-.6477.0029-1.2955.0029-1.9439v-10.43789c0-.09846.0006-.19693 0-.29539-.0056-.67448-.1744-.8503-.832-.88617-.1764-.00985-.3514-.04291-.5599-.06963zm-72.197 23.40298c-8.78901.0054-15.88581184-7.1412-15.88709984-15.9985-.001229-8.84399 7.08923984-15.99996481 15.85489984-16.00149977 8.785-.00147593 15.8762 7.15255977 15.8725 16.01319977-.0036 8.8287-7.0908 15.9814-15.8403 15.9868zm-3.5414-14.9027c0 1.0624-.0138 2.1249.0052 3.1869.0115.6474.0334 1.2995.1212 1.9396.1705 1.2421.7667 2.1969 1.9701 2.6774.6416.2562 1.3136.3563 2.0011.3807 1.2895.0458 2.5224-.169 3.6846-.7569.2178-.1101.2984-.2191.218-.4756-.1878-.5994-.3524-1.2069-.5048-1.8166-.0614-.2458-.1507-.2574-.3579-.1548-.6607.3273-1.3635.4684-2.0993.4068-.6422-.0537-1.1577-.3245-1.365-.9751-.1118-.3509-.1877-.7299-.1905-1.0969-.0191-2.5081-.0116-5.0164-.0216-7.5246-.001-.2418.1125-.2699.3047-.269 1.0045.0047 2.0092-.0053 3.0136.0073.2384.0029.3446-.0826.4159-.3057.206-.6455.4352-1.2835.6528-1.9252.1154-.3403.1131-.3436-.2402-.344-1.2776-.0013-2.5552-.0058-3.8328.0037-.243.0018-.3178-.07759-.3147-.3213.0119-.9146.0002-1.82955.0078-2.74427.0017-.20114-.0592-.28184-.2661-.27676-.4484.01092-.8975.01352-1.3457-.00148-.2154-.0072-.3028.08106-.3731.27765-.1649.46149-.3318.92611-.5483 1.36411-.5007 1.01319-1.2764 1.70055-2.4046 1.92525-.1573.0313-.228.1077-.2492.2702-.0788.604-.166 1.207-.2585 1.8091-.0303.1972.0404.2671.2321.2645.4681-.0061.9367.0115 1.4042-.0059.266-.01.3496.0756.347.3496-.0131 1.377-.006 2.7542-.006 4.1313z" fill="#786f90" fill-rule="evenodd"/></g></svg>