<svg fill="none" height="34" viewBox="0 0 105 34" width="105" xmlns="http://www.w3.org/2000/svg"><path d="m87.0577 28.9941c-.0016 0-.3222.2849-.3222.2849-.4582.4082-.9297.8452-1.4989.6266-.1572-.057-.2678-.2657-.2943-.4277-.0259-1.1684.5021-2.251 1.0141-3.3052l.1313-.2756c1.4728-2.4507 3.1847-5.3382 5.6989-7.3423.4237-.3046.8835-.5606 1.3687-.3609.1116.1042.2416.2849.2416.4652 0 .0572-.0509.2091-.0804.2563-.7021 1.1309-1.3709 2.3181-2.0213 3.4578-1.2709 2.2515-2.5893 4.5784-4.2376 6.6211zm-13.6229-5.7754c-.0963.0669-1.7947-.5033-2.123-2.0706-.2784-1.3493.654-2.4037 1.5561-2.9351.3872-.3041.9704-.4084 1.3982-.257.3971.2663.5047.7416.5047 1.2538 0 .3141-.0418.6368-.0786.9311 0 0-.0071.0573-.0082.0667-.283 1.0541-.7161 2.0896-1.2492 3.0112zm-6.4882 6.374c-.1732-.2565-.2306-.537-.2364-.8402-.0332-1.8625 1.9776-5.198 3.397-7.0151h.0031c.5949 1.2979 1.9418 2.1323 2.7549 2.4839-1.0099 2.2419-4.4735 7.0431-5.9182 5.3714zm24.5139.3307c-.3362.2279-.8085.0527-.6319-.4696.4399-1.3299 2.1885-4.04 2.1885-4.04l4.8706-8.609h-3.3363c-.1585.2596-.4977.8557-.4977.8557-.1543-.2562-.6159-.826-.8059-.9491-.8151-.5133-2.011-.2706-2.8359.1947-3.5868 2.0901-6.2038 6.2198-8.2679 9.4397 0 0-2.1725 3.5798-3.3786 3.846-.9415.0761-.8444-1.1879-.8036-1.4824.364-2.1281 1.2094-4.1512 2.0612-5.9845 1.7324-1.1968 3.7095-2.7641 5.5062-4.4834 3.8992-3.7144 7.1863-7.9226 7.6666-8.86287 0 0-.52.10461-1.1341.12343-2.9998 4.17004-9.1384 10.23094-10.9993 11.13274.8244-1.9761 6.1511-11.40842 10.6841-15.92008l.7133-.68417c1.1029-1.0734 2.2459-2.17525 3.1364-2.35577.094-.00945.2151 0 .3197.21883.0398.83578-.2724 1.45329-.6306 2.15615l-.502 1.02605s.7111-.13304 1.178-.28542c.5418-1.01592 1.1418-2.15614.9206-3.51421-.0738-.437011-.3912-.76942-.806-.84548-1.3522-.256474-2.8259.74061-4.0116 1.54829l-.048.0283c-6.0954 4.75904-11.2426 11.61761-15.7427 20.98361-.3262.2466-1.5863.5414-1.8005.3987.4444-.9116 1.0039-2.1373 1.2839-3.4671.0485-.3801.0935-.7694.0935-1.1492 0-.8176-.1969-1.5868-.9319-2.1185-.8617-.4276-1.9267-.228-2.6447.0948-3.2168 1.3299-5.6208 4.6168-7.3556 7.3236-.9331 1.7197-1.8634 3.5616-2.121 5.6709-.1814 1.6526.1879 2.7165 1.1308 3.2486.9696.4937 2.19-.0194 2.6694-.2662 3.2588-1.7097 5.5359-5.1387 7.3306-8.2736.0714-.0093 1.0514-.0376 1.7926-.2279.0099 0 .0141 0 .0305.01-.0425.1418-.4255 1.2821-.4255 1.2821-1.1375 3.3244-1.6636 5.5853-.5891 6.9248 1.5354 1.8904 4.0774-.0662 6.1454-2.6504-.4439 3.0966 1.1665 3.5813 2.3941 3.344 1.4101-.3798 2.9815-1.881 3.7108-2.6502-.2342.9023-.1705 2.5173 1.1122 2.6786.8793.162 1.5373-.3146 2.2987-.7232 2.731-1.482 6.0006-6.4202 6.8492-7.8479h-1.1129c-1.2066 1.8172-2.7419 4.1999-4.6733 5.3309zm-42.0744-18.4402h3.1258l1.7641-2.85546h-3.1264zm49.9306-7.58569c-2.3833 1.34909-4.8539 2.22276-7.8448 1.91888-.8288.93115-1.6358 1.89043-2.3797 2.87822 4.1976 1.0639 8.6476-1.30132 11.1298-3.55232 2.625-2.27036 3.972-5.1293207 3.972-5.1293207s-1.968 2.2415507-4.8774 3.8845907zm-26.2831-.72166c-.497 5.68033-4.9278 9.01505-6.024 9.28035-.6643.1327-1.798-.1615-.786-2.54546 1.4904-3.21102 4.0348-5.93681 6.7648-7.33339.0664.23752.0647.38912.0452.59835zm-8.6336 14.31475c-.3174-.6837-1.071-1.1208-1.874-1.0734-2.6079.2377-5.1587 2.3749-6.4981 5.4431-.7028 1.577-1.0863 2.8782-1.3378 4.9489.8109-.9306 2.465-2.4599 4.342-3.2958 0 0 .2554-1.9853 1.5578-3.7521.4929-.7317 1.4792-1.9095 2.5867-1.5961.9675.3232.6275 2.9924-.6585 5.5755-.9516 1.9-2.4077 3.8003-3.8811 5.1108-1.3025 1.102-3.2297 2.4318-4.9159 1.406-1.062-.6267-1.6036-1.9379-1.4891-3.6287.5074-4.7967 2.6985-8.8815 5.8338-13.536 3.2332-4.32202 6.7972-8.75798 11.5985-11.12388.9793-.49387 1.8861-.60785 2.67-.30385 0 0-4.5069 2.46973-6.6554 7.03902-.5465 1.15906-1.3066 2.72591-.5412 4.11291.4.7218 1.1102.7789 1.682.7409 2.6334-.6081 4.3347-3.0588 5.7249-5.3003.806-1.70031 1.5223-3.39117 1.5223-5.27226 0-.22792-.0119-.53174-.0312-.75997 1.2581-.66465 3.838.51295 3.838.51295 2.016.66517 6.309 3.94253 7.7567 4.56918.7064-.81677 1.8671-2.05153 2.5206-2.6691l-.9461-.5795c-1.5147-.92144-3.1158-1.79542-4.6918-2.65975-3.5789-1.947023-6.4923-1.263265-7.975-.731264-.5827.20884-1.1153.389384-1.1153.389384-1.1003-1.196809-2.9049-1.0831092-4.2345-.759921-4.7817 1.367771-9.2212 4.701781-13.9808 10.486851-3.4994 4.5312-5.6702 8.445-6.8268 12.3108-.8918 2.6025-1.1628 6.4305 1.0138 8.7009 1.8506 1.9277 4.3045 1.5102 6.0375.8169 3.7546-1.8428 7.1291-5.8137 8.8108-10.3825.4057-1.3582.856-3.277.1574-4.74zm-41.6179-4.4072c-.0062.019-.6377 1.4627-.6377 1.4627-.0913.0759-.2356.038-.401 0l-.2834-.0478c-.8899-.2753-1.5612-.8643-1.7681-1.5671-.2855-1.368.887-2.4413 1.4037-2.8306.4957-.34227 1.2664-.52271 1.7139-.17107.276.32307.3806.74087.3806 1.19717.0001.6173-.1911 1.3106-.408 1.9567zm-1.3563 2.7449s-.0287.0858-.0428.1139c-.0037 0-1.4354 2.3269-1.4354 2.3269-.864 1.1496-1.9427 2.5938-3.2913 3.2869-.3998.1331-.9523.2187-1.2338-.1325-.5969-.7126-.2893-1.7004-.0394-2.4983l.0885-.285c.7166-1.9376 1.8536-3.6478 2.9602-5.2344.0138-.0093.0449-.0188.0561-.0188.0026.0095.007.0095.0089.0286.6945 1.3296 1.9966 1.9468 2.9705 2.2322.0059 0 .0121.0095.0121.0286.0002.0283-.0157.0665-.0536.1517zm17.9089-1.5292c.6404-.8832 2.5044-3.2486 2.9588-3.6475 1.5283-1.33989 2.1391-.75031 2.1919-.3327-1.4263 2.5457-3.1096 5.4618-4.6924 8.0836.0032-.0093-.4953.7504-.4953.7504-.699 1.0636-1.4028 1.9755-2.5509 2.6119-.1637.0478-.4336.0669-.6132-.0665-.2162-.1426-.3015-.3801-.2771-.6272.0687-.8167.9032-3.3144 3.4782-6.7722zm-15.8714-5.77535c-1.9758-1.29182-5.9469 1.17791-9.1275 5.41395-2.9086 3.8-4.1645 8.2166-2.7977 10.259 2.0333 2.4032 5.8078-1.0924 7.413-2.9634l.2071-.2187c1.0915-1.1684 1.9348-2.5743 2.7511-3.9233 0 0 .7502-1.2349.786-1.292.4637-.0851 1.0222-.2182 1.6515-.3987-.0089.0283-2.4078 4.0465-2.1631 6.0412.0762.6084.018 2.8311 2.1957 3.5054 2.9023.4848 5.2201-1.7573 7.2644-3.7521 0 0 .3484-.3321.5455-.5217-.0499.1989-.1149.4644-.1149.4644-.8497 2.9448.2957 3.5626 1.0122 3.7906 2.1652.6273 4.752-2.5076 4.7603-2.5076-.067.9874-.2632 1.8044.7814 2.4598.986.3518 1.9838-.1844 2.7421-.6879 2.7319-1.9188 4.9327-4.9218 6.7102-7.5177h-1.1339c-.0134 0-2.7981 4.0221-4.6062 4.8963-.0026 0-.3319.1683-.5215.0351-.2347-.1996-.1421-.6144.0026-.9083.0091-.0192 6.9816-12.07033 6.9816-12.07033h-3.2921s-.3596.57982-.3889.61782c-.0221-.01895-.0748-.11863-.1114-.1664-2.0396-2.8116-6.6586 1.51311-10.1361 6.52811-1.3388 1.9285-3.0433 4.0999-4.8107 5.6674 0 0-2.6183 2.3918-3.737.6734-.409-.7221-.2832-1.7777-.0525-2.4709 1.3025-3.6951 3.5471-7.0484 6.1011-9.0721.7211-.56012 1.5047-.7221 1.8936-.48455.3706.21885.4303.75985.1959 1.13035-.5948-.0189-1.0713.1612-1.4588.5602-.7632.798-1.0284 1.5675-.7857 2.2896 1.1789 1.6717 3.5298-1.634 3.4161-3.6478-.0407-.72205-.4272-1.4058-1.0041-1.7386-.8597-.51269-2.1713-.37991-3.02.02882-1.1363.42728-2.9349 1.91848-3.9848 3.07758-1.3217 1.4536-3.5885 3.0682-4.2974 2.8874.2322-.6177 2.1469-4.52162.1327-5.98404zm16.5472 21.13525c-3.8771-2.489-9.1389-2.9257-17.6246-.5795-9.0461 2.1185-12.0626 3.4765-16.02358.7503-1.52176-1.3392-2.06736-3.4955-1.65991-6.6014.94494-5.0633 3.49848-9.936 8.03449-15.34064 2.5318-2.81161 4.8802-5.22449 7.9813-6.19328 2.3766-.60785 2.1545 1.25356 1.8669 1.51974-.3035 0-.8133.04766-1.2072.30385-.3198.24713-1.1974 1.04511-1.2446 2.11851-.068 1.64319 1.6384 1.30116 2.3745.39898.7933-1.01665 1.9657-2.96362 1.0435-4.77815-.3866-.645854-1.0545-1.092192-1.8837-1.244207-2.8396-.161724-5.4843 1.187207-7.9251 2.678547-5.33632 3.69499-9.60621 8.81515-12.02196 14.41965-1.39298 3.3815-2.652726 8.2253-.764407 12.168 1.460707 2.7355 4.493307 4.1886 8.111577 3.8847 2.53759-.2657 5.60569-1.083 7.66979-1.5765 2.0637-.4942 12.6273-4.113 16.0986 2.1853 0 0 1.1542-2.2329 4.0387-2.2805 2.3714-.2181 5.7927.6841 8.284 2.5076-.83-1.2439-3.1833-3.0773-5.1465-4.3408z" fill="#786f90"/></svg>