<svg fill="none" height="25" viewBox="0 0 149 25" width="149" xmlns="http://www.w3.org/2000/svg" xmlns:xlink="http://www.w3.org/1999/xlink"><mask id="a" height="25" maskUnits="userSpaceOnUse" width="149" x="0" y="0"><path d="m0 25h148.438v-25h-148.438z" fill="#fff"/></mask><g clip-rule="evenodd" fill="#786f90" fill-rule="evenodd"><path d="m132.297 6.01521c.001-1.29098-1.065-2.32987-2.394-2.33287-1.345-.00305-2.424 1.03888-2.418 2.33414.005 1.2945 1.068 2.31696 2.407 2.31597 1.339-.00094 2.404-1.02682 2.405-2.31724zm-.405 4.49889c-.046-.0066-.077-.0147-.108-.0147-1.247-.001-2.493.0021-3.74-.0054-.166-.001-.201.0902-.245.2029-.437 1.1334-.876 2.2663-1.313 3.3998-.021.0536-.031.1108-.053.1915h1.455v10.4048h4.004zm-10.723 13.8864c0-2.1896-.009-4.3793.007-6.5688.003-.4734.056-.9534.151-1.4179.247-1.2036.944-1.8909 2.134-2.0671.547-.0812 1.113-.0591 1.67-.0646.176-.0017.253-.0552.312-.2116.394-1.0406.8-2.0773 1.2-3.1156.055-.1425.105-.287.156-.4255-.729 0-1.434-.0363-2.133.0076-1.484.0929-2.631.7465-3.375 2.0133-.038.064-.078.1262-.117.1891-.017-.0039-.034-.0078-.051-.0116v-2.216h-3.964v14.1771h4.01zm-44.1734.0007c0-2.8003.0109-5.6007-.0088-8.4009-.0041-.5898-.0702-1.1888-.1942-1.7663-.2923-1.3612-.984-2.4896-2.2367-3.2408-.8385-.5029-1.7658-.7114-2.7437-.761-1.4473-.0735-2.7337.301-3.8284 1.2361-.2036.1739-.4005.3552-.6139.545v-1.5001h-3.964v14.1696h4.0064v-.2977c0-2.5187-.0044-5.0374.0049-7.5561.0012-.3492.0385-.7043.1117-1.0461.2845-1.3283 1.1197-2.116 2.4211-2.2271 1.3551-.1157 2.4935.4486 2.8269 1.8986.0939.4083.1363.8355.1382 1.2543.0123 2.5656.0062 5.1313.0062 7.6969v.2836h4.0743zm-25.7381-8.5346h7.0733c-.054-.3998-.474-1.0411-.9157-1.4088-1.2639-1.0524-3.4339-1.1225-4.8404-.1559-.5779.3972-1.0114.907-1.3172 1.5647zm11.2116 3.1252h-11.3605c.1129 1.0252 1.2368 2.103 2.5249 2.4326 1.768.4525 3.7889.0387 4.8968-1.8622 1.0546.6074 2.1089 1.2147 3.177 1.8299-.4666.774-1.0405 1.4344-1.746 1.9845-1.3674 1.0662-2.9476 1.5551-4.6906 1.6089-1.6336.0504-3.1744-.2671-4.5642-1.1138-2.0065-1.2225-3.1483-2.999-3.4401-5.264-.2999-2.3286.3614-4.3843 2.036-6.1 1.2314-1.2615 2.7557-2.0058 4.5403-2.2186 1.9316-.2305 3.7443.1123 5.3663 1.1788 1.7684 1.1628 2.7946 2.8041 3.1013 4.8348.1312.8682.1087 1.758.1588 2.6891zm-19.554-14.46874c-1.8026-.80341-3.698-1.00406-5.6436-.73146-1.5693.2199-2.9609.83758-4.0802 1.95063-1.383 1.375-1.8739 3.02809-1.594 4.90927.2197 1.4757 1.0008 2.6111 2.2961 3.3995.5304.3229 1.0952.6169 1.6819.8248 1.213.4299 2.4524.7901 3.6787 1.1852.6687.2155 1.3262.4594 1.903.8632.439.3072.7849.6892.8608 1.2272.1466 1.04-.2384 1.8839-1.1128 2.4874-.9392.6482-2.0081.6934-3.095.4719-1.531-.312-2.6365-1.2054-3.471-2.4482-.0467-.0695-.0952-.138-.1534-.2222-1.2486.9499-2.4788 1.8858-3.7168 2.8277.0484.0598.0755.0978.1072.1318.7071.7593 1.4873 1.438 2.3799 1.9895 2.2904 1.4153 4.7997 1.8412 7.4618 1.4813 1.305-.1764 2.4963-.6653 3.509-1.4938 1.7068-1.3961 2.5014-3.1813 2.368-5.3437-.0725-1.1773-.4782-2.2252-1.3015-3.1096-.7465-.802-1.6705-1.3654-2.6942-1.7552-1.1642-.4432-2.3558-.8193-3.5358-1.2235-.7629-.2614-1.5283-.5183-2.1876-.9909-.4015-.2878-.7029-.6455-.7913-1.1384-.1855-1.03485.4202-2.03239 1.5124-2.38267 1.4025-.44984 2.7594-.29918 3.9839.50968.4787.31625.8633.76548 1.3114 1.17289 1.0584-.77304 2.1743-1.58814 3.3024-2.41211-.6525-.76492-1.9658-1.72852-2.9793-2.18023zm46.6957 13.06144c-.0193-.2017-.0289-.4049-.0594-.6051-.4073-2.6778-3.2008-3.9752-5.6275-2.7598-1.5221.7624-2.2737 2.3331-1.9679 4.0816.3876 2.2161 2.5392 3.4453 4.6042 3.0446 1.8172-.3525 3.0351-1.8881 3.0506-3.7613zm-.1207-5.706v-7.90126h3.9975v20.71206h-3.9856v-1.5489c-.095.0811-.1482.1205-.1943.1666-1.0767 1.079-2.4082 1.5955-3.941 1.6774-3.1021.166-6.6578-1.9617-7.2942-5.9228-.2981-1.8549-.1222-3.6569.8288-5.3231 1.1308-1.9813 2.9044-3.1049 5.2071-3.4419 1.4739-.2157 2.8907-.0167 4.1941.7124.3604.2017.6739.4817 1.0085.7265.0484.0355.0938.0747.1791.143zm25.5779-3.10588c-.851-1.37073-1.961-2.50579-3.357-3.36406-2.477-1.52252-5.19-2.00667-8.068-1.58438-3.228.47358-5.7567 2.04609-7.4947 4.72277-1.5497 2.38665-2.0116 5.00445-1.5004 7.76445.5701 3.0785 2.2144 5.4959 4.9911 7.132 2.405 1.4172 5.041 1.8123 7.802 1.4056 2.626-.3867 4.778-1.6009 6.409-3.6326 1.516-1.8883 2.208-4.0595 2.263-6.432.013-.5758.002-1.1521.002-1.7394-.083-.0054-.138-.0121-.193-.0121-3.579-.0005-7.159.0009-10.738-.0043-.192-.0003-.227.0678-.226.2334.007 1.1106.003 2.2213.004 3.3319 0 .0679.01.1357.016.2206h6.691c.004.0338.009.0497.007.0645-.005.0308-.012.0618-.022.0915-.426 1.3174-1.178 2.4105-2.38 3.1855-1.209.78-2.557 1.0532-3.992.9959-1.811-.0724-3.398-.6781-4.695-1.9111-2.8759-2.735-2.747-7.4041.274-10.01881 1.538-1.33107 3.356-1.85272 5.405-1.66849 1.891.17005 3.427.96557 4.587 2.41806.28.35084.519.73274.784 1.11194 1.177-.6892 2.358-1.38131 3.561-2.08596-.052-.08988-.089-.1585-.13-.22492zm29.454 8.81328c-.02-.194-.033-.3889-.059-.5821-.35-2.5809-3.1-3.9915-5.527-2.8436-1.263.5975-2.258 1.9441-2.13 3.7453.167 2.3457 2.496 3.9901 4.851 3.4056 1.691-.4196 2.85-1.9339 2.865-3.7252zm3.916 7.1173h-4.04v-1.5c-.034-.0207-.067-.0415-.101-.0622-.05.0777-.088.1678-.153.2311-1.188 1.1519-2.647 1.6345-4.307 1.6159-3.046-.0343-6.413-2.2408-6.904-6.2281-.201-1.632-.049-3.2232.709-4.7108 1.095-2.1494 2.915-3.383 5.352-3.7486 1.577-.2365 3.081.0005 4.447.8407.323.1989.612.4496.953.7034v-3.93307-3.95415h4.044z"/><g mask="url(#a)"><path d="m8.33334 8.33333h8.33336v-8.33333h-8.33336z" opacity=".8"/><path d="m16.6667 8.33333h8.3333v-8.33333h-8.3333z" opacity=".6"/><path d="m8.33334 16.6663h8.33336v-8.33329h-8.33336z"/><path d="m16.6667 16.6663h8.3333v-8.33329h-8.3333z" opacity=".8"/><path d="m0 16.6663h8.33333v-8.33329h-8.33333z" opacity=".5"/><path d="m0 25.0003h8.33333v-8.3333h-8.33333z" opacity=".8"/><path d="m8.33334 25.0003h8.33336v-8.3333h-8.33336z" opacity=".5"/></g></g></svg>